<?xml version="1.0" encoding="utf-8"?>
<!-- Generator: Adobe Illustrator 24.2.1, SVG Export Plug-In . SVG Version: 6.00 Build 0)  -->
<svg version="1.1" id="Layer_1" xmlns="http://www.w3.org/2000/svg" xmlns:xlink="http://www.w3.org/1999/xlink" x="0px" y="0px"
	 viewBox="0 0 394.2 387.9" style="enable-background:new 0 0 394.2 387.9;" xml:space="preserve">
<style type="text/css">
	.st0{fill:#016FCF;}
</style>
<g transform="translate(0.000000,480.000000) scale(0.100000,-0.100000)">
	<path class="st0" d="M285.7,4722.9c-100-35-171-115-193-216c-8-36-10-524-8-1686l3-1635l21-46c31-66,78-114,142-146l57-28h1665
		h1665l57,28c64,32,111,80,142,146c18,40,21,68,24,229l4,182h-260h-260l-69,78c-37,42-80,93-95,112l-27,35l-73-79
		c-40-44-84-94-98-112l-25-33l-747-1h-748v600v600h-245c-135,0-245,4-245,9s21,53,46,107c25,55,54,120,64,146c11,25,48,111,83,190
		c74,164,156,350,232,523c29,66,83,188,119,270l66,150l303,3l303,2l39-92c22-50,52-117,67-147l26-56l1,148l1,147h374h373l35-92
		c19-51,46-123,58-160c13-37,25-67,26-65c2,1,29,72,62,157l59,155l277,3l278,2l-4,183c-3,160-6,188-24,228c-31,66-78,114-142,146
		l-57,28l-1650,2C423.7,4739.9,334.7,4739.9,285.7,4722.9z"/>
	<path class="st0" d="M1649.7,3768.9c-154-353-199-455-241-548c-54-117-116-263-116-273c0-4,62-6,137-5l138,3l41,95l40,95l246,3
		l246,2l42-100l42-100h139c76,0,139,3,139,7c0,10-62,156-122,288c-28,61-68,151-88,200c-39,94-151,348-197,448l-27,57h-172h-171
		L1649.7,3768.9z M1962.7,3580.9c31-80,65-162,74-182c9-21,16-40,16-43s-70-5-155-5c-102,0-155,4-155,11c0,5,20,56,44,112
		s57,137,72,180c16,42,32,76,37,74C1900.7,3726.9,1930.7,3659.9,1962.7,3580.9z"/>
	<path class="st0" d="M2522.7,3440.9v-500h120h120v390c0,228,4,390,9,390c9,0,27-43,95-230c31-85,96-261,175-470l28-75l121-3l120-3
		l18,48c9,26,44,118,76,203c33,85,72,191,88,235c45,130,103,279,112,289c4,6,8-166,8-382v-392h125h125v500v500l-211-2l-212-3
		l-68-175c-37-96-92-239-121-317c-29-79-55-143-58-143c-5,0-30,63-122,305c-27,72-67,176-90,233l-40,102h-209h-209V3440.9z"/>
	<path class="st0" d="M1672.7,2253.9v-498l420,3l420,2v105v105h-295h-295v90v90h290h290v105v105h-290h-290v90v90h295h295v105v105
		h-420h-420V2253.9z"/>
	<path class="st0" d="M2543.7,2733.9c8-10,112-122,232-250l217-232l-228-243l-229-243l155-3l155-3l96,103c52,57,121,129,152,162
		l55,58l150-160l149-161h163l164-1l-199,211c-109,116-213,228-230,249l-33,38l181,193c100,107,205,218,232,247l51,52h-160h-160
		l-148-160c-81-88-151-160-155-160s-74,72-155,160l-147,160h-161C2539.7,2750.9,2530.7,2749.9,2543.7,2733.9z"/>
	<path class="st0" d="M3724.7,2397.9c-72-73-132-136-132-140c0-5,61-70,135-145l135-137v278c0,152-1,277-3,277
		C3858.7,2530.9,3797.7,2470.9,3724.7,2397.9z"/>
</g>
</svg>
