<?xml version="1.0" encoding="utf-8"?>
<!-- Generator: Adobe Illustrator 24.2.1, SVG Export Plug-In . SVG Version: 6.00 Build 0)  -->
<svg version="1.1" id="Layer_1" xmlns="http://www.w3.org/2000/svg" xmlns:xlink="http://www.w3.org/1999/xlink" x="0px" y="0px"
	 viewBox="0 0 30 25.4" style="enable-background:new 0 0 30 25.4;" xml:space="preserve">
<style type="text/css">
	.st0{fill:#116EB7;}
	.st1{fill:#E4A924;}
	.st2{fill:#1380BD;}
	.st3{fill:#5F98C8;}
	.st4{fill:#93B3D9;}
	.st5{fill:#C8D4E5;}
</style>
<path class="st0" d="M24.7,6.2c-4.7,6-11.6,14-24.5,13.4V0.2h28.9C29.1,0.2,27.4,2.8,24.7,6.2"/>
<path class="st1" d="M0.3,21.1v4.1h29.5V0.5C29.8,0.5,20.4,22.6,0.3,21.1"/>
<path class="st2" d="M10.3,6.8c-4,0-7.2,2.7-7.2,6.1c0,2.7,2.1,5.1,5.2,5.9c3.4-1,6.5-2.6,9.1-4.8c0.1-0.4,0.1-0.7,0.1-1.1
	C17.5,9.5,14.3,6.8,10.3,6.8L10.3,6.8"/>
<path class="st3" d="M15.7,12.9c0,2.5-2.4,4.6-5.4,4.6s-5.4-2-5.5-4.6c0-2.5,2.4-4.6,5.4-4.6C13.3,8.3,15.7,10.4,15.7,12.9"/>
<path class="st4" d="M13.9,12.9c0,1.7-1.6,3.1-3.6,3.1s-3.6-1.3-3.6-3s1.6-3.1,3.6-3.1C12.3,9.8,13.9,11.2,13.9,12.9L13.9,12.9"/>
<path class="st5" d="M12.1,12.9c0,0.9-0.8,1.5-1.8,1.6S8.5,13.8,8.5,13c0-0.9,0.8-1.5,1.8-1.6l0,0C11.3,11.4,12.1,12.1,12.1,12.9
	L12.1,12.9"/>
</svg>
