<?xml version="1.0" encoding="utf-8"?>
<!-- Generator: Adobe Illustrator 24.2.1, SVG Export Plug-In . SVG Version: 6.00 Build 0)  -->
<svg version="1.1" id="Layer_1" xmlns="http://www.w3.org/2000/svg" xmlns:xlink="http://www.w3.org/1999/xlink" x="0px" y="0px"
	 viewBox="0 0 125.1 64.1" style="enable-background:new 0 0 125.1 64.1;" xml:space="preserve">
<style type="text/css">
	.st0{clip-path:url(#SVGID_2_);}
	.st1{fill:#5B6063;}
	.st2{clip-path:url(#SVGID_4_);}
	.st3{clip-path:url(#SVGID_6_);}
	.st4{clip-path:url(#SVGID_8_);}
	.st5{clip-path:url(#SVGID_10_);}
	.st6{fill:#898E90;}
	.st7{fill:#164B91;}
	.st8{fill:#EF3A38;}
	.st9{fill:#10A256;}
</style>
<g>
	<g>
		<g>
			<g>
				<g>
					<g>
						<g>
							<g>
								<defs>
									<path id="SVGID_1_" d="M62.5,3.8c-34,0-61.6,13.3-61.6,29.7s27.6,29.8,61.6,29.8s61.7-13.3,61.7-29.8
										C124.2,17.1,96.6,3.8,62.5,3.8"/>
								</defs>
								<clipPath id="SVGID_2_">
									<use xlink:href="#SVGID_1_"  style="overflow:visible;"/>
								</clipPath>
								<g class="st0">
									<path class="st1" d="M0.9,63.3h123.3V3.8H0.9V63.3z"/>
								</g>
							</g>
						</g>
					</g>
				</g>
			</g>
		</g>
	</g>
</g>
<g>
	<g>
		<g>
			<g>
				<defs>
					<path id="SVGID_3_" d="M59.8,3.8h5.5l0,0H59.8L59.8,3.8z M57,3.8h10.9v0.1L57,3.8C57,3.9,57,3.8,57,3.8z M55.2,3.9h14.5V4
						L55.2,3.9L55.2,3.9z M53.8,4h17.5v0.1L53.8,4L53.8,4z M52.5,4.1h20v0.1L52.5,4.1L52.5,4.1z M51.5,4.2h22v0.1L51.5,4.2L51.5,4.2
						z M50.5,4.2h24.1v0.1L50.5,4.2L50.5,4.2z M49.6,4.3h25.9v0.1L49.6,4.3L49.6,4.3z M48.8,4.4h27.5v0.1L48.8,4.4L48.8,4.4z
						 M48,4.5h29.1v0.1L48,4.5L48,4.5z M47.2,4.6h30.6v0.1L47.2,4.6L47.2,4.6z M46.5,4.7h32v0.1L46.5,4.7L46.5,4.7z M45.8,4.8h33.4
						v0.1L45.8,4.8L45.8,4.8z M45.2,4.9h34.6V5L45.2,4.9C45.2,5,45.2,4.9,45.2,4.9z M44.6,5h36v0.1L44.6,5L44.6,5z M43.9,5h37.2v0.1
						L43.9,5L43.9,5z M43.4,5.1h38.2v0.1L43.4,5.1L43.4,5.1z M42.9,5.2h39.4v0.1L42.9,5.2L42.9,5.2z M42.3,5.3h40.4v0.1L42.3,5.3
						C42.3,5.4,42.3,5.3,42.3,5.3z M41.7,5.4h41.6v0.1L41.7,5.4L41.7,5.4z M41.2,5.5h42.7v0.1L41.2,5.5L41.2,5.5z M40.7,5.6h43.6
						v0.1L40.7,5.6L40.7,5.6z M40.2,5.7h44.5v0.1L40.2,5.7L40.2,5.7z M39.8,5.8h45.4v0.1L39.8,5.8L39.8,5.8z M39.3,5.8h46.3v0.1
						L39.3,5.8C39.3,5.9,39.3,5.8,39.3,5.8z M38.9,5.9h47.3V6L38.9,5.9L38.9,5.9z M38.4,6h48.2v0.1L38.4,6L38.4,6z M38,6.1h49v0.1
						L38,6.1C38,6.2,38,6.1,38,6.1z M37.6,6.2h49.8v0.1L37.6,6.2L37.6,6.2z M37.2,6.3h50.6v0.1L37.2,6.3L37.2,6.3z M36.7,6.4h51.5
						v0.1L36.7,6.4L36.7,6.4z M36.4,6.5h52.3v0.1L36.4,6.5L36.4,6.5z M35.9,6.6H89v0.1L35.9,6.6L35.9,6.6z M35.6,6.6h53.9v0.1
						L35.6,6.6L35.6,6.6z M35.3,6.7h54.6v0.1L35.3,6.7L35.3,6.7z M34.8,6.8h55.4v0.1L34.8,6.8L34.8,6.8z M34.5,6.9h56.1V7L34.5,6.9
						L34.5,6.9z M34.1,7h56.7v0.1L34.1,7L34.1,7z M33.8,7.1h57.5v0.1L33.8,7.1L33.8,7.1z M33.4,7.2h58.2v0.1L33.4,7.2L33.4,7.2z
						 M33.1,7.3H92v0.1L33.1,7.3L33.1,7.3z M32.8,7.4h59.5v0.1L32.8,7.4L32.8,7.4z M32.4,7.4h60.3v0.1L32.4,7.4L32.4,7.4z M32.1,7.5
						h60.8v0.1L32.1,7.5L32.1,7.5z M31.7,7.6h61.6v0.1L31.7,7.6L31.7,7.6z M31.4,7.7h62.2v0.1L31.4,7.7L31.4,7.7z M31.2,7.8H94v0.1
						L31.2,7.8L31.2,7.8z M30.8,7.9h63.5V8L30.8,7.9C30.8,8,30.8,7.9,30.8,7.9z M30.5,8h64.1v0.1L30.5,8L30.5,8z M30.1,8.1h64.7v0.1
						L30.1,8.1L30.1,8.1z M29.9,8.2h65.3v0.1L29.9,8.2L29.9,8.2z M29.6,8.3h65.8v0.1L29.6,8.3L29.6,8.3z M29.4,8.3h66.4v0.1
						L29.4,8.3C29.4,8.4,29.4,8.3,29.4,8.3z M29,8.4h67v0.1L29,8.4L29,8.4z M28.8,8.5h67.5v0.1L28.8,8.5L28.8,8.5z M28.4,8.6h68.1
						v0.1L28.4,8.6L28.4,8.6z M28.2,8.7h68.7v0.1L28.2,8.7L28.2,8.7z M27.9,8.8h69.2v0.1L27.9,8.8C27.9,8.9,27.9,8.8,27.9,8.8z
						 M27.7,8.9h69.8V9L27.7,8.9L27.7,8.9z M27.4,9h70.3v0.1L27.4,9L27.4,9z M27.1,9.1h70.8v0.1L27.1,9.1L27.1,9.1z M26.9,9.1h71.4
						v0.1L26.9,9.1L26.9,9.1z M26.6,9.2h71.8v0.1L26.6,9.2L26.6,9.2z M26.3,9.3h72.4v0.1L26.3,9.3L26.3,9.3z M26.1,9.4H99v0.1
						L26.1,9.4L26.1,9.4z M25.8,9.5h73.5v0.1L25.8,9.5L25.8,9.5z M25.6,9.6h73.9v0.1L25.6,9.6L25.6,9.6z M25.3,9.7h74.4v0.1
						L25.3,9.7L25.3,9.7z M25,9.8h74.9v0.1L25,9.8L25,9.8z M24.8,9.9h75.4V10L24.8,9.9L24.8,9.9z M24.6,9.9h75.8V10L24.6,9.9
						L24.6,9.9z M24.4,10h76.3v0.1L24.4,10L24.4,10z M24.1,10.1h76.7v0.1L24.1,10.1L24.1,10.1z M23.9,10.2h77.2v0.1L23.9,10.2
						L23.9,10.2z M23.7,10.3h77.7v0.1L23.7,10.3L23.7,10.3z M23.5,10.4h78.2v0.1L23.5,10.4L23.5,10.4z M23.2,10.5h78.6v0.1
						L23.2,10.5L23.2,10.5z M23,10.6h79.1v0.1L23,10.6L23,10.6z M22.8,10.7h79.4v0.1L22.8,10.7L22.8,10.7z M22.5,10.8h79.9v0.1
						L22.5,10.8L22.5,10.8z M22.3,10.8h80.3v0.1L22.3,10.8L22.3,10.8z M22.1,10.9h80.8V11L22.1,10.9C22.1,11,22.1,10.9,22.1,10.9z
						 M22,11h81.1v0.1L22,11L22,11z M21.8,11.1h81.6v0.1L21.8,11.1L21.8,11.1z M21.5,11.2h82v0.1L21.5,11.2L21.5,11.2z M21.3,11.3
						h82.5v0.1L21.3,11.3L21.3,11.3z M21.1,11.4h82.8v0.1L21.1,11.4L21.1,11.4z M20.8,11.5h83.3v0.1L20.8,11.5L20.8,11.5z
						 M20.7,11.6h83.6v0.1L20.7,11.6L20.7,11.6z M20.5,11.6h84.1v0.1L20.5,11.6L20.5,11.6z M20.3,11.7h84.4v0.1L20.3,11.7L20.3,11.7
						z M20,11.8h84.9v0.1L20,11.8L20,11.8z M19.9,11.9h85.2V12L19.9,11.9L19.9,11.9z M19.7,12h85.7v0.1L19.7,12L19.7,12z M19.5,12.1
						h86v0.1L19.5,12.1L19.5,12.1z M19.4,12.2h86.4v0.1L19.4,12.2L19.4,12.2z M19.1,12.3h86.8v0.1L19.1,12.3L19.1,12.3z M18.9,12.4
						h87.2v0.1L18.9,12.4L18.9,12.4z M18.8,12.5h87.5v0.1L18.8,12.5L18.8,12.5z M18.6,12.5h88v0.1L18.6,12.5L18.6,12.5z M18.3,12.6
						h88.3v0.1L18.3,12.6L18.3,12.6z M18.2,12.7h88.6v0.1L18.2,12.7L18.2,12.7z M18,12.8h89v0.1L18,12.8L18,12.8z M17.9,12.9h89.3
						V13L17.9,12.9L17.9,12.9z M17.7,13h89.6v0.1L17.7,13L17.7,13z M17.6,13.1h90v0.1L17.6,13.1L17.6,13.1z M17.3,13.2h90.3v0.1
						L17.3,13.2L17.3,13.2z M17.2,13.3h90.7v0.1L17.2,13.3L17.2,13.3z M17,13.3h91v0.1L17,13.3L17,13.3z M16.9,13.4h91.3v0.1
						L16.9,13.4L16.9,13.4z M16.6,13.5h91.7v0.1L16.6,13.5L16.6,13.5z M16.5,13.6h92v0.1L16.5,13.6L16.5,13.6z M16.3,13.7h92.4v0.1
						L16.3,13.7L16.3,13.7z M16.2,13.8h92.7v0.1L16.2,13.8L16.2,13.8z M16,13.9h93.1V14L16,13.9L16,13.9z M15.9,14h93.4v0.1L15.9,14
						L15.9,14z M15.7,14.1h93.6l0,0H15.7L15.7,14.1z M15.5,14.1h94v0.1L15.5,14.1L15.5,14.1z M15.4,14.2h94.3v0.1L15.4,14.2
						L15.4,14.2z M15.2,14.3h94.6v0.1L15.2,14.3L15.2,14.3z M15.1,14.4h95v0.1L15.1,14.4L15.1,14.4z M14.9,14.5h95.2v0.1L14.9,14.5
						L14.9,14.5z M14.7,14.6h95.6v0.1L14.7,14.6L14.7,14.6z M14.6,14.7h95.9v0.1L14.6,14.7L14.6,14.7z M14.5,14.8h96.1v0.1
						L14.5,14.8L14.5,14.8z M14.3,14.9h96.5V15L14.3,14.9L14.3,14.9z M14.2,14.9h96.7V15L14.2,14.9L14.2,14.9z M14,15h97v0.1L14,15
						L14,15z M13.9,15.1h97.3v0.1L13.9,15.1L13.9,15.1z M13.7,15.2h97.6v0.1L13.7,15.2L13.7,15.2z M13.6,15.3h97.9v0.1L13.6,15.3
						L13.6,15.3z M13.5,15.4h98.2v0.1L13.5,15.4C13.5,15.5,13.5,15.4,13.5,15.4z M13.2,15.5h98.5v0.1L13.2,15.5L13.2,15.5z
						 M13.1,15.6h98.7v0.1L13.1,15.6L13.1,15.6z M13,15.7h99.1v0.1L13,15.7L13,15.7z M12.9,15.7h99.3v0.1L12.9,15.7L12.9,15.7z
						 M12.8,15.8h99.5v0.1L12.8,15.8L12.8,15.8z M12.7,15.9h99.8V16L12.7,15.9L12.7,15.9z M12.4,16h100.1v0.1L12.4,16L12.4,16z
						 M12.3,16.1h100.3v0.1L12.3,16.1L12.3,16.1z M12.2,16.2h100.7v0.1L12.2,16.2L12.2,16.2z M12.1,16.3H113v0.1L12.1,16.3
						C12.1,16.4,12.1,16.3,12.1,16.3z M12,16.4h101.1v0.1L12,16.4C12,16.5,12,16.4,12,16.4z M11.9,16.5h101.3v0.1L11.9,16.5
						L11.9,16.5z M11.7,16.5h101.6v0.1L11.7,16.5L11.7,16.5z M11.5,16.6h101.9v0.1L11.5,16.6L11.5,16.6z M11.4,16.7h102.1v0.1
						L11.4,16.7L11.4,16.7z M11.3,16.8h102.5v0.1L11.3,16.8L11.3,16.8z M11.2,16.9h102.7V17L11.2,16.9L11.2,16.9z M11.1,17H114v0.1
						L11.1,17L11.1,17z M11,17.1h103.2v0.1L11,17.1L11,17.1z M10.9,17.2h103.4v0.1L10.9,17.2L10.9,17.2z M10.7,17.3h103.6v0.1
						L10.7,17.3L10.7,17.3z M10.6,17.4h103.8v0.1L10.6,17.4L10.6,17.4z M10.5,17.4h104.1v0.1L10.5,17.4
						C10.5,17.5,10.5,17.4,10.5,17.4z M10.4,17.5h104.3v0.1L10.4,17.5L10.4,17.5z M10.3,17.6h104.5v0.1L10.3,17.6L10.3,17.6z
						 M10.2,17.7h104.7v0.1L10.2,17.7L10.2,17.7z M9.9,17.8H115v0.1L9.9,17.8L9.9,17.8z M9.8,17.9h105.3V18L9.8,17.9L9.8,17.9z
						 M9.7,18h105.6v0.1L9.7,18L9.7,18z M9.6,18.1h105.8v0.1L9.6,18.1L9.6,18.1z M9.5,18.2h106v0.1L9.5,18.2L9.5,18.2z M9.5,18.2
						h106.1v0.1L9.5,18.2L9.5,18.2z M9.4,18.3h106.3v0.1L9.4,18.3L9.4,18.3z M9.3,18.4h106.6v0.1L9.3,18.4L9.3,18.4z M9.2,18.5H116
						v0.1L9.2,18.5C9.2,18.6,9.2,18.5,9.2,18.5z M9,18.6h107v0.1L9,18.6L9,18.6z M8.9,18.7h107.2v0.1L8.9,18.7L8.9,18.7z M8.8,18.8
						h107.5v0.1L8.8,18.8L8.8,18.8z M8.7,18.9h107.7V19L8.7,18.9L8.7,18.9z M8.6,19h107.9v0.1L8.6,19L8.6,19z M8.5,19h108v0.1
						L8.5,19L8.5,19z M8.4,19.1h108.3v0.1L8.4,19.1L8.4,19.1z M8.2,19.2h108.5v0.1L8.2,19.2L8.2,19.2z M8.1,19.3h108.7v0.1L8.1,19.3
						L8.1,19.3z M8.1,19.4h108.8v0.1L8.1,19.4L8.1,19.4z M8,19.5h109.1v0.1L8,19.5L8,19.5z M7.9,19.6h109.3v0.1L7.9,19.6L7.9,19.6z
						 M7.8,19.7h109.5v0.1L7.8,19.7L7.8,19.7z M7.7,19.8h109.6v0.1L7.7,19.8L7.7,19.8z M7.6,19.9h109.9V20L7.6,19.9L7.6,19.9z
						 M7.6,19.9h110V20L7.6,19.9L7.6,19.9z M7.5,20h110.2v0.1L7.5,20L7.5,20z M7.3,20.1h110.4v0.1L7.3,20.1L7.3,20.1z M7.2,20.2
						h110.6v0.1L7.2,20.2L7.2,20.2z M7.1,20.3h110.8v0.1L7.1,20.3L7.1,20.3z M7,20.4h111v0.1L7,20.4L7,20.4z M7,20.5h111.1v0.1
						L7,20.5L7,20.5z M6.9,20.6h111.3v0.1L6.9,20.6L6.9,20.6z M6.8,20.7h111.5v0.1L6.8,20.7L6.8,20.7z M6.7,20.7h111.6v0.1L6.7,20.7
						L6.7,20.7z M6.7,20.8h111.8v0.1L6.7,20.8L6.7,20.8z M6.6,20.9h112V21L6.6,20.9L6.6,20.9z M6.4,21h112.2v0.1L6.4,21L6.4,21z
						 M6.3,21.1h112.3v0.1L6.3,21.1L6.3,21.1z M6.3,21.2h112.5v0.1L6.3,21.2L6.3,21.2z M6.2,21.3h112.7v0.1L6.2,21.3L6.2,21.3z
						 M6.1,21.4h112.8v0.1L6.1,21.4L6.1,21.4z M6,21.5h113v0.1L6,21.5L6,21.5z M6,21.6h113.1v0.1L6,21.6L6,21.6z M5.9,21.6h113.4
						v0.1L5.9,21.6L5.9,21.6z M5.8,21.7h113.5v0.1L5.8,21.7L5.8,21.7z M5.6,21.8h113.7v0.1L5.6,21.8L5.6,21.8z M5.6,21.9h113.8V22
						L5.6,21.9L5.6,21.9z M5.5,22h113.9v0.1L5.5,22L5.5,22z M5.4,22.1h114.2v0.1L5.4,22.1L5.4,22.1z M5.4,22.2h114.3v0.1L5.4,22.2
						L5.4,22.2z M5.3,22.3h114.4v0.1L5.3,22.3L5.3,22.3z M5.3,22.3h114.5v0.1L5.3,22.3L5.3,22.3z M5.2,22.4h114.7v0.1L5.2,22.4
						L5.2,22.4z M5.1,22.5h114.8v0.1L5.1,22.5L5.1,22.5z M5.1,22.6h115v0.1L5.1,22.6L5.1,22.6z M5,22.7h115.2v0.1L5,22.7L5,22.7z
						 M4.8,22.8h115.3v0.1L4.8,22.8L4.8,22.8z M4.8,22.9h115.5V23L4.8,22.9L4.8,22.9z M4.7,23h115.6v0.1L4.7,23L4.7,23z M4.6,23.1
						h115.8v0.1L4.6,23.1L4.6,23.1z M4.6,23.2h115.9v0.1L4.6,23.2L4.6,23.2z M4.5,23.2h116v0.1L4.5,23.2L4.5,23.2z M4.5,23.3h116.1
						v0.1L4.5,23.3L4.5,23.3z M4.4,23.4h116.3v0.2H4.4V23.4z M4.3,23.6h116.6v0.1L4.3,23.6L4.3,23.6z M4.2,23.7h116.7v0.1L4.2,23.7
						L4.2,23.7z M4.2,23.8H121v0.1L4.2,23.8L4.2,23.8z M4.1,23.9H121V24L4.1,23.9L4.1,23.9z M4.1,24h117v0.1L4.1,24L4.1,24z M3.9,24
						H121v0.1L3.9,24L3.9,24z M3.9,24.1h117.2v0.1L3.9,24.1L3.9,24.1z M3.8,24.2h117.5v0.2H3.8V24.2z M3.7,24.4h117.7v0.1L3.7,24.4
						L3.7,24.4z M3.6,24.5h117.8v0.1L3.6,24.5L3.6,24.5z M3.6,24.6h117.9v0.1L3.6,24.6L3.6,24.6z M3.5,24.7h118v0.1L3.5,24.7
						L3.5,24.7z M3.5,24.8h118.1V25H3.5V24.8z M3.4,24.9h118.4v0.2H3.4V24.9z M3.3,25.1h118.5v0.1L3.3,25.1L3.3,25.1z M3.3,25.2
						h118.6v0.1L3.3,25.2L3.3,25.2z M3.1,25.3h118.7v0.1L3.1,25.3L3.1,25.3z M3.1,25.4h118.8v0.1L3.1,25.4L3.1,25.4z M3,25.5h118.9
						v0.1L3,25.5L3,25.5z M3,25.6h119.1v0.1L3,25.6L3,25.6z M2.9,25.7h119.2v0.1L2.9,25.7L2.9,25.7z M2.9,25.7h119.3v0.1L2.9,25.7
						L2.9,25.7z M2.8,25.8h119.4v0.1L2.8,25.8L2.8,25.8z M2.8,25.9h119.5v0.2H2.8V25.9z M2.7,26.1h119.6v0.1L2.7,26.1L2.7,26.1z
						 M2.7,26.2h119.7v0.1L2.7,26.2L2.7,26.2z M2.6,26.3h119.8v0.1L2.6,26.3L2.6,26.3z M2.6,26.4h119.9v0.2H2.6V26.4z M2.5,26.5
						h120.1v0.1L2.5,26.5L2.5,26.5z M2.5,26.6h120.2v0.2H2.5V26.6z M2.3,26.8h120.4V27H2.3V26.8z M2.2,27h120.5v0.1L2.2,27L2.2,27z
						 M2.2,27.1h120.6v0.2H2.2V27.1z M2.1,27.3h120.7v0.1L2.1,27.3L2.1,27.3z M2.1,27.3H123v0.2H2.1V27.3z M2,27.5h121v0.1L2,27.5
						L2,27.5z M2,27.6h121.1v0.2H2V27.6z M1.9,27.8h121.2v0.1L1.9,27.8C1.9,27.9,1.9,27.8,1.9,27.8z M1.9,27.9h121.3v0.2H1.9V27.9z
						 M1.8,28.1h121.4v0.2H1.8V28.1z M1.8,28.2h121.5v0.2H1.8V28.2z M1.7,28.4h121.6v0.1L1.7,28.4L1.7,28.4z M1.7,28.5h121.8v0.2
						H1.7V28.5z M1.6,28.7h121.9v0.2H1.6V28.7z M1.6,28.9h122v0.2H1.6V28.9z M1.4,29h122.1v0.2H1.4V29z M1.4,29.2h122.2v0.3H1.4
						V29.2z M1.3,29.5h122.3v0.2H1.3V29.5z M1.3,29.7h122.4V30H1.3V29.7z M1.2,29.9h122.6V30L1.2,29.9L1.2,29.9z M1.2,30h122.7v0.4
						H1.2V30z M1.1,30.4h122.8v0.2H1.1V30.4z M1.1,30.6H124V31H1.1V30.6z M1,31h123v0.3H1V31z M1,31.3h123.1v0.4H1V31.3z M0.9,31.7
						h123.2V32H0.9V31.7z M0.9,32h123.3v3H0.9V32z M0.9,35h123.2v0.3H0.9V35z M1,35.3h123.1v0.4H1V35.3z M1,35.7h123V36H1
						C1,36,1,35.7,1,35.7z M1.1,36H124v0.5H1.1V36z M1.1,36.5h122.8v0.2H1.1V36.5z M1.2,36.7h122.7V37H1.2V36.7z M1.2,37h122.6v0.2
						H1.2V37z M1.3,37.2h122.4v0.3H1.3V37.2z M1.3,37.4h122.3v0.1L1.3,37.4L1.3,37.4z M1.4,37.5h122.2v0.4H1.4V37.5z M1.4,37.9
						h122.1V38L1.4,37.9L1.4,37.9z M1.6,38h122v0.3H1.6V38z M1.6,38.2h121.9v0.1L1.6,38.2L1.6,38.2z M1.7,38.3h121.8v0.2H1.7V38.3z
						 M1.7,38.5h121.6v0.1L1.7,38.5L1.7,38.5z M1.8,38.6h121.5v0.3H1.8V38.6z M1.8,38.9h121.4V39L1.8,38.9L1.8,38.9z M1.9,38.9
						h121.3v0.2H1.9V38.9z M1.9,39.1h121.2v0.1L1.9,39.1C1.9,39.2,1.9,39.1,1.9,39.1z M2,39.2h121.1v0.3H2V39.2z M2,39.5h121v0.1
						L2,39.5L2,39.5z M2.1,39.6H123v0.2H2.1V39.6z M2.2,39.7h120.6v0.2H2.2V39.7z M2.2,39.9h120.5V40L2.2,39.9L2.2,39.9z M2.3,40
						h120.4v0.2H2.3V40z M2.3,40.2h120.3v0.1L2.3,40.2L2.3,40.2z M2.5,40.3h120.2v0.1L2.5,40.3L2.5,40.3z M2.5,40.4h120.1v0.1
						L2.5,40.4L2.5,40.4z M2.6,40.5h119.9v0.2H2.6V40.5z M2.6,40.6h119.8v0.1L2.6,40.6L2.6,40.6z M2.7,40.7h119.7v0.2H2.7V40.7z
						 M2.7,40.9h119.6V41L2.7,40.9L2.7,40.9z M2.8,41h119.5v0.1L2.8,41L2.8,41z M2.8,41.1h119.4v0.1L2.8,41.1L2.8,41.1z M2.9,41.2
						h119.3v0.1L2.9,41.2L2.9,41.2z M2.9,41.3h119.2v0.1L2.9,41.3L2.9,41.3z M3,41.4h119.1v0.2H3V41.4z M3.1,41.5h118.8v0.2H3.1
						V41.5z M3.3,41.7h118.6v0.2H3.3V41.7z M3.3,41.9h118.5V42L3.3,41.9L3.3,41.9z M3.4,42h118.4v0.1L3.4,42L3.4,42z M3.4,42.1
						h118.3v0.1L3.4,42.1L3.4,42.1z M3.5,42.2h118.1v0.1L3.5,42.2L3.5,42.2z M3.5,42.2h118v0.1L3.5,42.2L3.5,42.2z M3.6,42.3h117.9
						v0.1L3.6,42.3L3.6,42.3z M3.6,42.4h117.8v0.1L3.6,42.4L3.6,42.4z M3.7,42.5h117.7v0.1L3.7,42.5L3.7,42.5z M3.7,42.6h117.6v0.1
						L3.7,42.6L3.7,42.6z M3.8,42.7h117.5v0.1L3.8,42.7L3.8,42.7z M3.8,42.8h117.3v0.1L3.8,42.8L3.8,42.8z M3.9,42.9h117.2V43
						L3.9,42.9L3.9,42.9z M4.1,43h117v0.1L4.1,43C4.1,43.1,4.1,43,4.1,43z M4.2,43.1H121v0.1L4.2,43.1L4.2,43.1z M4.2,43.2h116.7
						v0.1L4.2,43.2L4.2,43.2z M4.3,43.3h116.6v0.1L4.3,43.3L4.3,43.3z M4.3,43.4h116.4v0.1L4.3,43.4L4.3,43.4z M4.4,43.5h116.3v0.1
						L4.4,43.5L4.4,43.5z M4.4,43.6h116.2v0.1L4.4,43.6L4.4,43.6z M4.5,43.7h116.1v0.1L4.5,43.7L4.5,43.7z M4.6,43.8h115.9v0.1
						L4.6,43.8L4.6,43.8z M4.6,43.8h115.8v0.1L4.6,43.8L4.6,43.8z M4.7,43.9h115.6V44L4.7,43.9L4.7,43.9z M4.7,44h115.6v0.1L4.7,44
						L4.7,44z M4.8,44.1h115.5v0.1L4.8,44.1L4.8,44.1z M5,44.2h115.2v0.1L5,44.2L5,44.2z M5,44.3h115.1v0.1L5,44.3L5,44.3z
						 M5.1,44.4h115v0.1L5.1,44.4L5.1,44.4z M5.2,44.5h114.7v0.1L5.2,44.5L5.2,44.5z M5.2,44.6h114.6v0.1L5.2,44.6L5.2,44.6z
						 M5.3,44.6h114.5v0.1L5.3,44.6L5.3,44.6z M5.4,44.7h114.3v0.1L5.4,44.7L5.4,44.7z M5.4,44.8h114.2v0.1L5.4,44.8L5.4,44.8z
						 M5.5,44.9h114.1V45L5.5,44.9L5.5,44.9z M5.6,45h113.8v0.1L5.6,45L5.6,45z M5.6,45.1h113.7v0.1L5.6,45.1L5.6,45.1z M5.8,45.2
						h113.5v0.1L5.8,45.2L5.8,45.2z M5.9,45.3h113.4v0.1L5.9,45.3L5.9,45.3z M5.9,45.4h113.3v0.1L5.9,45.4L5.9,45.4z M6,45.5h113.1
						v0.1L6,45.5L6,45.5z M6.1,45.5H119v0.1L6.1,45.5L6.1,45.5z M6.2,45.6h112.7v0.1L6.2,45.6L6.2,45.6z M6.2,45.7h112.6v0.1
						L6.2,45.7L6.2,45.7z M6.3,45.8h112.5v0.1L6.3,45.8L6.3,45.8z M6.4,45.9h112.2V46L6.4,45.9L6.4,45.9z M6.6,46h112v0.1L6.6,46
						L6.6,46z M6.6,46.1h111.9v0.1L6.6,46.1L6.6,46.1z M6.7,46.2h111.8v0.1L6.7,46.2L6.7,46.2z M6.8,46.3h111.5v0.1L6.8,46.3
						L6.8,46.3z M6.8,46.3h111.4v0.1L6.8,46.3L6.8,46.3z M6.9,46.4h111.2v0.1L6.9,46.4L6.9,46.4z M7,46.5h111.1v0.1L7,46.5L7,46.5z
						 M7.1,46.6H118v0.1L7.1,46.6L7.1,46.6z M7.2,46.7h110.6v0.1L7.2,46.7L7.2,46.7z M7.3,46.8h110.4v0.1L7.3,46.8L7.3,46.8z
						 M7.3,46.9h110.3V47L7.3,46.9L7.3,46.9z M7.5,47h110.1v0.1L7.5,47L7.5,47z M7.6,47.1h110l0,0H7.6L7.6,47.1z M7.7,47.1h109.7
						v0.1L7.7,47.1L7.7,47.1z M7.8,47.2h109.5v0.1L7.8,47.2L7.8,47.2z M7.9,47.3h109.3v0.1L7.9,47.3L7.9,47.3z M7.9,47.4h109.2v0.1
						L7.9,47.4L7.9,47.4z M8,47.5h108.9v0.1L8,47.5L8,47.5z M8.1,47.6h108.8v0.1L8.1,47.6L8.1,47.6z M8.2,47.7h108.6v0.1L8.2,47.7
						L8.2,47.7z M8.4,47.8h108.4v0.1L8.4,47.8L8.4,47.8z M8.5,47.9h108.2V48L8.5,47.9L8.5,47.9z M8.6,48h107.9v0.1L8.6,48L8.6,48z
						 M8.7,48h107.7v0.1L8.7,48L8.7,48z M8.8,48.1h107.5v0.1L8.8,48.1L8.8,48.1z M8.8,48.2h107.4v0.1L8.8,48.2L8.8,48.2z M8.9,48.3
						H116v0.1L8.9,48.3L8.9,48.3z M9,48.4h106.9v0.1L9,48.4C9,48.5,9,48.4,9,48.4z M9.2,48.5h106.7v0.1L9.2,48.5
						C9.2,48.6,9.2,48.5,9.2,48.5z M9.3,48.6h106.5v0.1L9.3,48.6L9.3,48.6z M9.4,48.7h106.2v0.1L9.4,48.7L9.4,48.7z M9.5,48.8h106.1
						v0.1L9.5,48.8L9.5,48.8z M9.6,48.8h105.9v0.1L9.6,48.8L9.6,48.8z M9.7,48.9h105.7V49L9.7,48.9L9.7,48.9z M9.8,49h105.5v0.1
						L9.8,49L9.8,49z M9.9,49.1h105.2v0.1L9.9,49.1L9.9,49.1z M10.1,49.2h105v0.1L10.1,49.2L10.1,49.2z M10.2,49.3h104.6v0.1
						L10.2,49.3L10.2,49.3z M10.3,49.4h104.4v0.1L10.3,49.4L10.3,49.4z M10.4,49.5h104.2v0.1L10.4,49.5L10.4,49.5z M10.5,49.6h103.9
						v0.1L10.5,49.6C10.5,49.7,10.5,49.6,10.5,49.6z M10.6,49.6h103.7v0.1L10.6,49.6L10.6,49.6z M10.7,49.7h103.5v0.1L10.7,49.7
						L10.7,49.7z M10.9,49.8h103.3v0.1L10.9,49.8L10.9,49.8z M11,49.9h103V50L11,49.9L11,49.9z M11.1,50h102.8v0.1L11.1,50L11.1,50z
						 M11.3,50.1h102.5v0.1L11.3,50.1L11.3,50.1z M11.4,50.2h102.2v0.1L11.4,50.2L11.4,50.2z M11.5,50.3h102v0.1L11.5,50.3
						L11.5,50.3z M11.7,50.4h101.8v0.1L11.7,50.4L11.7,50.4z M11.8,50.5h101.5v0.1L11.8,50.5L11.8,50.5z M11.9,50.5h101.2v0.1
						L11.9,50.5L11.9,50.5z M12,50.6h101v0.1L12,50.6C12,50.7,12,50.6,12,50.6z M12.2,50.7h100.7v0.1L12.2,50.7L12.2,50.7z
						 M12.3,50.8h100.4v0.1L12.3,50.8L12.3,50.8z M12.4,50.9h100.2V51L12.4,50.9L12.4,50.9z M12.6,51h100v0.1L12.6,51L12.6,51z
						 M12.7,51.1h99.6v0.1L12.7,51.1L12.7,51.1z M12.8,51.2h99.4v0.1L12.8,51.2L12.8,51.2z M12.9,51.3h99.2v0.1L12.9,51.3L12.9,51.3
						z M13.1,51.3h98.8v0.1L13.1,51.3L13.1,51.3z M13.2,51.4h98.6v0.1L13.2,51.4L13.2,51.4z M13.4,51.5h98.3v0.1L13.4,51.5
						L13.4,51.5z M13.5,51.6h98v0.1L13.5,51.6L13.5,51.6z M13.7,51.7h97.7v0.1L13.7,51.7L13.7,51.7z M13.8,51.8h97.5v0.1L13.8,51.8
						L13.8,51.8z M13.9,51.9H111V52L13.9,51.9L13.9,51.9z M14.2,52H111v0.1L14.2,52L14.2,52z M14.3,52.1h96.6l0,0H14.3L14.3,52.1z
						 M14.4,52.1h96.2v0.1L14.4,52.1L14.4,52.1z M14.5,52.2h96v0.1L14.5,52.2L14.5,52.2z M14.7,52.3h95.7v0.1L14.7,52.3L14.7,52.3z
						 M14.8,52.4h95.5v0.1L14.8,52.4L14.8,52.4z M14.9,52.5H110v0.1L14.9,52.5L14.9,52.5z M15.2,52.6H110v0.1L15.2,52.6L15.2,52.6z
						 M15.3,52.7h94.4v0.1L15.3,52.7L15.3,52.7z M15.5,52.8h94.1v0.1L15.5,52.8L15.5,52.8z M15.6,52.9h93.8V53L15.6,52.9L15.6,52.9z
						 M15.7,52.9h93.6V53L15.7,52.9L15.7,52.9z M16,53h93.2v0.1L16,53L16,53z M16.1,53.1h92.8v0.1L16.1,53.1L16.1,53.1z M16.3,53.2
						h92.5v0.1L16.3,53.2L16.3,53.2z M16.4,53.3h92.3v0.1L16.4,53.3L16.4,53.3z M16.5,53.4h91.9v0.1L16.5,53.4L16.5,53.4z
						 M16.8,53.5h91.5v0.1L16.8,53.5L16.8,53.5z M16.9,53.6h91.2v0.1L16.9,53.6L16.9,53.6z M17.1,53.7H108v0.1L17.1,53.7L17.1,53.7z
						 M17.2,53.8h90.6v0.1L17.2,53.8L17.2,53.8z M17.4,53.8h90.2v0.1L17.4,53.8L17.4,53.8z M17.7,53.9h89.8V54L17.7,53.9L17.7,53.9z
						 M17.8,54h89.4v0.1L17.8,54C17.8,54.1,17.8,54,17.8,54z M18,54.1h89.1v0.1L18,54.1L18,54.1z M18.1,54.2h88.7v0.1L18.1,54.2
						L18.1,54.2z M18.3,54.3h88.4v0.1L18.3,54.3L18.3,54.3z M18.5,54.4h88.1v0.1L18.5,54.4L18.5,54.4z M18.7,54.5h87.7v0.1
						L18.7,54.5L18.7,54.5z M18.8,54.6h87.4v0.1L18.8,54.6L18.8,54.6z M19,54.6h86.9v0.1L19,54.6L19,54.6z M19.3,54.7h86.6v0.1
						L19.3,54.7C19.3,54.8,19.3,54.7,19.3,54.7z M19.4,54.8h86.3v0.1L19.4,54.8L19.4,54.8z M19.6,54.9h85.8V55L19.6,54.9L19.6,54.9z
						 M19.8,55h85.5v0.1L19.8,55L19.8,55z M20,55.1h85v0.1L20,55.1L20,55.1z M20.2,55.2h84.7v0.1L20.2,55.2L20.2,55.2z M20.4,55.3
						h84.3v0.1L20.4,55.3L20.4,55.3z M20.6,55.4h83.9v0.1L20.6,55.4L20.6,55.4z M20.7,55.4h83.6v0.1L20.7,55.4L20.7,55.4z M21,55.5
						h83.1v0.1L21,55.5L21,55.5z M21.2,55.6h82.7v0.1L21.2,55.6L21.2,55.6z M21.4,55.7h82.3v0.1L21.4,55.7L21.4,55.7z M21.6,55.8
						h81.8v0.1L21.6,55.8L21.6,55.8z M21.9,55.9h81.4V56L21.9,55.9L21.9,55.9z M22.1,56H103v0.1L22.1,56C22.1,56.1,22.1,56,22.1,56z
						 M22.2,56.1h80.6v0.1L22.2,56.1L22.2,56.1z M22.4,56.2h80.1v0.1L22.4,56.2L22.4,56.2z M22.7,56.2h79.6v0.1L22.7,56.2L22.7,56.2
						z M22.9,56.3h79.2v0.1L22.9,56.3L22.9,56.3z M23.1,56.4H102v0.1L23.1,56.4L23.1,56.4z M23.3,56.5h78.4v0.1L23.3,56.5L23.3,56.5
						z M23.6,56.6h78v0.1L23.6,56.6L23.6,56.6z M23.8,56.7h77.5v0.1L23.8,56.7L23.8,56.7z M24,56.8h76.9v0.1L24,56.8L24,56.8z
						 M24.3,56.9h76.5V57L24.3,56.9L24.3,56.9z M24.5,57h76v0.1L24.5,57L24.5,57z M24.7,57.1h75.6l0,0H24.7L24.7,57.1z M24.9,57.1
						H100v0.1L24.9,57.1L24.9,57.1z M25.2,57.2h74.7v0.1L25.2,57.2L25.2,57.2z M25.4,57.3h74.2v0.1L25.4,57.3L25.4,57.3z M25.7,57.4
						h73.6v0.1L25.7,57.4L25.7,57.4z M26,57.5h73.2v0.1L26,57.5L26,57.5z M26.2,57.6h72.6v0.1L26.2,57.6L26.2,57.6z M26.5,57.7h72.1
						v0.1L26.5,57.7L26.5,57.7z M26.8,57.8h71.6v0.1L26.8,57.8L26.8,57.8z M27,57.8h71v0.1L27,57.8L27,57.8z M27.2,57.9h70.6V58
						L27.2,57.9L27.2,57.9z M27.5,58h70v0.1L27.5,58L27.5,58z M27.8,58.1h69.5v0.1L27.8,58.1L27.8,58.1z M28,58.2h69v0.1L28,58.2
						L28,58.2z M28.3,58.3h68.4v0.1L28.3,58.3L28.3,58.3z M28.6,58.4h67.9v0.1L28.6,58.4L28.6,58.4z M28.9,58.5h67.3v0.1L28.9,58.5
						L28.9,58.5z M29.1,58.6h66.7v0.1L29.1,58.6L29.1,58.6z M29.5,58.7h66.2v0.1L29.5,58.7L29.5,58.7z M29.7,58.7h65.6v0.1
						L29.7,58.7L29.7,58.7z M30,58.8h64.9v0.1L30,58.8L30,58.8z M30.4,58.9h64.3V59L30.4,58.9L30.4,58.9z M30.6,59h63.8v0.1L30.6,59
						L30.6,59z M30.9,59.1H94v0.1L30.9,59.1L30.9,59.1z M31.3,59.2h62.5v0.1L31.3,59.2L31.3,59.2z M31.6,59.3h61.8v0.1L31.6,59.3
						L31.6,59.3z M32,59.4h61.2v0.1L32,59.4L32,59.4z M32.2,59.5h60.6v0.1L32.2,59.5C32.2,59.6,32.2,59.5,32.2,59.5z M32.5,59.5
						h59.9v0.1L32.5,59.5L32.5,59.5z M32.9,59.6h59.2v0.1L32.9,59.6L32.9,59.6z M33.2,59.7h58.6v0.1L33.2,59.7L33.2,59.7z
						 M33.6,59.8h57.9v0.1L33.6,59.8C33.6,59.9,33.6,59.8,33.6,59.8z M33.9,59.9h57.2V60L33.9,59.9L33.9,59.9z M34.4,60h56.4v0.1
						L34.4,60L34.4,60z M34.7,60.1h55.7v0.1L34.7,60.1L34.7,60.1z M35,60.2h55v0.1L35,60.2L35,60.2z M35.4,60.3h54.2v0.1L35.4,60.3
						L35.4,60.3z M35.7,60.4h53.6v0.1L35.7,60.4L35.7,60.4z M36.2,60.4H89v0.1L36.2,60.4L36.2,60.4z M36.5,60.5h52v0.1L36.5,60.5
						L36.5,60.5z M37,60.6h51.1v0.1L37,60.6L37,60.6z M37.4,60.7h50.3v0.1L37.4,60.7L37.4,60.7z M37.8,60.8h49.5v0.1L37.8,60.8
						L37.8,60.8z M38.2,60.9h48.7V61L38.2,60.9L38.2,60.9z M38.7,61h47.8v0.1L38.7,61L38.7,61z M39.1,61.1H86v0.1L39.1,61.1
						L39.1,61.1z M39.6,61.2h46v0.1L39.6,61.2L39.6,61.2z M40,61.2h44.9v0.1L40,61.2L40,61.2z M40.5,61.3h44v0.1L40.5,61.3
						L40.5,61.3z M40.9,61.4H84v0.1L40.9,61.4L40.9,61.4z M41.5,61.5h42.1v0.1L41.5,61.5L41.5,61.5z M42,61.6h41.1v0.1L42,61.6
						L42,61.6z M42.5,61.7h39.9v0.1L42.5,61.7L42.5,61.7z M43.1,61.8h38.8v0.1L43.1,61.8L43.1,61.8z M43.7,61.9h37.8V62L43.7,61.9
						L43.7,61.9z M44.2,62h36.7v0.1L44.2,62L44.2,62z M44.8,62h35.4v0.1L44.8,62L44.8,62z M45.5,62.1h34v0.1L45.5,62.1L45.5,62.1z
						 M46.2,62.2H79v0.1L46.2,62.2L46.2,62.2z M46.8,62.3h31.5v0.1L46.8,62.3L46.8,62.3z M47.5,62.4h30v0.1L47.5,62.4L47.5,62.4z
						 M48.3,62.5h28.4v0.1L48.3,62.5L48.3,62.5z M49.1,62.6h26.8v0.1L49.1,62.6L49.1,62.6z M49.9,62.7h25.2v0.1L49.9,62.7L49.9,62.7
						z M50.9,62.8H74v0.1L50.9,62.8L50.9,62.8z M51.9,62.9H73V63L51.9,62.9L51.9,62.9z M53,62.9h19.1V63L53,62.9L53,62.9z M54.4,63
						h16.2v0.1L54.4,63L54.4,63z"/>
				</defs>
				<clipPath id="SVGID_4_">
					<use xlink:href="#SVGID_3_"  style="overflow:visible;"/>
				</clipPath>
				<g class="st2">
					<g>
						<g>
							<g>
								<g>
									<defs>
										<path id="SVGID_5_" d="M62.5,3.8c-34,0-61.6,13.3-61.6,29.7s27.6,29.8,61.6,29.8s61.7-13.3,61.7-29.8
											C124.2,17.1,96.6,3.8,62.5,3.8"/>
									</defs>
									<clipPath id="SVGID_6_">
										<use xlink:href="#SVGID_5_"  style="overflow:visible;"/>
									</clipPath>
									<g class="st3">
										<g transform="matrix(0.4,0,0,-0.4,0,70.21)">
										</g>
									</g>
								</g>
							</g>
						</g>
					</g>
				</g>
			</g>
		</g>
	</g>
</g>
<g>
	<g>
		<g>
			<g>
				<defs>
					<rect id="SVGID_7_" x="0.9" y="0.7" width="123.3" height="59.5"/>
				</defs>
				<clipPath id="SVGID_8_">
					<use xlink:href="#SVGID_7_"  style="overflow:visible;"/>
				</clipPath>
				<g class="st4">
					<g>
						<g>
							<g>
								<g>
									<defs>
										<path id="SVGID_9_" d="M96.3,5.5c-1.5-0.5-3.1-0.9-4.7-1.3C91.1,4,90.5,3.9,90,3.8c-1.6-0.4-3.2-0.7-4.9-1
											c-0.8-0.2-1.5-0.3-2.3-0.4c-1.6-0.3-3.3-0.5-5-0.7c-4.9-0.6-10-0.9-15.3-0.9c-34,0-61.6,13.3-61.6,29.7
											c0,12.6,16.2,23.4,39.1,27.7c6.1,1.2,12.6,1.9,19.5,2c1,0,2.1,0,3.1,0c0.9,0,1.7,0,2.5,0c6-0.1,11.7-0.6,17.1-1.5
											c1.6-0.3,3.1-0.6,4.7-0.9c5.3-1.1,10.2-2.5,14.6-4.3c13.9-5.5,22.8-13.8,22.8-23.1C124.2,20,113.1,10.8,96.3,5.5"/>
									</defs>
									<clipPath id="SVGID_10_">
										<use xlink:href="#SVGID_9_"  style="overflow:visible;"/>
									</clipPath>
									<g class="st5">
										<path class="st6" d="M0.9,60.2h123.3V0.7H0.9V60.2z"/>
									</g>
								</g>
							</g>
						</g>
					</g>
				</g>
			</g>
		</g>
	</g>
</g>
<path class="st7" d="M82.9,2.3c-1.6-0.3-3.3-0.5-5-0.7C71.4,3.2,23,16.1,23.2,32.3c0.1,8.8,11.7,21,16.7,25.9
	c6.1,1.2,12.6,1.9,19.5,2c-5.7-5-21.3-19.3-22.9-28.2C33.9,16.7,77,4,82.9,2.3"/>
<path class="st8" d="M52.7,30.3C49.2,15.9,85,5.1,90,3.7c-1.6-0.4-3.2-0.7-4.9-1c-6.3,1.8-46.8,13.4-45.4,28.2
	c1,9.7,20.5,25.5,25.3,29.2c6-0.1,11.7-0.6,17.1-1.5C76,54.4,55.6,39.7,52.7,30.3"/>
<path class="st9" d="M68.4,28.8c-4.3-13.5,23.4-21.9,28-23.3c-1.5-0.5-3.1-0.9-4.7-1.3C85.3,6,53.4,16.1,56,29.6
	c1.8,9.6,25.1,24.7,30.8,28.2c5.3-1.1,10.2-2.5,14.6-4.3C94.3,49.9,72.4,38.1,68.4,28.8"/>
</svg>
