<?xml version="1.0" encoding="utf-8"?>
<!-- Generator: Adobe Illustrator 24.2.1, SVG Export Plug-In . SVG Version: 6.00 Build 0)  -->
<svg version="1.1" id="Layer_1" xmlns="http://www.w3.org/2000/svg" xmlns:xlink="http://www.w3.org/1999/xlink" x="0px" y="0px"
	 viewBox="0 0 154 137.7" style="enable-background:new 0 0 154 137.7;" xml:space="preserve">
<style type="text/css">
	.st0{fill:#008C44;}
	.st1{fill:#231F20;}
	.st2{fill:#01A651;}
	.st3{fill:#FFFFFF;}
</style>
<g>
	<g>
		<g>
			<path class="st0" d="M75.8,0.7h1.3c10.3,0,20.5,2.8,29.4,8c7.4,4.4,13.9,10.3,18.7,17.3c4.2,6,7.2,12.7,8.9,19.8
				c2.8,11.5,2.1,23.7-2.1,34.7c-3.2,8.5-8.4,16.2-15,22.3c-7.1,6.7-15.8,11.5-25.2,13.9c1.5,0.3,2.9,0.4,4.4,0.7
				c0.3,0.1,0.5,0.1,0.8,0c8.3-3.1,15.9-8.1,22.1-14.5c6.3-6.5,11.3-14.5,14.4-22.9c2-5.4,3.3-11,3.9-16.8c2-0.1,4-0.1,6-0.2
				c1.1,0,2.3-0.2,3.4,0c1.5-0.3,3.3-0.3,4.7,0.4c0.9,0.5,1.4,1.5,1.6,2.4c0.5,2.1,0.4,4.4,0.1,6.7c-0.5,3.2-1.5,6.2-2.7,9.1
				c-0.4-0.7-0.9-1.4-1.7-1.7c-0.3-0.2-0.9,0-1,0.3c-0.4,0.6-0.7,1.3-0.6,2c0,0.4,0.3,0.8,0.4,1.2c-1.9-0.9-3.3-2.6-4-4.5
				c-2.9,9.6-7.8,18.7-14.3,26.4c-5.5,6.5-12.1,12-19.5,16.2c2.7,1.1,5.2,2.5,7.6,4c-2.8,3.2-5.6,6.3-8.5,9.5
				c-1.8-0.6-3.7-1.2-5.5-1.7c-0.6,0.3-1.1,0.8-1.7,1.1c-1.2,0.7-2.5,1.3-3.9,1.3c-1,0-2.1-0.4-2.7-1.2c-0.9-0.9-1.3-2.1-1.6-3.4
				c-9.4-1.5-19.3-1.4-28.5,1c-0.4,1.4-0.9,2.7-1.9,3.7c-0.5,0.6-1.2,1.1-2,1.3h-1.5c-1.3-0.3-2.3-1.1-3.3-1.9
				c-0.9,0.4-1.7,0.9-2.5,1.4c-3.1-3.6-6.1-7.3-9.2-10.9c1.3-0.8,2.5-1.5,3.8-2.2c-3.1-1.5-6.2-3.3-9-5.2
				c-7.8-5.3-14.5-12.2-19.6-20.2c-3.9-6.2-7-12.8-9.1-19.9c-0.7,2.1-2.1,3.9-4,4.9c0.4-0.8,0.6-1.7,0.2-2.5c-0.3-0.5-0.6-1.2-1.3-1
				c-0.9,0.3-1.3,1-1.8,1.7c-1.8-3.7-3-7.5-3.2-11.5v-1.3c0.1-1.4,0.2-2.8,0.8-4.1c0.4-0.9,1.2-1.5,2.1-1.7c1.6-0.5,3.3-0.4,5-0.3
				c2.7,0,5.4,0,8,0c0.6,6.8,2.1,13.4,4.7,19.7c3.4,8.5,8.6,16.3,15.2,22.6c6.7,6.4,14.8,11.3,23.7,14c0.2,0.1,0.4,0.1,0.6,0
				c1.5-0.3,2.9-0.8,4.4-0.9c-0.6-0.3-1.4-0.3-2-0.5c-9-2.1-17.5-6.4-24.5-12.4c-7.1-6-12.8-13.7-16.3-22.2c-5-12-6-25.6-2.6-38.2
				c2.4-8.8,6.8-17.1,13-24C39,13.4,47,7.9,55.9,4.6C62.3,2.1,69,0.9,75.8,0.7z M72.6,3.3c-5.9,0.4-11.8,1.8-17.3,4.1
				c-8.8,3.6-16.6,9.5-22.6,16.9c-6.3,7.8-10.5,17.3-12,27.3c-1,7.3-0.7,14.7,1.1,21.9c1.5,5.7,3.8,11.2,6.8,16.2
				c5,8,12.2,14.9,20.5,19.5c7.5,4.3,16.1,6.8,24.8,7.2c1.9,0.2,3.9-0.1,5.7-0.1c1.7,0,3.4-0.2,5.1-0.4c10.4-1.5,20.5-6,28.5-12.8
				c7.4-6.2,13.1-14.3,16.5-23.4c4.8-12.7,4.8-27.1,0-39.8c-2.9-7.8-7.6-14.9-13.5-20.7c-7.1-6.9-16-12-25.7-14.4
				C84.8,3.4,78.7,2.8,72.6,3.3z M4.1,65.3c-0.8,0.2-1.2,0.9-1.5,1.5c-0.5,1.4-0.6,2.9-0.3,4.3c0.3,0.9,0.6,1.7,1.4,2.1
				c0.5,0.3,1.2,0.2,1.6-0.3c0.8-0.7,1-1.7,1.2-2.7c0.2-1.5,0-2.9-0.7-4.2C5.5,65.7,4.9,65.1,4.1,65.3z M149.1,65.8
				c-0.4,0.2-0.8,0.6-1,1c-0.5,0.9-0.7,2.1-0.7,3.1c0,1.1,0.3,2.2,0.9,3.2c0.3,0.5,0.9,0.9,1.5,0.9c0.7-0.1,1.2-0.6,1.5-1.1
				c0.6-1.2,0.8-2.5,0.6-3.9c-0.1-0.9-0.4-2-1.1-2.7C150.3,65.8,149.6,65.6,149.1,65.8z M137.4,72.2c-0.1,0.4-0.3,0.9-0.3,1.3
				c0.7,0.2,1.4,0.4,2.1,0.6c-0.3,0.8-0.4,1.5-0.7,2.4c-0.7-0.2-1.4-0.4-2.1-0.6c-0.2,0.4-0.3,0.9-0.3,1.3c1.8,0.5,3.7,1.1,5.5,1.6
				c0.1-0.4,0.3-0.9,0.3-1.3c-0.9-0.3-1.6-0.5-2.5-0.8c0.3-0.8,0.5-1.5,0.7-2.4c0.9,0.3,1.6,0.5,2.5,0.7c0.1-0.4,0.3-0.9,0.3-1.3
				C141,73.2,139.2,72.7,137.4,72.2z M136,78.4c-0.7,0.3-1.1,0.9-1.4,1.5c-0.3,0.6-0.4,1.4-0.3,2c0.3,0.8,1.1,1.3,2,1.1
				c0.6-0.3,0.9-0.9,1.3-1.4c0.3-0.4,0.6-0.9,0.9-1.3c0.3-0.3,0.9,0.1,0.9,0.4c0,0.6-0.2,1.2-0.6,1.6c-0.3,0.3-0.6,0.3-0.9,0.3
				c-0.2,0.4-0.3,0.8-0.4,1.2c0.3,0.1,0.8,0.2,1.1,0c0.7-0.3,1.1-0.9,1.5-1.5c0.3-0.8,0.6-1.6,0.3-2.4c-0.3-0.9-1.5-1.5-2.3-0.9
				c-0.8,0.7-1.2,1.7-1.9,2.5c-0.3,0.3-0.9,0-0.9-0.5c0-0.8,0.5-1.8,1.5-1.6c0.2-0.4,0.3-0.8,0.4-1.2
				C136.9,78.2,136.5,78.2,136,78.4z M133.6,82.8c-0.7,1.4-1.3,2.8-2,4.2c1.7,0.9,3.4,1.6,5.1,2.5c0.7-1.5,1.4-2.9,2.1-4.4
				c-0.3-0.2-0.6-0.3-0.9-0.4c-0.5,1-1,2.1-1.5,3.2c-0.4-0.2-0.9-0.4-1.4-0.6c0.4-0.9,0.9-1.9,1.4-2.8c-0.3-0.2-0.6-0.3-0.9-0.4
				c-0.4,0.9-0.9,1.9-1.4,2.8c-0.3-0.2-0.7-0.3-1.1-0.5c0.5-1,0.9-2.1,1.5-3C134.2,83.2,134,83,133.6,82.8z M17.8,91.1
				c0.3,0.3,0.4,0.8,0.7,1.1c1.6-0.9,3.3-1.8,5-2.7c-0.2-0.3-0.4-0.8-0.6-1.1C21.1,89.3,19.5,90.1,17.8,91.1z M130.2,89.8
				c-0.5,0.9-0.9,1.7-1.5,2.5c1.6,0.9,3.3,1.9,5,2.8c0.3-0.6,0.7-1.2,1-1.8c0.3-0.6,0.7-1.1,0.7-1.8c0-0.9-0.5-1.6-1.1-2.1
				c-0.7-0.6-1.6-0.9-2.6-0.8C131.1,88.7,130.6,89.2,130.2,89.8z M21.7,92.1c0.1,1,0.7,1.9,0.9,2.9c0.1,0.4-0.5,0.8-0.9,0.5
				c-0.5-0.3-0.8-0.9-0.9-1.4c-0.1-0.3,0.1-0.8,0.3-1c-0.3-0.3-0.4-0.7-0.7-1c-0.6,0.4-0.9,1.2-0.8,1.9c0.3,1,0.9,2.1,1.9,2.7
				c0.9,0.5,2.3-0.1,2.3-1.2s-0.7-2.1-0.9-3.1c0-0.4,0.6-0.7,0.9-0.3c0.6,0.4,1.1,1.5,0.4,2.1c0.3,0.3,0.4,0.7,0.7,1.1
				c0.3-0.3,0.7-0.7,0.8-1.2c0.2-0.9-0.3-1.6-0.7-2.2c-0.4-0.5-0.9-1-1.6-1C22.5,90.6,21.6,91.2,21.7,92.1z M126.4,95.7
				c1.1,1.7,2.2,3.4,3.4,5.1c0.3-0.4,0.5-0.8,0.8-1.1c-0.3-0.3-0.5-0.7-0.7-1c0.4-0.6,0.9-1.3,1.4-1.9c0.4,0.1,0.8,0.3,1.2,0.3
				c0.3-0.4,0.5-0.8,0.9-1.2c-2-0.5-3.9-0.9-6-1.5C127,94.9,126.7,95.3,126.4,95.7z M22.2,98.3c0.9,1.2,1.8,2.4,2.7,3.6
				c0.3-0.2,0.6-0.4,0.9-0.6c-0.6-0.9-1.3-1.7-1.9-2.6c1.3-0.9,2.5-1.9,3.8-2.7c-0.3-0.3-0.5-0.7-0.8-1C25.3,96,23.8,97.1,22.2,98.3
				z M122.3,101c1.5,1.2,2.9,2.4,4.4,3.6c0.9-1.2,1.9-2.3,2.8-3.4c-0.3-0.3-0.5-0.4-0.8-0.7c-0.7,0.8-1.3,1.6-2.1,2.4
				c-1.2-1-2.4-2-3.6-3C122.8,100.3,122.5,100.6,122.3,101z M25.1,102.2c0.3,0.3,0.6,0.7,0.9,1c0.4,0,0.8-0.3,1.2-0.4
				c0.5,0.6,1,1.2,1.5,1.8c-0.2,0.3-0.4,0.7-0.6,1c0.3,0.3,0.6,0.8,0.9,1.1c0.9-1.8,1.9-3.6,2.8-5.5c-0.3-0.3-0.7-0.8-1-1.1
				C28.9,100.9,27,101.5,25.1,102.2z M119.3,104.1c-0.5,0.7-0.7,1.6-0.4,2.5c0.3,1,1.1,1.8,2.1,2.2c1.7,0.6,3.9-0.9,3.7-2.8
				c0.2,0.1,0.4,0.3,0.6,0.3c0.2-0.2,0.4-0.4,0.6-0.6c-0.8-0.7-1.5-1.5-2.2-2.1c-0.6,0.6-1.2,1.3-1.9,1.9c0.3,0.3,0.4,0.4,0.7,0.7
				c0.3-0.3,0.7-0.7,1-1c0.2,0.3,0.3,0.6,0.3,0.9c0,0.9-0.7,1.5-1.5,1.7c-0.7,0.2-1.4-0.3-1.8-0.8s-0.8-1.2-0.6-1.8
				c0.3-0.9,1.3-1.5,2.1-1.1c0.3-0.3,0.6-0.6,0.9-0.9c-0.5-0.3-1.1-0.5-1.6-0.3C120.5,102.7,119.8,103.4,119.3,104.1z M29.8,107.6
				c0.3,0.3,0.6,0.6,0.9,0.9c1-1.2,2.1-2.3,3.3-3.4c-0.8,1.5-1.6,2.8-2.4,4.3c0.3,0.3,0.6,0.6,0.9,0.9c1.4-0.9,2.7-1.8,4.1-2.7
				c-1,1.2-2.1,2.3-3.3,3.5c0.3,0.3,0.6,0.6,0.9,0.9c1.3-1.4,2.7-2.7,3.9-4.2c-0.4-0.4-0.9-0.9-1.4-1.3c-1.4,0.8-2.7,1.6-3.9,2.5
				c0.8-1.4,1.5-2.7,2.2-4.1c-0.5-0.4-0.9-0.9-1.4-1.3C32.4,104.8,31.1,106.2,29.8,107.6z M116.3,107c0.9,1,1.7,2.1,2.6,3.1
				c-1.5-0.4-3-0.9-4.4-1.4c-0.3,0.3-0.8,0.6-1.1,0.9c1.3,1.5,2.5,2.9,3.7,4.4c0.3-0.3,0.6-0.5,0.9-0.8c-0.9-1-1.8-2.1-2.7-3.1
				c1.5,0.4,3.1,0.9,4.6,1.5c0.3-0.3,0.7-0.6,1-0.9c-1.2-1.5-2.5-2.9-3.7-4.4C117,106.5,116.6,106.7,116.3,107z M35.2,112.5
				c0.3,0.3,0.7,0.6,1,0.9c1.2-1.5,2.4-2.9,3.6-4.4c-0.3-0.3-0.7-0.6-1-0.9C37.6,109.5,36.4,111.1,35.2,112.5z M110,111.9
				c0.5,2,0.9,3.9,1.5,6c0.4-0.3,0.8-0.5,1.1-0.8c-0.1-0.4-0.2-0.9-0.3-1.2c0.6-0.4,1.3-0.9,1.9-1.4c0.3,0.3,0.7,0.5,1,0.8
				c0.3-0.3,0.8-0.5,1.1-0.9c-1.6-1.2-3.4-2.2-5-3.4C110.9,111.3,110.5,111.6,110,111.9z M106.5,114.1c-0.9,0.5-1.9,1-2.8,1.6
				c0.9,1.6,1.9,3.3,2.8,5c0.9-0.5,1.9-1,2.8-1.6c0.5-0.3,1-0.9,1-1.5c0.1-0.9-0.8-1.9-1.7-1.6c0.5-0.6,0.3-1.5-0.4-1.9
				C107.8,113.7,107,113.8,106.5,114.1z M74.9,118.7c-6,0.4-11.9,1.5-17.5,3.3c-3.2,1-6.3,2.3-9.2,4c2,2.4,4,4.8,6.1,7.2
				c5.3-2.7,11.1-4.3,17-5.1c6.8-0.9,13.7-0.9,20.5,0c5.6,0.8,11,2.1,16.3,3.9c1.8-2.1,3.7-4.1,5.5-6.2c-2.8-1.5-5.8-2.8-8.9-3.9
				c-6-2-12.3-3-18.6-3.4c-1.9-0.1-3.9-0.2-5.7-0.1C78.4,118.7,76.7,118.7,74.9,118.7z"/>
		</g>
		<path class="st0" d="M76.4,19.6c5.5-0.3,11,0.8,16.2,2.7c4.7,1.8,9,4.5,12.6,8c5,4.6,8.6,10.4,11.3,16.7c0.5,1,0.8,2.2,1,3.3
			c1.3,5.4,1.7,11,1.2,16.6c-0.6,6.5-2.7,12.9-6.4,18.2c-3.4,5-8.3,9.2-13.6,12.2c-0.2-15.1-0.3-30-0.4-45.1
			c0.2-1.5-0.3-3.2-1.2-4.4c-0.7-0.9-1.6-1.7-2.7-2.2c-0.1-2.7-0.6-5.3-2-7.5c-0.9-1.5-2.2-2.7-3.9-3.3c-1.5-0.9-2.8-2.1-4.1-3.3
			c-2.9-2.7-5.6-5.6-7.4-9.2h-0.1c-2.1,3.7-5,6.8-8.1,9.5c-1.5,1.2-3,2.3-4.5,3.3c-0.4,0.3-0.9,0.3-1.3,0.6
			c-1.5,0.9-2.3,2.7-2.7,4.4s-0.4,3.5-0.3,5.3c-1.6,1.3-2.6,3.3-3,5.2c-0.3,1.5-0.4,3.3-0.3,4.8c-0.1,13.9-0.2,27.9-0.3,41.8
			c-3.9-2.7-7.4-6-10.5-9.6c-3.3-3.9-6.1-8.5-7.9-13.3c-2.1-5.5-2.7-11.5-2.1-17.3c0.9-8,4.4-15.5,9-22.1c2.1-2.8,4.7-5.2,7.5-7.4
			c5-3.8,11-6.4,17.2-7.5C71.9,19.8,74.1,19.6,76.4,19.6z"/>
		<path class="st0" d="M131.2,90c0.5-0.4,1.3-0.3,1.8,0.1c0.6,0.3,1.3,0.9,1.2,1.7c-0.1,0.6-0.5,1.1-0.9,1.6
			c-1.1-0.6-2.1-1.3-3.3-1.9C130.6,91.1,130.8,90.5,131.2,90z"/>
		<path class="st0" d="M127.8,95.9c0.8,0.2,1.5,0.4,2.3,0.6c-0.3,0.4-0.6,0.9-0.9,1.4C128.8,97.1,128.3,96.5,127.8,95.9z"/>
		<path class="st0" d="M28.1,102.4c0.8-0.3,1.5-0.6,2.2-0.9c-0.4,0.7-0.8,1.4-1.2,2.1C28.8,103.3,28.5,102.9,28.1,102.4z"/>
		<path class="st0" d="M111.4,112.5c0.7,0.4,1.3,0.9,2,1.4c-0.4,0.3-0.9,0.6-1.3,0.9C111.8,114,111.6,113.2,111.4,112.5z"/>
		<path class="st0" d="M105.4,116c0.6-0.3,1.2-0.8,1.8-0.9c0.5-0.2,0.9,0.6,0.5,0.9c-0.5,0.4-1.2,0.8-1.8,1.1
			C105.7,116.6,105.5,116.3,105.4,116z"/>
		<path class="st0" d="M107.8,117.1c0.3-0.2,0.6-0.3,0.9-0.2c0.4,0.3,0.6,0.9,0.2,1.2c-0.5,0.4-1.2,0.7-1.8,1.1
			c-0.3-0.4-0.5-0.9-0.8-1.3C106.9,117.6,107.4,117.3,107.8,117.1z"/>
	</g>
	<g>
		<path class="st1" d="M76.9,8.1c0.6,0.2,1.2,0.3,1.8,0.6c-0.3,0.3-0.7,0.7-1,1.1c-0.6-0.2-1.2-0.4-1.8-0.6
			C76.3,8.8,76.7,8.4,76.9,8.1z"/>
		<path class="st1" d="M64.8,8.3c0.3,0.1,0.5,0.5,0.7,0.9c0.6,1.2,0.9,2.6,1.4,3.9c0.1,0.3,0.3,0.7,0.6,0.9c1-0.2,2.2-0.3,3.1-0.9
			c-0.3-0.3-0.8-0.3-1.1,0.1c-0.1,0-0.3,0.1-0.4,0.1c-0.1-0.6-0.2-1.5,0.5-1.8c0.9-0.4,1.9-0.5,2.8-0.4c0.5,0.1,1.2,0.3,1.2,0.9
			s-0.6,0.9-0.9,1.2c0.7,0.2,1.5,0,2.1,0c1-0.1,2.1-0.1,3.2,0c0-0.3,0-0.6-0.2-0.9s-0.5-0.5-0.8-0.8c0.3-0.4,0.6-0.9,0.9-1.3
			c0.3,0.3,0.7,0.6,0.9,1c0.3,0.6,0.2,1.3,0.1,2c1,0,2.1,0.1,3.1,0.3c0-0.3,0.1-0.7-0.2-0.9c-0.2-0.3-0.4-0.5-0.7-0.8
			c0.3-0.4,0.7-0.8,1.1-1.2c0.3,0.4,0.9,0.9,0.9,1.5c0,0.9-0.3,1.9-0.3,2.7c-0.7,0-1.4-0.2-2.1-0.2c-1-0.1-2.1-0.1-3.2-0.1
			c-1.4-0.1-2.8,0.1-4.2,0.1c-0.7,0-1.3-0.2-1.8-0.6c-1,0.9-2.4,1.1-3.7,1.4c-0.4,0.1-0.9-0.1-1.3-0.4c-0.5-0.5-0.7-1.2-0.9-1.9
			c-0.3,0.7-0.4,1.5-0.9,2.1c-0.4,0.7-1.2,1.2-2,1.5c-1.1,0.5-2.3,0.9-3.4,1.4c0-0.1-0.1-0.3-0.2-0.4c1.5-1.1,3.1-2,4.4-3.3
			c0.7-0.7,1.3-1.5,1.4-2.5c0-0.9-0.3-1.7-0.9-2.5C64.4,9,64.6,8.7,64.8,8.3z"/>
		<path class="st1" d="M69.4,9.6c0.3-0.4,0.5-0.8,0.8-1.2c0.6,0.1,1.3,0.3,1.9,0.4c-0.3,0.3-0.6,0.8-0.9,1.2
			C70.6,9.9,70,9.7,69.4,9.6z"/>
		<path class="st1" d="M57.9,10.5c0.5-0.3,1.1-0.3,1.6-0.3c1.4,0,2.9,0.2,4.1,0.9c0.7,0.4,1.2,1.3,0.9,2.1c-0.4-0.1-0.7-0.3-0.9-0.6
			c-0.7-0.5-1.5-1-2.3-1c-0.4-0.1-0.5,0.5-0.9,0.5c-0.8,0.1-1.7,0-2.4-0.5C57.8,11.3,57.6,10.8,57.9,10.5z"/>
		<path class="st1" d="M96.1,11.7c0.2-0.5,0.6-0.9,1-1.1c0.1,0,0.2,0.1,0.3,0.2c0.2,0.6,0.9,0.8,1.4,1.2c-0.3,0.3-0.5,0.8-0.9,0.9
			c-0.1,0-0.2-0.1-0.3-0.1c-0.3,1.5-0.6,2.8-1,4.2c0.9,0.4,1.9,0.9,2.7,1.3c0.1-0.3,0.3-0.6,0.2-0.9s-0.3-0.7-0.3-1
			c0.4-0.3,0.9-0.5,1.4-0.8c0.2,0.5,0.4,1,0.3,1.5c-0.1,0.6-0.4,1-0.7,1.5c0.9,0.5,1.8,1,2.7,1.5c0.4-0.6,0.3-1.3,0-2
			c0.5-0.2,0.9-0.4,1.5-0.6c0.2,0.6,0.3,1.3,0.1,1.9c-0.3,0.9-0.9,1.6-1.5,2.4c-0.9-0.6-1.9-1.2-2.8-1.7c-1.1-0.5-2.1-1.2-3.3-1.6
			c-1.4-0.6-2.7-1.2-4.2-1.6c-1.5-0.5-2.9-0.8-4.4-1.5c-0.6-0.3-1.1-0.9-1-1.5c0.1-0.9,0.9-1.5,1.5-2.1c0.2,0.2,0.3,0.3,0.5,0.4
			c-0.3,0.3-0.9,0.7-0.9,1.2c0,0.4,0.3,0.7,0.7,0.9c0.9,0.5,2.1,0.7,3.1,1c1.2,0.3,2.3,0.8,3.4,1.2c0.3-1.5,0.8-3,1-4.5
			C96.3,11.8,96.2,11.7,96.1,11.7z"/>
		<path class="st1" d="M92.4,11.9c0.9-0.7,2-0.9,3.1-0.7c-0.2,0.3-0.4,0.6-0.7,0.9c-0.5-0.1-1-0.2-1.5,0c0.4,0.3,1,0.3,1.5,0.6
			c0.3,0.3,0.2,0.8,0,1.1c-0.3,0.6-1.1,0.8-1.8,0.7c-1.2-0.2-2.3-0.7-3.3-1.3c0.3-0.1,0.5-0.3,0.8-0.2c1.1,0.3,2.2,0.9,3.4,0.5
			c-0.4-0.4-1.2-0.3-1.6-0.7C91.9,12.5,92.1,12.1,92.4,11.9z"/>
		<path class="st1" d="M99.3,14c0.4-0.2,0.9-0.4,1.3-0.6c0.4,0.4,0.9,0.9,1.3,1.3c-0.4,0.2-0.9,0.3-1.3,0.6
			C100.2,14.8,99.8,14.4,99.3,14z"/>
		<path class="st1" d="M54.9,13.5c0.9-0.1,2,0,2.7,0.7c0.9,0.9,1.3,2.3,1.6,3.5c-1,0.4-2.1,0.9-3.1,1.5c-0.4,0.3-1.1,0.5-1.5,0.2
			c-0.3-0.3-0.3-0.9-0.4-1.3c0.1-0.1,0.3-0.2,0.3-0.2c0.2,0.2,0.4,0.3,0.7,0.2c0.9-0.4,1.8-0.9,2.7-1.3c0-0.4-0.3-0.9-0.6-1.2
			c-0.5-0.6-1.4-0.6-2.1-0.5C55.2,14.6,55,14,54.9,13.5z"/>
		<path class="st1" d="M80.3,15c0.5,0.3,1,0.4,1.6,0.7c-0.3,0.3-0.6,0.6-0.9,0.9c-0.5-0.3-1-0.4-1.5-0.6
			C79.7,15.7,80.1,15.3,80.3,15z"/>
		<path class="st1" d="M51.5,18.3c0.1-0.6,0.1-1.1,0.3-1.6c0.5,0.2,1.1,0.3,1.5,0.8c0.6,0.9,0.9,1.8,1.3,2.7
			c-1.2,0.7-2.4,1.4-3.5,2.2c-0.6,0.4-1.2,0.8-1.9,0.9c-0.3,0.9-1.1,1.4-1.7,2c0.3,0.8,0.3,1.6-0.1,2.4c-0.5,1.2-1.5,2.2-2.3,3.2
			c-0.6,0.6-1.1,1.2-2,1.5c-0.6,0.2-1.1-0.2-1.5-0.6c-0.6-0.9-0.9-2-1-3c0.2-0.2,0.4-0.3,0.6-0.3c0.2,0.9,0.3,1.7,0.8,2.4
			c0.2,0.3,0.6,0.4,0.9,0.3c0.6-0.3,1.1-0.8,1.5-1.2c0.8-0.9,1.5-1.8,2.1-2.9c0.2-0.4,0.3-1,0-1.5c-0.4-0.5-1.1-0.8-1.8-0.7
			c-0.1-0.6-0.2-1.3-0.3-1.9c0.4,0.1,0.9,0.2,1.2,0.3c0.4,0.3,0.7,0.6,0.9,0.9c0.4-0.4,1-0.8,1.4-1.4c0.2-0.4-0.3-0.8-0.5-1
			c0.1-0.3,0.1-0.6,0.2-0.9c0.4,0.3,0.8,0.9,1.3,1c0.4,0.1,0.9-0.2,1-0.5c-0.3-0.3-0.8-0.5-1.3-0.5c0.1-0.4,0.2-0.9,0.2-1.4
			c0.3,0.2,0.8,0.3,1,0.5c0.3,0.3,0.5,0.7,0.7,1c0.9-0.6,1.7-1.1,2.7-1.7c-0.2-0.3-0.3-0.5-0.5-0.7C52.2,18.4,51.8,18.4,51.5,18.3z"
			/>
		<path class="st1" d="M46.2,18.2c0.6-0.3,1.2-0.4,1.8-0.7c-0.1,0.5-0.2,1-0.3,1.5c-0.4,0.2-0.8,0.3-1.2,0.4c0,0.4-0.1,0.9-0.1,1.3
			c-0.6,0.3-1.2,0.4-1.7,0.7c0-0.5,0.1-1,0.1-1.5c0.4-0.2,0.8-0.3,1.2-0.5C46.1,18.9,46.2,18.6,46.2,18.2z"/>
		<path class="st1" d="M44.3,18.6c0.6-0.3,1.2-0.6,1.8-0.8c-0.1,0.5-0.2,1-0.3,1.5c-0.6,0.3-1.2,0.5-1.8,0.8
			C44.2,19.5,44.3,19,44.3,18.6z"/>
		<path class="st1" d="M53.1,21.2c0.6-0.1,1.1-0.2,1.7-0.3c-0.1,0.4-0.2,0.9-0.3,1.4c-0.3,0.1-0.7,0.2-1.1,0.3
			c-0.1,0.3-0.2,0.7-0.2,1c-0.5,0.2-1,0.3-1.6,0.4c0.1-0.4,0.1-0.9,0.2-1.4c0.3-0.1,0.8-0.2,1.1-0.3C53,22,53.1,21.6,53.1,21.2z"/>
		<path class="st1" d="M99.5,21.6c0.4-0.2,0.9-0.3,1.2-0.5c0.3,0.4,0.8,0.9,1.1,1.4c-0.4,0.2-0.9,0.3-1.2,0.4
			C100.2,22.4,99.8,22,99.5,21.6z"/>
		<g>
			<path class="st1" d="M106,24.7c0.8-0.4,1.6-0.5,2.4-0.6c0.1,0.3,0.3,0.4,0.3,0.7c-0.7,0.2-1.4,0.1-2,0.5
				c-0.3,0.3-0.3,0.8-0.1,1.1c0.5,0.9,1.4,1.7,2.1,2.5c0.5,0.5,1,1,1.6,1.5c-0.3-0.5-0.9-1-1.2-1.5c-0.2-0.2-0.3-0.5,0-0.7
				c0.4-0.4,1-0.5,1.5-0.3c1,0.3,1.8,1.2,2.5,2.1c0.6,0.7,1,1.5,1.8,2.1c0.3,0.3,0.8,0.4,1.3,0.5c0.8,0.2,1.5,0.7,2.1,1.1
				c0.3,0.2,0.5,0.5,0.4,0.9c-0.1,0.6-0.3,1.2-0.7,1.7c-0.3,0.6-0.9,0.8-1.5,1.1c-0.3-0.7-0.8-1.4-1-2.1c-0.2-0.5-0.3-1.1-0.3-1.6
				c-0.4-0.2-0.9-0.3-1.3-0.8c-1-1.2-1.9-2.4-2.9-3.6c0.3,0.5,0.7,0.9,0.9,1.4c0.2,0.4-0.4,0.7-0.8,0.9c-0.9,0.2-1.5-0.4-2.1-0.9
				c-1-0.9-2-1.8-2.8-2.8c-0.4-0.5-0.9-1.1-0.9-1.8C105.2,25.3,105.7,24.9,106,24.7z M116.8,33.6c0.1,0.5,0.3,1.1,0.4,1.6
				c0.2-0.3,0.3-0.7,0.4-1.1C117.4,33.8,117,33.7,116.8,33.6z"/>
		</g>
		<g>
			<path class="st1" d="M32.1,33.2c0.3-0.3,0.5-0.6,0.8-0.9c0.2-0.2,0.4,0.1,0.5,0.2c0.2,0.3,0.6,0.6,0.3,0.9
				c1.3,0.3,2.5,0.8,3.8,1.3c0.5,0.2,0.9,0.5,1.4,0.9c-0.7,1.2-1.4,2.4-2,3.7c-0.7,1.4-1.4,2.8-1.8,4.3c-0.3,0.9-0.7,1.6-1.2,2.3
				c-0.2,0.3-0.4,0.5-0.6,0.9c0,0.5,0.3,0.9,0.3,1.4c-0.1,0.9-0.3,1.8-0.4,2.7c-0.4,1.7-0.7,3.5-0.8,5.3c-0.2,1.4-0.2,2.7-0.3,4.1
				c0,0.5-0.2,1.2-0.5,1.5c-0.4,0.3-0.9,0.1-1.4-0.1c0-0.2,0-0.3,0-0.5c0.4-0.3,0.5-0.9,0.5-1.3c0-1.3,0.1-2.5,0.3-3.8
				c-0.8-0.1-1.5,0.2-2.1,0.8c-0.5,0.5-0.7,1.3-0.9,2c-0.5-0.1-1-0.2-1.5-0.3c0.3-1,0.8-2.1,1.6-2.7c0.7-0.6,1.6-0.8,2.6-0.8
				c0.2,0,0.4,0.1,0.4-0.2c0.2-1.3,0.3-2.6,0.6-3.9c-0.3,0-0.7,0-0.9,0.2c-0.3,0.3-0.7,0.6-0.9,0.9c-0.3-0.4-0.8-0.9-1.1-1.2
				c0.4-0.3,0.8-0.8,1.3-0.9c0.6-0.2,1.3-0.1,2,0c0.3-1,0.4-2.1,0-3.1c-0.5-1-0.7-2.1-0.6-3.3c0-0.4,0.4-0.6,0.8-0.8
				c0.7-0.3,1.4-0.5,2.1-0.5c0.4-1.1,0.9-2.2,1.5-3.3c-0.7-0.4-1.4,0.1-2,0.4c-0.3-0.5-0.4-0.9-0.7-1.5c0.4-0.3,0.9-0.5,1.5-0.5
				s1.1,0.3,1.6,0.6c0.3-0.8,0.8-1.5,1.2-2.2c-1.4-0.5-2.8-1-4.3-1.4c-0.2,0.2-0.3,0.3-0.4,0.4c-0.5-0.3-0.9-0.8-0.9-1.3
				C31.6,33.5,31.9,33.5,32.1,33.2z M32.2,44.3c-0.2,0.3,0,0.8,0.1,1.1c0.4-0.4,0.8-0.9,1-1.5C32.8,44,32.5,44.1,32.2,44.3z"/>
		</g>
		<path class="st1" d="M121.9,35.9c0.1-0.4,0.2-1,0.7-1.1c0.3,0,0.4,0.3,0.5,0.4c0.3,0.8,0.5,1.6,0.6,2.5c0.2,1.3,0.3,2.7-0.3,4
			c-0.3,0.7-0.9,1.3-1.6,1.1c-0.1-0.3,0.2-0.7,0.3-1c0.4-0.9,0.7-2,0.5-2.9c0-0.3-0.5-0.4-0.6-0.8C121.9,37.3,121.8,36.6,121.9,35.9
			z"/>
		<path class="st1" d="M116.6,37.5c0.2-0.1,0.3-0.2,0.4-0.3c1.2,1.5,2.3,3.1,3.6,4.5c0.7,0.7,1.5,1.5,2.5,1.5c0.9,0,1.5-0.6,2.1-1.2
			c0.4,0.2,0.8,0.3,1.1,0.6c0.1,0.2-0.1,0.3-0.3,0.4c-0.9,0.8-2,1.3-2.9,1.9c-0.4,0.3-1,0.5-1.3,1c-0.2,0.2-0.1,0.4,0,0.7
			c0.3,0.9,0.3,1.7,0.7,2.6c0.1,0.2,0.2,0.4,0.4,0.5c0.3,0,0.5-0.2,0.8-0.3c0.3,0.2,0.4,0.3,0.7,0.5c-0.4,0.4-0.9,0.8-1.2,1.4
			c-0.3,0.7-0.1,1.5,0.1,2.2c0.1,0.3,0.1,0.8,0.5,1c0.3,0,0.5-0.2,0.8-0.3c0.2,0.2,0.5,0.4,0.6,0.7c-0.3,0.3-0.9,0.4-1.2,0.8
			c-0.4,0.4-0.3,1.1-0.2,1.6c0.6-0.1,0.8-0.8,1-1.1c0.3,0.3,0.7,0.6,0.9,0.9c-0.3,0.4-0.6,0.9-1.1,1c-0.7,0.2-1.5,0.1-2.2,0.2
			c-0.1-1-0.2-2.1,0.1-3c-0.6-1-0.7-2.2-0.8-3.4c-0.1-0.5,0.3-1.1-0.1-1.5c-0.5-0.8-0.6-1.7-0.9-2.6c-0.3-0.7-0.5-1.5-0.2-2.3
			c0.3-0.7,1-1,1.7-1.3c-0.9-0.3-2-0.5-2.7-1.2c-0.9-0.9-1.5-2.1-2.1-3.3C117.3,38.9,117,38.2,116.6,37.5z"/>
		<path class="st1" d="M37.6,39.2c0,0,0.1,0,0.2,0c0.2,0.4,0.3,0.8,0.4,1.2c-0.3,0.3-0.5,0.6-0.8,0.9c0.2,0.3,0.3,0.7,0.4,1
			c-0.3,0.5-0.7,1-1.1,1.5c-0.2-0.4-0.4-0.9-0.6-1.2c0.3-0.3,0.5-0.7,0.8-1c-0.2-0.3-0.3-0.7-0.4-1.1C36.9,40.1,37.2,39.5,37.6,39.2
			z"/>
		<path class="st1" d="M26.9,49.1c0.3,0.4,0.5,0.9,0.9,1.4c-0.3,0.5-0.4,0.9-0.7,1.5c0.3,0.3,0.5,0.7,0.8,1.1
			c-0.3,0.7-0.6,1.4-0.9,2.1c-0.3-0.3-0.7-0.8-0.9-1.2c0.2-0.5,0.4-1,0.7-1.5c-0.3-0.3-0.4-0.8-0.7-1.1
			C26.3,50.5,26.6,49.8,26.9,49.1z"/>
		<path class="st1" d="M127.8,59.5c0.3-0.1,0.5-0.3,0.7,0c0.3,0.3,0.6,0.7,0.9,1.1c0.1,0.3-0.3,0.3-0.4,0.4
			c-1.5,0.5-3.2,0.9-4.8,0.9c-0.8,0-1.4-0.6-1.8-1.2c0-0.2,0.1-0.3,0.1-0.4c0.9,0.2,1.8,0,2.7-0.1C126,59.9,127,59.8,127.8,59.5z"/>
		<path class="st1" d="M28.9,64.8c0.4,0.6,0.7,1.2,1,1.8c0.7,0.1,1.4,0.2,2.1,0.2c-0.4,0.5-0.9,1-1.4,1.5c0.2,0.7,0.3,1.4,0.4,2
			c-0.6-0.3-1.2-0.6-1.9-0.9c-0.6,0.3-1.2,0.7-1.8,1c0.1-0.7,0.2-1.4,0.3-2.1c-0.5-0.4-1-0.9-1.5-1.4c0.7-0.2,1.4-0.3,2.1-0.3
			C28.4,66.1,28.6,65.5,28.9,64.8z"/>
		<path class="st1" d="M125.1,67.2c0.3-0.6,0.5-1.3,0.9-1.9c0.3,0.6,0.7,1.2,0.9,1.8c0.7,0.1,1.4,0.2,2.1,0.3
			c-0.4,0.5-0.9,1-1.5,1.5c0.2,0.7,0.3,1.4,0.4,2.1c-0.6-0.3-1.2-0.6-1.9-0.9c-0.6,0.3-1.2,0.7-1.8,1c0.1-0.7,0.2-1.4,0.3-2.1
			c-0.5-0.4-1-0.9-1.5-1.4C123.8,67.4,124.5,67.3,125.1,67.2z"/>
		<g>
			<path class="st1" d="M34.1,75.7c0.3-0.4,0.9-0.5,1.4-0.3c0.2,0.3,0.3,0.6,0.3,0.9c-0.3-0.1-0.7-0.4-0.9-0.1
				c-0.2,0.4,0,0.9,0.3,1.3c0.5,0.9,1,1.8,1.3,2.8c0.2,0.8-0.2,1.7-0.9,2.1c0.1,0.3,0.2,0.6,0.3,0.9c1.4,2.1,2.7,4.1,4.1,6.2
				c1.5,1.5,2.9,3.1,4.4,4.7c0.6,0.6,1.4,1.1,1.4,2c0.3-0.5,0.8-1,1.2-1.5c0.1,0.3,0.2,0.5,0.2,0.8c-0.1,0.3-0.3,0.6-0.3,0.9
				c0.3,0.3,0.4,0.6,0.8,0.8c1.4,0.9,2.7,1.9,4.1,2.7c0.3,0.1,0.2-0.3,0.1-0.3c-0.8-0.8-1.9-0.9-2.5-1.8c-0.3-0.4-0.7-1-0.3-1.5
				c0.3-0.5,0.9-0.4,1.5-0.3c0.7,0.1,1.5,0.3,2.1,0.7c0.9,0.5,1.6,1.2,2.1,2.1s0.6,2.1,0.4,3.1c0.2,0.1,0.4,0.2,0.6,0.3
				c0.2,0.5,0.3,0.9,0.6,1.5c-0.5-0.3-1-0.6-1.5-0.9c-1.1,2.1-2.2,4.2-3.3,6.2c-0.2-0.4-0.3-0.8-0.4-1.2c-0.2-0.2,0-0.3,0.1-0.5
				c0.9-1.7,1.8-3.3,2.7-5c-0.2,0-0.3,0-0.4,0c-0.3-0.3-0.7-0.5-1-0.7c-1.4,2-2.7,3.9-4,5.8c-0.1-0.3-0.2-0.6-0.2-0.9
				c0.1-0.5,0.3-1,0.3-1.5c-0.1-0.5-0.3-0.9-0.4-1.4c-0.6,0-1.1-0.1-1.6-0.4s-0.9-0.9-0.5-1.5c0.2-0.5,0.7-0.8,1.2-0.9
				c0.5,0,0.9,0.3,1.4,0.7c0.1-0.3,0.2-0.6,0.1-0.9c-0.2-0.6-0.8-1-1.1-1.5c-0.3-0.3-0.3-0.8-0.3-1.2c-0.2-0.2-0.3-0.3-0.5-0.4
				c-1.5,1.7-2.9,3.4-4.4,5.2c-0.1,0.1-0.2,0.2-0.3,0.3c-0.1-0.4-0.1-0.9-0.2-1.3c-0.1-0.2,0.2-0.3,0.3-0.5c0.9-1.1,2-2.3,2.9-3.4
				c0.3-0.3,0.4-0.8,0.3-1.2c-0.3-0.3-0.6-0.7-0.9-1c-1.6,1.5-3.3,3-4.8,4.5c-0.1,0.1-0.3,0.2-0.3,0.3c0-0.5-0.1-0.9-0.1-1.4
				c0.9-0.9,1.8-1.7,2.7-2.6c0.3-0.3,0.3-1-0.2-1.3c-0.3-0.1-0.6,0.3-0.9,0.6c-0.3-0.1-0.4-0.3-0.8-0.3c-0.3,0-0.3,0.3-0.5,0.4
				c-0.4,0.2-0.9,0-1.3-0.3c-0.6-0.5-1-1.3-0.9-2.1c0.2-1.2,1.5-2,2.7-1.5c0.9,0.3,1.4,1.2,1.4,2.1c0.4,0,0.9,0,1.2,0.3
				s0.3,0.8,0.3,1.2c0.3-0.2,0.5-0.4,0.7-0.6c-1.1-1.1-2.1-2.3-3.3-3.4c-0.5-0.3-0.9-0.9-1.1-1.5c-2,1.3-3.9,2.7-5.9,3.9
				c0.1-0.5,0.2-1,0.3-1.5c0.9-0.6,1.7-1.1,2.6-1.7c0.3-0.4,0.3-1.2-0.3-1.4c-0.9-0.2-1.8-0.1-2.7-0.4c-0.3-0.3-0.6-0.8-0.6-1.2
				c0.1-0.6,0.3-1.1,0.6-1.6c0.3,0.1,0.8,0.2,1.1,0.3c-0.3,0.3-0.5,0.6-0.6,1c0.5,0.4,1.2,0.3,1.8,0.4c0.3-0.3,0.6-0.7,0.6-1.1
				c-0.1-0.6-0.6-1-0.7-1.6c-0.1-0.3,0.2-0.6,0-0.9c-0.3-0.8-0.8-1.5-1.1-2.4c-0.1-0.2-0.2-0.4-0.3-0.6c0,0.6,0.3,1.2,0,1.8
				c-0.2,0.5-0.5,1-0.9,1.3c-0.5,0.3-1.1,0.3-1.6,0.1c-0.5-0.2-0.9-0.6-1.3-0.9c0,1.3-0.3,2.5-0.6,3.7c-0.3,0.4-0.9,0.8-1.3,1.1
				c0.3-0.8,0.5-1.6,0.6-2.4c0.3-1.5,0.2-3.2-0.2-4.7c0.5-0.7,1-1.4,1.5-2.1c0,1.1,0,2.4,0.8,3.3c0.3,0.4,0.8,0.9,1.4,0.9
				c0.6-0.2,0.9-0.9,0.5-1.3c-1,0.2-2.1-0.7-2-1.7c0.1-0.6,0.7-0.8,1.2-0.6c0.6,0.2,0.9,0.6,1.4,1c0-0.2,0.1-0.4,0-0.6
				c-0.3-0.7-0.6-1.3-0.9-2c0.1-0.5,0.3-1,0.4-1.5c0.8,1.7,1.5,3.4,2.4,5c0.1,0.3,0.3,0.5,0.6,0.6c0-1.1-0.8-2.1-1.2-3
				C33.8,77.5,33.7,76.5,34.1,75.7z M36.6,86.3c-0.1,0.4-0.3,0.9-0.7,1.1c0.3,0.2,0.6,0.3,0.8,0.6c0.2,0.4,0.1,0.9,0,1.4
				c0.5-0.3,0.9-0.6,1.4-0.9C37.6,87.7,37.1,87,36.6,86.3z M37.9,93.5c0.3-0.2,0.5-0.4,0.9-0.3c0.7,0,1.3,0.9,0.9,1.5
				c0.1,0,0.2,0,0.3,0.1c0.3-0.8,0.1-1.8-0.8-2.1C38.6,92.3,37.7,92.8,37.9,93.5z M49.6,96.5c0,0.2,0.1,0.3,0.3,0.4
				c0.8,0.5,1.7,0.9,2.4,1.5c0.5,0.4,0.7,1.3,0.3,1.9c0.5,0.3,1,0.5,1.5,0.8c0.2-0.6,0-1.3-0.2-1.9c-0.2-0.4-0.5-0.8-0.9-1.1
				C52.1,97.3,50.9,96.6,49.6,96.5z M48.8,99.1c0.1,0.3,0.3,0.7,0.3,0.9c0.3,0.9,0,1.9-0.5,2.7c0.1,0.4,0.2,0.8,0.3,1.2
				c0.8-1,1.5-2.1,2.2-3.3C50.3,100.1,49.5,99.5,48.8,99.1z"/>
		</g>
		<path class="st1" d="M119.5,76.9c0.3-0.6,1.1-0.7,1.7-1c-0.2,0.5-0.4,0.9-0.6,1.5c2.1,0.9,4.3,1.9,6.3,2.9
			c-0.4,0.3-0.9,0.4-1.4,0.7c-1.2-0.6-2.4-1.1-3.6-1.7c-0.6-0.3-1.3-0.1-1.8,0.3c-0.3,0.2-0.3,0.6-0.3,0.9c0.4-0.3,0.9-0.6,1.4-0.5
			s1,0.4,0.9,0.9c0,0.7-0.4,1.2-1,1.5c0.2,0.4,0.3,1,0,1.5c-0.3,0.6-1.2,0.8-1.7,0.3c-0.4-0.4-0.5-1-0.7-1.5
			c-0.4,0.1-0.9,0.3-0.9,0.8c-0.1,0.4-0.3,0.8-0.7,1.1c-0.9,1.4-1.8,2.7-2.7,4c0.7,0.4,1.3,0.9,2,1.3c-0.2-1.2-0.1-2.5,0.3-3.7
			c0.5-0.3,1.1-0.5,1.7-0.8c0.5,1.1,1.2,2.1,2.2,2.7c0.6,0.3,1.2,0.6,1.8,0.9c-0.1,0.3-0.5,0.4-0.8,0.6c-1.4-0.5-2.8-1-3.8-2.1
			c-0.3,1.3,0,2.7,0.7,3.8c-0.5,0.2-1.1,0.3-1.6,0.4c-1-0.7-2.1-1.4-3.2-2.1c-0.6,0.9-0.9,1.9-0.7,2.9c0.2,0.9,0.9,1.7,1.5,2.3
			c0.5,0.4,1.3,0.4,2,0.3c-0.3-0.1-0.6-0.3-0.7-0.5c-0.2-0.4,0-0.9,0.3-1.3c0.3-0.2,0.6-0.3,0.9-0.3c0.6,0.1,1,0.7,0.9,1.3
			c-0.2,1-1.2,1.8-2.2,1.9c-1.2,0-2.4-0.6-3.2-1.5c-0.6-0.7-0.9-1.6-1-2.5c-0.6,0.7-1.1,1.5-1.8,2c1.7,1.7,3.4,3.4,5.1,5.1
			c-0.5,0-1,0.1-1.5,0.1c-1-1-2.1-2.1-3.1-3.1c-0.3-0.3-0.8-0.9-1.4-0.8c-0.5,0.2-0.9,0.6-1.2,0.9c1.5,1.8,2.9,3.7,4.4,5.5
			c-0.5,0-1,0-1.5-0.1c-0.9-0.9-1.5-2-2.4-3c-0.3-0.3-1-0.3-1.2,0.3c0,0.3,0.3,0.5,0.5,0.8c-0.2,0.3-0.3,0.5-0.4,0.8
			c-0.5-0.9-2.1-0.5-2.4,0.5c-0.2,0.6,0.3,1.2,0.9,1.1c-0.1-0.2-0.3-0.3-0.3-0.5c-0.2-0.8,0.6-1.5,1.4-1.3c0.3,0.1,0.6,0.3,0.8,0.6
			c0.2,0.4,0,0.9-0.3,1.3c-0.6,0.6-1.5,0.9-2.2,0.8c-1.2-0.3-1.9-1.8-1.4-2.8c0.4-0.8,1.3-1.2,2.1-1.1c0.1-0.4,0.1-0.9,0.5-1.2
			c0.3-0.3,0.8-0.3,1.2-0.2c-0.2-0.3-0.3-0.5-0.6-0.8c-1.5,1.2-3,2.4-4.5,3.6c-0.5,0.1-1.1,0-1.6,0c1.4-1.1,2.7-2.1,4.1-3.3
			c0.9-0.7,1.8-1.4,2.7-2.2c0.4-0.3,0.9-0.6,1.5-0.6c-0.5-0.4-1-0.9-1.5-1.3c0.3-0.1,0.5-0.1,0.8-0.1c0.3,0.2,0.5,0.3,0.8,0.3
			c0.7-0.4,1.1-1.1,1.6-1.7c0.6-0.6,1-1.3,1.6-1.9c0.4-0.3,0.6-0.7,0.9-1c0.8-1.2,1.5-2.4,2.3-3.5c0.3-0.4,0.6-1,1-1.4
			c0.3-0.4,0.4-1,0.8-1.4c0.3-0.4,0.8-0.5,1.3-0.7c-0.3-0.7-0.3-1.5-0.1-2.1c0.5-0.6,1.4-0.6,2.1-0.9c-0.9-0.3-1.8-0.7-2.7-0.9
			C118.4,77,118.9,76.6,119.5,76.9z"/>
		<g>
			<path class="st1" d="M100.4,100.6c0.8-0.3,1.7,0,2.1,0.7c0.3,0.6,0.3,1.4-0.2,2s-1.5,0.9-2.2,0.6c-0.5-0.2-0.9-0.5-1-1
				C98.9,101.9,99.5,100.9,100.4,100.6z M100.9,101.4c-0.3,0.3-0.7,0.9-0.3,1.5c0.1,0.2,0.3,0.3,0.4,0.2c0.3-0.3,0.5-0.6,0.6-1
				C101.6,101.7,101.2,101.2,100.9,101.4z"/>
		</g>
		<g>
			<path class="st1" d="M95.6,101.2c0.3,0,0.5,0.1,0.8,0.2c0.3,0.2,0.3,0.5,0.7,0.6c0.2,0,0.3-0.2,0.6-0.2c0.5,0.2,0.9,0.3,1.5,0.4
				c-0.4,0.3-0.9,0.4-1.4,0.7c1,2.1,2.1,4.3,3.2,6.5c-0.5-0.2-1-0.3-1.5-0.4c-0.7-1.5-1.4-2.8-2.1-4.3c-0.2-0.3-0.3-0.7-0.8-0.8
				c-0.5-0.2-1,0.2-1.5,0.3c0.9,2.2,1.7,4.5,2.5,6.8c-0.5-0.3-1-0.6-1.5-0.9c-1.1-0.9-2.7-1.1-4.1-0.7c-0.5-0.3-1-0.6-1.5-0.9
				c1-1.4,2.2-2.6,3.6-3.6c0,0,0-0.1-0.1-0.2c-1.5,0.5-3,1.1-4.5,1.6c-0.4-0.2-0.9-0.3-1.4-0.5c2.1-0.9,4.3-1.5,6.4-2.4
				c0.7-0.3,1.4-0.7,2.1-0.3C96.2,102.3,95.8,101.8,95.6,101.2z M92.6,107.8c0.9,0.1,2,0.3,2.8,0.8c-0.3-0.9-0.6-1.7-0.9-2.6
				C93.8,106.6,93.2,107.2,92.6,107.8z"/>
		</g>
		<g>
			<path class="st1" d="M58.3,103.6c2,0.6,3.9,1.2,5.9,1.8c1.3,0.4,2.7,0.6,3.9,0.9c0.8,0.2,1.7,0.3,2.2,0.9c0-0.7,0-1.3,0.1-2
				c0.3,0.2,0.4,0.3,0.6,0.5c0,0.3,0.1,0.6,0.3,0.9c0.2,0,0.3,0,0.5,0.1c0.3,0.3,0.7,0.8,1,1.1c-0.5-0.1-1-0.1-1.5-0.2
				c-0.3,2.4-0.5,4.8-0.9,7.2c-0.3-0.3-0.7-0.8-1-1.2c0.2-1.6,0.4-3.3,0.6-5c0.2-1.1-1.7-1.8-2.3-0.9c-0.3,0.9-0.3,1.8-0.3,2.7
				c0,0.7,0.1,1.5-0.3,2.1c-0.4,0.7-1.3,1-2.1,1.1c-0.3,0.1-0.9,0.1-1-0.3c-0.1-0.2,0-0.4,0.3-0.4c0.4-0.1,0.9-0.1,1.3-0.4
				c0.3-0.3,0.4-0.9,0.3-1.4c0-0.9-0.3-2,0.2-2.9c0.3-0.5,0.7-0.9,1-1.1c-0.3-0.1-0.8-0.3-1.1-0.1c-0.5-0.1-0.9-0.3-1.5-0.4
				c-0.7,2.2-1.4,4.4-2,6.6c0,0.1-0.1,0.2-0.2,0.3c-0.5-0.9-0.5-2-1-2.8c-0.5-0.9-1.4-1.5-2.3-1.9c-0.3-0.6-0.4-1.1-0.7-1.7
				c1.7-0.4,3.4-0.7,5.1-0.7c-0.2-0.3-0.5-0.3-0.8-0.4c-1.3-0.4-2.6-0.8-3.9-1.2C58.9,104.4,58.6,104,58.3,103.6z M60.7,108.1
				c0.8,0.6,1.3,1.5,1.8,2.2c0.3-0.9,0.5-1.7,0.8-2.6C62.4,107.7,61.6,107.9,60.7,108.1z"/>
		</g>
		<path class="st1" d="M100.4,104.2c2.1,0.1,4.1,0.6,6.2,1.2c0.2,0.3,0.3,0.6,0.5,0.9c-1.9-0.3-3.8-0.4-5.6-0.4
			C101.1,105.3,100.8,104.8,100.4,104.2z"/>
		<g>
			<path class="st1" d="M75.5,107.2c3.2-0.3,6.3-0.7,9.4-1c0.4,0.3,0.9,0.6,1.2,0.9c-1,0.1-2.1,0.3-3.2,0.3c-0.3,0-0.4,0-0.7,0.2
				c1.1,0.1,2.1,0.5,2.8,1.5c0.4,0.6,0.6,1.5,0.2,2.2c-0.5,0.7-1.5,0.8-2.1,0.2c-0.3-0.4-0.1-1,0.3-1.3c0.3-0.2,0.7-0.1,1-0.1
				c-0.4-0.7-1.2-1.1-2.1-1c0.2,1.9,0.4,3.7,0.6,5.6c-0.3-0.2-0.6-0.3-0.8-0.5c-0.7-1.5-2.3-2.3-3.9-2.3c-0.4-0.4-0.9-0.8-1.4-1.2
				c1.2-1,2.6-1.9,3.9-2.5c0.3,0,0.3-0.3,0-0.3c-1.5,0.1-2.9,0.3-4.4,0.4C76.3,107.8,75.9,107.5,75.5,107.2z M79.4,110.4
				c0.9,0.3,1.6,0.7,2.3,1.4c-0.1-0.9-0.2-1.7-0.3-2.6C80.7,109.5,80,109.9,79.4,110.4z"/>
		</g>
		<g>
			<path class="st1" d="M73.8,107.3c0.9-0.3,2.1,0.3,2.4,1.2c0.3,1.1-0.7,2.2-1.8,2.1c-0.9,0-1.8-0.7-1.9-1.6
				C72.5,108.3,73.1,107.6,73.8,107.3z M74.6,108.3c-0.3,0.2-0.8,0.4-0.9,0.9c-0.1,0.2,0,0.5,0.3,0.4s0.6-0.3,0.9-0.4
				c0.3-0.2,0.3-0.6,0.2-0.9C75,108.2,74.8,108.3,74.6,108.3z"/>
		</g>
		<path class="st1" d="M73.1,110.3c1,0.9,2.1,1.7,3,2.7c0.5,0.5,1,1,1.5,1.6c0.1,0.3,0,0.7,0,1c-0.7-0.5-1.3-1.1-2-1.6
			c-0.9-0.6-1.7-1.2-2.6-1.8C73,111.6,73,111,73.1,110.3z"/>
		<path class="st1" d="M79.9,121.3c0.5,0,1,0,1.5,0c0.9,1.1,1.9,2.2,2.8,3.3c0-1.1,0-2.2,0-3.3c0.4,0,0.9,0,1.4,0c0,1.6,0,3.2,0,4.8
			c-0.5,0-1,0-1.5,0c-1-1.1-2-2.3-2.9-3.4c0,1.1,0,2.3,0,3.4c-0.4,0-0.9,0-1.4,0C79.9,124.4,79.9,122.9,79.9,121.3z"/>
		<path class="st1" d="M87.7,121.4c0.5,0.1,1,0.1,1.5,0.2c-0.1,0.7-0.2,1.3-0.3,2c0.9-0.5,2-1,2.9-1.6c0.6,0.1,1.3,0.2,1.9,0.3
			c-1,0.6-2.1,1-3.1,1.6c0.9,1.1,1.8,2.1,2.7,3.2c-0.6-0.1-1.3-0.2-1.9-0.3c-0.7-0.8-1.3-1.6-2-2.4c-0.3,0.2-0.5,0.3-0.8,0.4
			c-0.1,0.5-0.2,1-0.2,1.6c-0.5-0.1-1-0.1-1.5-0.2C87.3,124.6,87.5,123.1,87.7,121.4z"/>
		<g>
			<path class="st1" d="M74.4,121.7c0.6-0.1,1.1-0.1,1.7-0.2c1,1.5,2,3,3,4.5c-0.5,0.1-1.1,0.1-1.6,0.2c-0.2-0.3-0.3-0.6-0.6-0.9
				c-0.9,0.1-1.7,0.2-2.7,0.3c-0.2,0.3-0.3,0.7-0.4,1c-0.5,0.1-1,0.1-1.6,0.2C73.1,125.1,73.7,123.4,74.4,121.7z M75.3,122.8
				c-0.3,0.6-0.4,1.3-0.7,1.9c0.6-0.1,1.2-0.1,1.8-0.2c-0.3-0.5-0.6-0.9-0.9-1.5C75.5,123,75.5,122.8,75.3,122.8z"/>
		</g>
		<g>
			<path class="st1" d="M65.3,123.2c1.4-0.3,2.7-0.6,4-0.8c0.7-0.1,1.6,0.1,1.8,0.9c0.2,0.5-0.3,0.9-0.7,1.2c0.4,0,1,0.2,1.2,0.6
				c0.3,0.4,0.1,1-0.3,1.4c-0.4,0.5-1.2,0.7-1.8,0.8c-1.1,0.3-2.2,0.4-3.3,0.7C65.9,126.4,65.5,124.9,65.3,123.2z M66.8,123.8
				c0.1,0.3,0.2,0.7,0.2,1c0.8-0.2,1.6-0.3,2.4-0.6c0.4-0.2,0.3-0.9-0.2-0.9C68.4,123.4,67.7,123.7,66.8,123.8z M67.2,125.6
				c0.1,0.4,0.2,0.9,0.3,1.3c0.7-0.2,1.5-0.3,2.1-0.4c0.3-0.1,0.8-0.4,0.7-0.9c-0.1-0.3-0.5-0.4-0.9-0.3
				C68.6,125.3,67.9,125.5,67.2,125.6z"/>
		</g>
	</g>
	<g>
		<path class="st2" d="M73.9,56.1c0.7-0.1,1.1,0.5,1.6,0.9c0.8,0.4,1.6,0.9,2.4,1.2c-0.9,0.3-2,0.5-2.9,0.1
			C74.3,58,73.7,57.1,73.9,56.1z"/>
		<g>
			<path class="st2" d="M78.3,61.5c0.1-0.3,0.3-0.6,0.6-0.7c0.6,1.2-0.1,2.7,0.6,3.8c0.6,1.1,1.3,2.1,2,3.3c0.3,0.1,0.6,0.2,0.9,0.3
				c0,0.4-0.1,0.9-0.2,1.3c-0.3,0-0.8,0-1,0.3c-0.3,0.3-0.3,0.8-0.3,1.2c0.2,1.4,0.9,2.7,0.9,4.1c0,0.8-0.2,1.6-0.8,2.2
				c-0.1-0.1-0.3-0.2-0.3-0.3c-0.3-0.9-0.2-1.7-0.2-2.6c0-0.7,0.2-1.5-0.1-2.1C80.3,72.1,80.1,72,80,72c-0.3,1.5-0.1,3.1-0.1,4.6
				c-0.3,0.8-0.9,1.5-1.6,1.9c-0.5,0.3-0.8-0.3-1-0.8c-0.4,0.2-1,0.3-1.5,0.1c-0.4-0.3-0.5-0.9-0.9-1.2c-0.2-0.1-0.3-0.2-0.5-0.1
				c-0.3,0.2-0.3,0.8-0.7,1c-0.3,0.2-0.5,0.3-0.8,0.3c0-1.4-0.1-2.8,0-4.2c0-0.3,0-0.8-0.3-0.9c-0.3-0.2-0.3,0.2-0.3,0.3
				c-0.3,0.9-0.2,1.7-0.2,2.6c0,0.3-0.3,0.7-0.5,0.9c-0.5,0.3-1.1,0.3-1.6,0.2c-0.2-0.3-0.3-0.6-0.7-0.7C69,76,69,76.3,69,76.5
				c-1.1,0-2.3-0.3-3.4,0.1c-0.9,0.3-1.5,1-1.5,1.9c0,0.5,0.5,0.9,1,0.9c1.5,0.3,3.2,0,4.6-0.4c0.3-0.1,0.6,0,0.5,0.3
				c-0.2,0.5-0.7,0.8-1.2,1c-0.9,0.3-1.9,0.5-2.9,0.5c-0.8,0.1-1.5-0.2-2.1-0.5c-0.6-0.3-0.9-0.9-0.9-1.5c0-1,0.6-2,1.3-2.7
				c-0.1-0.7-0.8-1.1-1.3-1.5c0.3-0.5,0.9-1,1.5-1c0.9-0.1,1.9,0.3,2.6,0.9c0.3,0.5,0.8,1,1.4,1.1c0.1-0.4,0.4-0.9,0.9-0.7
				c0.3,0,0.5,0.3,0.7,0.7c0.3,0.2,0.7,0,0.9-0.1c0.1-0.2,0.1-0.4,0.1-0.6c0.1-1.1,0.2-2.3,0.1-3.4c0-0.4-0.4-0.5-0.6-0.9
				c-0.4-0.6-0.4-1.4-0.4-2.1c0-0.4,0.1-0.9,0.4-1.2c0.3-0.2,0.6-0.2,0.9-0.1c0,0.9,0,1.7,0,2.7c0,0.3,0.3,0.5,0.5,0.8
				s0.2,0.6,0.3,0.8c0.1,0.2,0.3,0.1,0.4,0.1c0.1-0.2,0-0.4,0.1-0.6c0-1.4,0-2.8,0-4.2c-0.3-0.2-0.4-0.4-0.5-0.8
				c-0.2-0.9-0.1-1.7-0.1-2.6c0-0.9,0.3-1.7,1.2-2.1c0,1.3-0.1,2.7,0.1,3.9c0,0.5,0.6,0.8,0.7,1.3c0.1,0.3-0.3,0.6-0.5,0.8
				c0,2.4,0,4.7,0,7.1c-0.1,0.4,0.4,0.8,0.8,0.5c0.7-0.3,0.3-1.4,1-1.8c0.2-0.1,0.3-0.1,0.5,0c0,1-0.1,2.1,0.3,3
				c0.1,0.3,0.4,0.4,0.7,0.3c-0.1-3.9-0.1-7.6-0.2-11.5c0-0.6,0-1.2,0.1-1.8c0-0.2,0.2-0.4,0.3-0.3c0.3,0.3,0.9,0.3,1.1,0.8
				C78.3,62.7,78.1,62.1,78.3,61.5z M78,64.5c0.1,3.7,0.2,7.3,0.1,11c0,0.3,0,0.6,0.3,0.8c0.3,0,0.4-0.3,0.5-0.6
				c0.3-1,0.3-2.1,0.3-3.3c0.1-0.9-0.3-1.8-0.1-2.7c0.1-0.4,0.6-0.3,0.9-0.5c0.5-0.4,0.3-1.2-0.1-1.7c-0.2-0.3-0.8,0-0.9-0.4
				c-0.3-0.5-0.1-1.1-0.3-1.7C78.7,64.9,78.4,64.6,78,64.5z M65.9,75.4c0.1-0.3,0.2-1-0.3-1C65.1,74.6,65.3,75.6,65.9,75.4z"/>
		</g>
		<path class="st2" d="M82.7,67.3c0.3,0.4,0.3,0.9,0.4,1.4c0.4,2.6,0.6,5.1,0.8,7.7c0.8,0.1,1.6,0.2,2.4,0c0.3-0.1,0.2-0.3,0.1-0.5
			c-0.3-0.6-0.9-1-1.5-1.4c1,0,2,0.2,2.8,0.7c0.5,0.3,0.9,0.8,1,1.3c-1.4,0.9-3.1,0.9-4.6,0.7c0.1,1.1-0.1,2.4-1,3.1
			S81,81,79.9,80.9c-0.7-0.1-1.5-0.1-2-0.6c-0.3-0.3-0.3-0.9-0.3-1.3c0.9,0.6,1.9,0.9,2.9,0.9c0.7-0.1,1.5-0.1,2-0.6
			s0.5-1.4,0.4-2.1c-0.3-2.3-0.6-4.6-0.7-7c0-0.5-0.1-1.1,0.3-1.5c0.2-0.3,0-0.5-0.1-0.7C82.5,67.8,82.6,67.5,82.7,67.3z"/>
		<path class="st2" d="M88,70.6c0.5-0.6,1-1.1,1.5-1.7c0.9,2.1,1.1,4.6,0.2,6.8c-0.2-0.5-0.1-1.1-0.2-1.7
			C89.4,72.8,89.1,71.4,88,70.6z"/>
		<g>
			<path class="st2" d="M90.7,76.2c-0.2-0.9,1-1.8,1.8-1.3c0.7,0.4,0.9,1.3,0.9,2.1c-0.1,1.2-0.9,2.3-1.9,3c-1.5,1-3.3,1.3-5.1,1.2
				c-0.3,0-0.6,0-0.8-0.3c-0.2-0.2-0.1-0.4,0.1-0.5c0.6-0.3,1.4-0.3,2.1-0.3c1-0.2,2.1-0.4,2.9-0.9c0.4-0.3,0.9-0.6,1.1-1
				C91.4,77.5,90.9,76.9,90.7,76.2z M91.2,75.9c0.2,0.4,0.7,0.4,1,0.5c-0.1-0.3,0-0.9-0.3-1.1C91.6,75.3,91.3,75.7,91.2,75.9z"/>
		</g>
		<path class="st2" d="M66.9,77.3c0.3-0.3,0.7-0.1,0.8,0.3c0.2,0.3-0.3,0.8-0.6,0.7C66.7,78.1,66.6,77.5,66.9,77.3z"/>
		<path class="st2" d="M64.9,77.6c0.3-0.3,0.7-0.1,0.8,0.3c0.2,0.4-0.3,0.9-0.7,0.6C64.8,78.3,64.7,77.9,64.9,77.6z"/>
		<path class="st2" d="M73.7,79.9c0.5-0.5,1-1,1.6-1.5c0.5,0.5,0.6,1.4,0.6,2.1c0,1.4,0,2.7,0,4.1c-0.3,0-0.5,0-0.6-0.3
			c-0.3-0.5-0.3-1-0.3-1.5c-0.6,0-1.3,0-1.7-0.4s-0.3-1.1-0.2-1.6C73.3,80.5,73.6,80.2,73.7,79.9z"/>
		<path class="st2" d="M63.3,81.8c0-0.3,0.3-0.1,0.4,0c0.4,0.3,0.6,0.9,0.8,1.4c0.2,0.8,0.3,1.6,0.3,2.4c-0.6,0.1-1-0.4-1.2-0.9
			C63.3,83.8,63.2,82.8,63.3,81.8z"/>
		<path class="st2" d="M90.3,81.7c0.4-0.3,0.9-0.2,1.3,0.2c0.5,0.6,0.7,1.4,0.7,2.1c-0.2,1.5-1,2.8-2.2,3.7
			c-1.2,0.9-2.8,1.2-4.4,0.9c-0.1-0.4,0.2-0.9,0.5-1.1c0.7-0.4,1.5-0.3,2.2-0.5c0.9-0.3,1.7-0.7,2.3-1.4c0.3-0.3,0.3-0.7,0.2-1
			c-0.5,0-1.1,0-1.5-0.3c-0.3-0.3-0.3-0.8-0.2-1.1C89.4,82.6,89.7,82.1,90.3,81.7z"/>
		<path class="st2" d="M78.6,82.2c0.2-0.2,0.4-0.1,0.7,0c0.7,0.3,1.3,0.5,1.8,0.9c0.3,0.2,0.5,0.4,0.6,0.8c-0.1,0.3-0.5,0.4-0.9,0.5
			c-1,0.1-2.1,0.1-2.9,0.8c-0.5,0.4-0.7,1.2-0.6,1.9c0,2.2-0.1,4.5-0.1,6.8c-0.3,0-0.5,0-0.6-0.3c-0.3-0.7-0.4-1.5-0.4-2.2
			c-0.1-1.5-0.1-2.9,0.1-4.4c0.1-0.6,0.1-1.2,0.3-1.7c0.2-0.3,0.6-0.5,0.9-0.8c0.4-0.3,0.8-0.8,1-1.2C78.7,83,78.4,82.6,78.6,82.2z"
			/>
		<path class="st2" d="M70,82.2c0.5,0.3,1,0.6,1.1,1.1c0.1,0.4-0.3,0.8-0.6,0.9c-0.7,0.4-1.5,0.8-1.8,1.5c-0.9,1.6-2.7,2.7-4.4,2.8
			c-0.2-0.2-0.4-0.3-0.5-0.6c0-0.3,0.3-0.5,0.6-0.6c0.9-0.4,2-0.7,2.7-1.3c0.3-0.2,0.5-0.5,0.3-0.8c-0.4-0.4-1.1-0.7-1.3-1.3
			c-0.2-0.6,0.3-1.2,0.7-1.6c0.9,0.2,1.5,0.8,1.9,1.5C69.4,83.7,70.1,83.1,70,82.2z"/>
		<path class="st2" d="M83.1,83.2c0.6-0.3,1.3-0.2,2-0.1c0.9,0.2,2,0.3,2.9,0.8c0.3,0.2,0.6,0.4,0.4,0.7c-0.3,0.3-0.5,0.4-0.9,0.6
			c-1.2,0.6-2.4,1.3-3.6,1.9c-0.3,0.2-0.8,0.3-1.2,0.3c-0.5-0.3-0.4-0.9-0.1-1.3c0.6-0.6,1.4-1,2-1.6C84.1,84.2,83.3,83.9,83.1,83.2
			z"/>
		<path class="st2" d="M73.7,85.1c0.3,0,0.8-0.2,1.1,0.2c0.3,0.3-0.1,0.7-0.2,0.9c-1.1,1.8-2.5,3.6-4.3,4.8
			c-1.1,0.8-2.6,1.2-3.9,0.9c0-0.3-0.1-0.8,0.3-0.9c0.4-0.3,1-0.3,1.5-0.5c1-0.3,2.1-0.9,3-1.5c0.3-0.3,0.8-0.7,0.9-1.1
			c0-0.3-0.3-0.3-0.5-0.5c0-0.3,0-0.8,0-1.1C72.4,86.1,73.3,85.8,73.7,85.1z"/>
		<path class="st2" d="M79,88.6c0.5,0.4,0.9,1.1,1.7,1.2c0.5,0.1,0.9-0.3,1.1-0.7c0.1,0.7,0.1,1.5-0.4,2.1c-0.3,0.4-1,0.3-1.5,0.1
			c-0.5-0.3-1-0.5-1.3-0.9C78.4,89.6,78.8,89.1,79,88.6z"/>
	</g>
	<g>
		<path class="st3" d="M137.4,72.2c1.8,0.5,3.7,1.1,5.5,1.6c-0.1,0.4-0.3,0.9-0.3,1.3c-0.9-0.3-1.6-0.5-2.5-0.7
			c-0.3,0.8-0.5,1.5-0.7,2.4c0.9,0.3,1.6,0.5,2.5,0.8c-0.2,0.4-0.3,0.9-0.3,1.3c-1.8-0.5-3.7-1.1-5.5-1.6c0.1-0.4,0.3-0.9,0.3-1.3
			c0.7,0.2,1.4,0.4,2.1,0.6c0.3-0.8,0.5-1.5,0.7-2.4c-0.7-0.2-1.4-0.4-2.1-0.6C137.2,73,137.2,72.6,137.4,72.2z"/>
		<path class="st3" d="M136,78.4c0.3-0.2,0.8-0.1,1.2,0c-0.2,0.4-0.3,0.8-0.4,1.2c-0.9-0.2-1.4,0.9-1.5,1.6
			c-0.1,0.4,0.5,0.9,0.9,0.5c0.7-0.8,1.1-1.8,1.9-2.5c0.8-0.6,2.1-0.1,2.3,0.9c0.3,0.8,0,1.7-0.3,2.4c-0.3,0.6-0.8,1.3-1.5,1.5
			c-0.3,0.2-0.8,0.1-1.1,0c0.2-0.4,0.3-0.8,0.4-1.2c0.3,0.1,0.8,0,0.9-0.3c0.3-0.4,0.6-1,0.6-1.6c0-0.4-0.5-0.8-0.9-0.4
			c-0.4,0.3-0.7,0.9-0.9,1.3c-0.3,0.5-0.7,1.1-1.3,1.4c-0.8,0.3-1.7-0.3-2-1.1c-0.2-0.7,0-1.4,0.3-2C134.9,79.3,135.4,78.7,136,78.4
			z"/>
		<path class="st3" d="M133.6,82.8c0.3,0.2,0.6,0.3,0.9,0.4c-0.5,1-0.9,2.1-1.5,3c0.3,0.2,0.7,0.3,1.1,0.5c0.4-0.9,0.9-1.9,1.4-2.8
			c0.3,0.2,0.6,0.3,0.9,0.4c-0.4,0.9-0.9,1.9-1.4,2.8c0.4,0.2,0.9,0.4,1.4,0.6c0.5-1,1-2.1,1.5-3.2c0.3,0.2,0.6,0.3,0.9,0.4
			c-0.7,1.5-1.4,2.9-2.1,4.4c-1.7-0.9-3.4-1.6-5.1-2.5C132.4,85.7,133,84.3,133.6,82.8z"/>
		<path class="st3" d="M17.8,91.1c1.6-0.9,3.3-1.9,5-2.7c0.2,0.3,0.4,0.8,0.6,1.1c-1.6,0.9-3.3,1.9-5,2.7
			C18.2,91.8,18,91.5,17.8,91.1z"/>
		<g>
			<path class="st3" d="M130.2,89.8c0.3-0.6,0.9-1.1,1.5-1.2c0.9-0.2,1.8,0.3,2.6,0.8c0.7,0.5,1.2,1.3,1.1,2.1
				c0,0.7-0.3,1.3-0.7,1.8c-0.3,0.6-0.7,1.2-1,1.8c-1.6-0.9-3.3-1.9-5-2.8C129.2,91.4,129.7,90.6,130.2,89.8z M131.2,90
				c-0.4,0.4-0.7,1-1,1.6c1.1,0.6,2.1,1.3,3.3,1.9c0.3-0.5,0.7-1,0.9-1.6c0.1-0.8-0.6-1.4-1.2-1.7C132.5,89.9,131.8,89.6,131.2,90z"
				/>
		</g>
		<path class="st3" d="M21.7,92.1c0-0.9,0.9-1.5,1.6-1.5s1.3,0.5,1.6,1c0.5,0.7,0.9,1.5,0.7,2.2c-0.1,0.5-0.3,0.9-0.8,1.2
			c-0.3-0.3-0.4-0.7-0.7-1.1c0.7-0.6,0.2-1.6-0.4-2.1c-0.3-0.3-0.9-0.1-0.9,0.3c0.2,1,0.9,2,0.9,3.1s-1.4,1.7-2.3,1.2
			s-1.6-1.5-1.9-2.7c-0.2-0.8,0.2-1.5,0.8-1.9c0.3,0.3,0.4,0.7,0.7,1c-0.3,0.3-0.4,0.6-0.3,1c0.2,0.5,0.5,1,0.9,1.4
			c0.3,0.3,0.9,0,0.9-0.5C22.4,94.1,21.7,93.1,21.7,92.1z"/>
		<g>
			<path class="st3" d="M126.4,95.7c0.3-0.4,0.6-0.9,0.9-1.2c2,0.5,3.9,0.9,6,1.5c-0.3,0.4-0.5,0.8-0.9,1.2
				c-0.4-0.1-0.8-0.3-1.2-0.3c-0.4,0.6-0.9,1.3-1.4,1.9c0.3,0.3,0.5,0.7,0.7,1c-0.3,0.3-0.5,0.8-0.8,1.1
				C128.6,99.1,127.5,97.4,126.4,95.7z M127.8,95.9c0.4,0.7,0.9,1.3,1.4,2c0.3-0.4,0.6-0.9,0.9-1.4C129.4,96.3,128.6,96,127.8,95.9z
				"/>
		</g>
		<path class="st3" d="M22.2,98.3c1.5-1.1,3.1-2.2,4.6-3.3c0.3,0.3,0.5,0.7,0.8,1c-1.3,0.9-2.5,1.9-3.8,2.7c0.6,0.9,1.3,1.7,1.9,2.6
			c-0.3,0.2-0.6,0.4-0.9,0.6C23.9,100.6,23.1,99.4,22.2,98.3z"/>
		<path class="st3" d="M122.3,101c0.3-0.3,0.6-0.7,0.9-1c1.2,1,2.4,2,3.6,3c0.7-0.8,1.4-1.6,2.1-2.4c0.3,0.3,0.5,0.4,0.8,0.7
			c-0.9,1.2-1.9,2.3-2.8,3.4C125.2,103.5,123.7,102.2,122.3,101z"/>
		<g>
			<path class="st3" d="M25.1,102.2c1.9-0.7,3.9-1.4,5.7-2.1c0.3,0.3,0.7,0.8,1,1.1c-0.9,1.8-1.9,3.6-2.8,5.5
				c-0.3-0.3-0.6-0.8-0.9-1.1c0.3-0.3,0.4-0.7,0.6-1c-0.5-0.6-1-1.2-1.5-1.8c-0.4,0.1-0.8,0.3-1.2,0.4
				C25.7,102.9,25.4,102.5,25.1,102.2z M28.1,102.4c0.3,0.4,0.7,0.9,1,1.2c0.3-0.7,0.8-1.4,1.2-2.1
				C29.7,101.8,28.9,102.1,28.1,102.4z"/>
		</g>
		<path class="st3" d="M119.3,104.1c0.5-0.7,1.2-1.3,2.1-1.5c0.6-0.2,1.2,0,1.6,0.3c-0.3,0.3-0.6,0.6-0.9,0.9
			c-0.9-0.4-1.9,0.3-2.1,1.1c-0.3,0.7,0.1,1.4,0.6,1.8c0.4,0.5,1.1,0.9,1.8,0.8c0.8-0.2,1.5-0.9,1.5-1.7c0-0.3-0.2-0.6-0.3-0.9
			c-0.3,0.3-0.7,0.7-1,1c-0.3-0.3-0.4-0.4-0.7-0.7c0.6-0.6,1.2-1.3,1.9-1.9c0.8,0.7,1.5,1.5,2.2,2.1c-0.2,0.2-0.4,0.4-0.6,0.6
			c-0.2-0.1-0.4-0.3-0.6-0.3c0.2,1.9-2,3.4-3.7,2.8c-1-0.3-1.8-1.2-2.1-2.2C118.5,105.6,118.8,104.8,119.3,104.1z"/>
		<path class="st3" d="M29.8,107.6c1.3-1.4,2.7-2.7,3.9-4.2c0.5,0.4,0.9,0.9,1.4,1.3c-0.7,1.4-1.5,2.7-2.2,4.1
			c1.3-0.8,2.6-1.7,3.9-2.5c0.4,0.4,0.9,0.9,1.4,1.3c-1.3,1.4-2.7,2.7-3.9,4.2c-0.3-0.3-0.6-0.6-0.9-0.9c1.1-1.2,2.2-2.3,3.3-3.5
			c-1.4,0.9-2.7,1.7-4.1,2.7c-0.3-0.3-0.7-0.6-0.9-0.9c0.8-1.5,1.6-2.8,2.4-4.3c-1.1,1.1-2.2,2.3-3.3,3.4
			C30.4,108.2,30.1,107.8,29.8,107.6z"/>
		<path class="st3" d="M116.3,107c0.3-0.3,0.6-0.5,0.9-0.8c1.2,1.5,2.5,2.9,3.7,4.4c-0.3,0.3-0.7,0.6-1,0.9
			c-1.5-0.5-3.1-0.9-4.6-1.5c0.9,1,1.8,2.1,2.7,3.1c-0.3,0.3-0.6,0.5-0.9,0.8c-1.3-1.5-2.5-2.9-3.7-4.4c0.3-0.3,0.7-0.6,1.1-0.9
			c1.5,0.5,3,0.9,4.4,1.4C118,109,117.1,108,116.3,107z"/>
		<path class="st3" d="M35.2,112.5c1.2-1.5,2.4-2.9,3.6-4.4c0.3,0.3,0.7,0.5,1,0.9c-1.2,1.5-2.4,2.9-3.6,4.4
			C35.9,113.1,35.6,112.8,35.2,112.5z"/>
		<g>
			<path class="st3" d="M110,111.9c0.4-0.3,0.9-0.6,1.3-0.9c1.7,1.1,3.4,2.2,5,3.4c-0.3,0.3-0.8,0.5-1.1,0.9c-0.3-0.3-0.7-0.5-1-0.8
				c-0.6,0.4-1.3,0.9-1.9,1.4c0.1,0.4,0.2,0.9,0.3,1.2c-0.3,0.3-0.8,0.5-1.1,0.8C111,115.9,110.5,113.9,110,111.9z M111.4,112.5
				c0.2,0.8,0.4,1.5,0.6,2.3c0.4-0.3,0.9-0.6,1.3-0.9C112.7,113.4,112,113,111.4,112.5z"/>
		</g>
		<g>
			<path class="st3" d="M106.5,114.1c0.5-0.3,1.3-0.5,1.8-0.2c0.6,0.3,0.9,1.3,0.4,1.9c0.9-0.3,1.8,0.7,1.7,1.6c0,0.7-0.5,1.2-1,1.5
				c-0.9,0.6-1.9,1.1-2.8,1.6c-0.9-1.6-1.9-3.3-2.8-5C104.6,115.2,105.6,114.6,106.5,114.1z M105.4,116c0.1,0.3,0.4,0.7,0.6,1.1
				c0.6-0.3,1.3-0.6,1.8-1.1c0.4-0.3,0-1.1-0.5-0.9C106.5,115.2,106,115.6,105.4,116z M107.8,117.1c-0.4,0.3-0.9,0.5-1.4,0.8
				c0.3,0.4,0.5,0.9,0.8,1.3c0.6-0.3,1.2-0.6,1.8-1.1c0.4-0.3,0.3-1-0.2-1.2C108.5,116.7,108.1,116.9,107.8,117.1z"/>
		</g>
		<g>
			<path class="st3" d="M74.9,118.7c1.8-0.1,3.7,0,5.5-0.2c1.9-0.2,3.9,0,5.7,0.1c6.3,0.3,12.6,1.5,18.6,3.4c3.1,1,6.1,2.2,8.9,3.9
				c-1.8,2.1-3.7,4.1-5.5,6.2c-5.3-1.7-10.8-3.1-16.3-3.9c-6.8-0.9-13.7-1-20.5,0c-5.9,0.9-11.7,2.4-17,5.1c-2.1-2.4-4-4.8-6.1-7.2
				c2.9-1.7,6-3,9.2-4C63,120.2,68.9,119.1,74.9,118.7z M79.9,121.3c0,1.6,0,3.2,0,4.8c0.4,0,0.9,0,1.4,0c0-1.1,0-2.3,0-3.4
				c1,1.1,2,2.3,2.9,3.4c0.5,0,1,0,1.5,0c0-1.6,0-3.2,0-4.8c-0.4,0-0.9,0-1.4,0c0,1.1,0,2.2,0,3.3c-0.9-1.1-1.9-2.2-2.8-3.3
				C80.9,121.3,80.4,121.3,79.9,121.3z M87.7,121.4c-0.2,1.6-0.4,3.2-0.6,4.8c0.5,0.1,1,0.1,1.5,0.2c0.1-0.5,0.2-1,0.2-1.6
				c0.3-0.2,0.5-0.3,0.8-0.4c0.7,0.8,1.3,1.5,2,2.4c0.6,0.1,1.3,0.2,1.9,0.3c-0.9-1-1.8-2.1-2.7-3.2c1-0.5,2.1-1,3.1-1.6
				c-0.6-0.1-1.3-0.2-1.9-0.3c-0.9,0.5-2,1-2.9,1.6c0.1-0.7,0.2-1.3,0.3-2C88.7,121.6,88.2,121.5,87.7,121.4z M74.4,121.7
				c-0.7,1.7-1.4,3.3-2.1,5c0.5,0,1-0.1,1.6-0.2c0.1-0.3,0.3-0.7,0.4-1c0.9-0.1,1.7-0.2,2.7-0.3c0.2,0.3,0.3,0.6,0.6,0.9
				c0.5-0.1,1.1-0.1,1.6-0.2c-1-1.5-2-3-3-4.5C75.5,121.6,74.9,121.7,74.4,121.7z M65.3,123.2c0.3,1.5,0.6,3.2,0.9,4.7
				c1.1-0.2,2.2-0.4,3.3-0.7c0.6-0.2,1.4-0.3,1.8-0.8c0.3-0.3,0.6-0.9,0.3-1.4s-0.8-0.6-1.2-0.6c0.4-0.3,0.8-0.7,0.7-1.2
				c-0.2-0.8-1.1-0.9-1.8-0.9C67.9,122.7,66.6,123.1,65.3,123.2z"/>
		</g>
		<path class="st3" d="M75.3,122.8c0.2,0,0.2,0.2,0.3,0.3c0.3,0.5,0.6,0.9,0.9,1.5c-0.6,0.1-1.2,0.1-1.8,0.2
			C74.9,124.1,75.1,123.4,75.3,122.8z"/>
		<path class="st3" d="M66.8,123.8c0.8-0.2,1.6-0.4,2.4-0.4c0.5,0,0.6,0.7,0.2,0.9c-0.8,0.3-1.6,0.4-2.4,0.6
			C67,124.4,66.9,124.2,66.8,123.8z"/>
		<path class="st3" d="M67.2,125.6c0.7-0.2,1.5-0.3,2.1-0.4c0.3,0,0.8,0,0.9,0.3c0.1,0.4-0.3,0.8-0.7,0.9c-0.7,0.2-1.5,0.3-2.1,0.4
			C67.3,126.5,67.2,126.1,67.2,125.6z"/>
	</g>
</g>
</svg>
