<?xml version="1.0" encoding="utf-8"?>
<!-- Generator: Adobe Illustrator 24.2.1, SVG Export Plug-In . SVG Version: 6.00 Build 0)  -->
<svg version="1.1" id="Layer_1" xmlns="http://www.w3.org/2000/svg" xmlns:xlink="http://www.w3.org/1999/xlink" x="0px" y="0px"
	 viewBox="0 0 51.5 31.1" style="enable-background:new 0 0 51.5 31.1;" xml:space="preserve">
<style type="text/css">
	.st0{fill-rule:evenodd;clip-rule:evenodd;fill:#FF5F00;}
	.st1{fill-rule:evenodd;clip-rule:evenodd;fill:#EB001B;}
	.st2{fill-rule:evenodd;clip-rule:evenodd;fill:#F79E1B;}
</style>
<desc>Created with Sketch.</desc>
<g id="Components---Sprint-3">
	<g id="assets-_x2F_-logo-_x2F_-mastercard-_x2F_-symbol">
		<polygon id="Fill-1" class="st0" points="18.9,27.6 32.7,27.6 32.7,3.5 18.9,3.5 		"/>
		<path id="Fill-2" class="st1" d="M19.7,15.5c0-4.9,2.4-9.2,6-12c-2.7-2-6.1-3.3-9.8-3.3C7.3,0.2,0.2,7.1,0.2,15.5
			S7.3,30.8,16,30.8c3.7,0,7.1-1.2,9.8-3.3C22.1,24.8,19.7,20.4,19.7,15.5"/>
		<path id="Fill-4" class="st2" d="M50.8,25v-0.6h-0.2l-0.2,0.4l-0.2-0.4h-0.2V25h0.1v-0.4l0.2,0.4h0.1l0.2-0.4V25H50.8z M49.8,25
			v-0.5H50v-0.1h-0.5v0.1h0.2V25H49.8z M51.3,15.5c0,8.4-7.1,15.3-15.8,15.3c-3.7,0-7.1-1.2-9.8-3.3c3.7-2.8,6-7.1,6-12
			c0-4.9-2.4-9.2-6-12c2.7-2,6.1-3.3,9.8-3.3C44.3,0.2,51.3,7.1,51.3,15.5L51.3,15.5z"/>
	</g>
</g>
</svg>
