<?xml version="1.0" encoding="utf-8"?>
<!-- Generator: Adobe Illustrator 24.2.1, SVG Export Plug-In . SVG Version: 6.00 Build 0)  -->
<svg version="1.1" id="Layer_1" xmlns="http://www.w3.org/2000/svg" xmlns:xlink="http://www.w3.org/1999/xlink" x="0px" y="0px"
	 viewBox="0 0 58.3 69.2" style="enable-background:new 0 0 58.3 69.2;" xml:space="preserve">
<style type="text/css">
	.st0{fill-rule:evenodd;clip-rule:evenodd;fill:#27346A;}
	.st1{fill-rule:evenodd;clip-rule:evenodd;fill:#2790C3;}
	.st2{fill-rule:evenodd;clip-rule:evenodd;fill:#1F264F;}
</style>
<g id="Group-10">
	<g>
		<path id="Fill-8" class="st0" d="M29.6,65.9l2-13.2l0.1-0.7c0.1-0.6,0.4-1.2,0.9-1.6s1.1-0.6,1.7-0.6H36c2.5,0,5-0.3,7.5-0.9
			c2.2-0.6,4.4-1.5,6.3-2.9c1.9-1.4,3.5-3.1,4.7-5.2c1.4-2.5,2.4-5.1,2.9-7.9c0.5-2.3,0.6-4.7,0.3-7.1c-0.3-2-1.1-3.9-2.5-5.5
			c-0.9-0.9-1.9-1.7-3-2.3l0,0l0,0c0.4-2.3,0.4-4.6,0-6.8c-0.5-2-1.5-3.8-2.8-5.4c-3-3.4-8.3-5.1-16-5.1h-21c-0.7,0-1.4,0.3-1.9,0.7
			c-0.5,0.5-0.9,1.1-1,1.8L0.7,59c-0.1,0.5,0.1,1,0.4,1.4C1.4,60.8,1.9,61,2.4,61h13.1v0.1l-0.9,5.7c-0.1,0.4,0.1,0.9,0.4,1.2
			c0.3,0.3,0.7,0.5,1.2,0.5h10.9c0.6,0,1.2-0.2,1.7-0.6s0.8-1,0.9-1.6L29.6,65.9"/>
	</g>
	<g>
		<path id="Fill-9" class="st0" d="M22.1,18c0.1-0.9,0.7-1.6,1.5-2c0.4-0.2,0.7-0.3,1.1-0.3h16.5c1.8,0,3.6,0.1,5.4,0.4
			c0.5,0.1,0.9,0.2,1.4,0.3c0.4,0.1,0.9,0.2,1.3,0.3l0.6,0.2c0.8,0.3,1.6,0.6,2.3,1c0.8-5.3,0-8.9-2.9-12.1c-3.1-3.6-8.8-5.1-16-5.1
			h-21c-1.5,0-2.7,1.1-3,2.6L0.5,59.1C0.3,60.1,1,61,2,61.2c0.1,0,0.2,0,0.3,0h13L22.1,18"/>
	</g>
</g>
<path id="Fill-11" class="st1" d="M52.2,18L52.2,18c-0.1,0.4-0.1,0.8-0.2,1.2c-2.8,14.3-12.3,19.2-24.4,19.2h-6.1
	c-1.5,0-2.8,1.1-3,2.6l-4,25.9c-0.1,0.9,0.5,1.7,1.3,1.8c0.1,0,0.2,0,0.2,0h10.9c1.3,0,2.4-1,2.6-2.2l0.1-0.6l2-13.2l0.1-0.7
	c0.2-1.3,1.3-2.2,2.6-2.2H36c10.6,0,18.9-4.3,21.3-16.9c1-5.2,0.5-9.6-2.2-12.7C54.3,19.3,53.3,18.5,52.2,18"/>
<path id="Fill-12" class="st2" d="M49.3,16.8c-0.4-0.1-0.9-0.2-1.3-0.3c-0.5-0.1-0.9-0.2-1.4-0.3c-1.8-0.3-3.6-0.4-5.4-0.4H24.7
	c-0.4,0-0.8,0.1-1.1,0.3c-0.8,0.4-1.3,1.1-1.5,2l-3.5,22.3l-0.1,0.7c0.2-1.5,1.5-2.6,3-2.6h6.1c12.1,0,21.6-4.9,24.4-19.2
	c0.1-0.4,0.2-0.8,0.2-1.2c-0.7-0.4-1.5-0.7-2.3-1L49.3,16.8"/>
</svg>
