<svg width="112" height="99" viewBox="0 0 112 99" fill="none" xmlns="http://www.w3.org/2000/svg">
<path d="M72.985 56.3593C70.2928 59.4707 67.0148 62.0164 63.3254 63.8621V74.4692C63.3254 75.407 62.958 76.3063 62.304 76.9694C61.65 77.6324 60.763 78.005 59.8381 78.005H38.9148C37.99 78.005 37.103 77.6324 36.449 76.9694C35.795 76.3063 35.4276 75.407 35.4276 74.4692V63.8621C28.079 60.143 22.461 53.6513 19.7794 45.7802C17.0977 37.9091 17.566 29.2858 21.0839 21.7609C24.6017 14.2359 30.8887 8.40893 38.5956 5.5304C46.3026 2.65188 54.8153 2.9512 62.3071 6.36412M35.4276 95.4644H63.3254" stroke="white" stroke-opacity="0.47" stroke-width="1.71429" stroke-linecap="round" stroke-linejoin="round"/>
<path d="M65.9338 27.8189C63.4858 27.3876 63.4858 23.8236 65.9338 23.3922C70.2683 22.6273 74.28 20.571 77.4573 17.4855C80.6347 14.3999 82.8339 10.4249 83.7744 6.0672L83.9209 5.3742C84.451 2.92041 87.8963 2.90627 88.4473 5.35299L88.6287 6.15206C89.6054 10.4901 91.8245 14.4387 95.0073 17.5022C98.1901 20.5657 102.195 22.6075 106.518 23.371C108.98 23.8094 108.98 27.3876 106.518 27.826C102.196 28.5908 98.1928 30.6331 95.0114 33.6965C91.8299 36.7599 89.6119 40.7079 88.6356 45.045L88.4543 45.844C87.9033 48.2908 84.4579 48.2766 83.9279 45.8228L83.7884 45.1369C82.8469 40.7772 80.6457 36.8008 77.4656 33.7151C74.2855 30.6294 70.2708 28.5813 65.9338 27.8189Z" stroke="white" stroke-opacity="0.47" stroke-width="1.71429" stroke-linecap="round" stroke-linejoin="round"/>
<path fill-rule="evenodd" clip-rule="evenodd" d="M49.6765 65.0636C53.5168 62.8078 56.8732 59.7966 59.5484 56.2071C58.6825 54.8523 58.0695 53.3479 57.7396 51.7688L57.6138 51.1779C57.2496 49.4925 56.3985 47.9551 55.169 46.7617C53.9395 45.5683 52.3873 44.7729 50.7101 44.4768C36.9823 42.0596 36.9823 22.0906 50.7101 19.6667C52.3305 19.3815 53.8356 18.6296 55.0457 17.5008C56.2558 16.3721 57.1197 14.9142 57.5343 13.3013C54.3062 9.73631 50.3558 6.92063 45.9539 5.0471C41.552 3.17358 36.8025 2.28649 32.0307 2.44661C27.259 2.60673 22.5778 3.81027 18.3078 5.97479C14.0378 8.13931 10.2799 11.2136 7.29156 14.9872C4.30321 18.7608 2.15503 23.1444 0.994157 27.8378C-0.166712 32.5311 -0.312832 37.4234 0.565807 42.1793C1.44445 46.9353 3.32708 51.4425 6.08474 55.3924C8.84241 59.3422 12.4099 62.6413 16.5429 65.0636V72.9128C16.5429 74.6936 17.241 76.4015 18.4835 77.6607C19.726 78.9199 21.4112 79.6274 23.1683 79.6274H43.0445C44.8017 79.6274 46.4869 78.9199 47.7294 77.6607C48.9719 76.4015 49.6699 74.6936 49.6699 72.9128L49.6765 65.0636ZM16.5496 91.3778C16.5496 90.0422 17.0731 88.7613 18.005 87.8169C18.9368 86.8724 20.2007 86.3419 21.5186 86.3419H44.7075C46.0254 86.3419 47.2893 86.8724 48.2211 87.8169C49.153 88.7613 49.6765 90.0422 49.6765 91.3778C49.6765 92.7134 49.153 93.9943 48.2211 94.9387C47.2893 95.8831 46.0254 96.4137 44.7075 96.4137H21.5186C20.2007 96.4137 18.9368 95.8831 18.005 94.9387C17.0731 93.9943 16.5496 92.7134 16.5496 91.3778ZM64.7824 13.9392C65.9949 8.32582 73.8791 8.29225 75.1379 13.8922L75.1976 14.1607L75.3168 14.6845C76.028 17.7535 77.6136 20.543 79.8764 22.7062C82.1393 24.8694 84.9796 26.3108 88.0442 26.8512C93.8215 27.8718 93.8215 36.2784 88.0442 37.299C84.9622 37.8426 82.1073 39.2971 79.8382 41.4796C77.5691 43.6622 75.9869 46.4756 75.2903 49.5664L75.1379 50.2513C73.8791 55.8579 65.9883 55.8244 64.7692 50.2043L64.6433 49.6201C63.9754 46.519 62.4113 43.6896 60.1504 41.4928C57.8896 39.2961 55.0345 37.8314 51.949 37.2856C46.1783 36.2717 46.1783 27.8785 51.949 26.8579C55.0237 26.316 57.8705 24.8617 60.1291 22.6792C62.3876 20.4966 63.9564 17.6839 64.6367 14.5972L64.7361 14.1607L64.7824 13.9392Z" fill="url(#paint0_linear_2_568)"/>
<defs>
<linearGradient id="paint0_linear_2_568" x1="46.1886" y1="2.42822" x2="46.1886" y2="96.4137" gradientUnits="userSpaceOnUse">
<stop offset="0.415" stop-color="#B8E5FF"/>
<stop offset="1" stop-color="#0C82CA"/>
</linearGradient>
</defs>
</svg>
