<svg width="622" height="559" viewBox="0 0 622 559" fill="none" xmlns="http://www.w3.org/2000/svg">
<g opacity="0.2">
<path d="M40.9878 535.814H354.026C355.301 533.867 356.576 531.921 357.865 530.017C391.539 480.507 445.458 445.225 504.343 428.665C530.725 421.251 559.3 416.828 580.494 399.953C602.311 382.576 612.33 354.866 616.658 327.9C621.905 295.237 619.074 258.624 596.116 234.091C569.156 205.292 523.981 202.072 488.855 183.193C428.399 150.702 404.967 76.7165 349.965 36.1813C315.239 10.5893 268.315 0.670183 226.357 6.28098C166.79 14.2391 110.736 52.799 93.9143 109.279C89.2456 124.952 87.3782 141.956 88.8158 159.962C91.5133 193.67 99.0128 227.807 91.9283 260.914C84.1175 297.398 59.5439 328.214 44.8561 362.666C26.5668 405.563 24.0472 453.699 31.8728 499.473C33.9626 511.71 36.8823 523.991 40.9878 535.8V535.814Z" fill="#AFD4E1"/>
<path opacity="0.7" d="M40.9878 535.814H354.026C355.301 533.867 356.576 531.921 357.865 530.017C391.539 480.507 445.458 445.225 504.343 428.665C530.725 421.251 559.3 416.828 580.494 399.953C602.311 382.576 612.33 354.866 616.658 327.9C621.905 295.237 619.074 258.624 596.116 234.091C569.156 205.292 523.981 202.072 488.855 183.193C428.399 150.702 404.967 76.7165 349.965 36.1813C315.239 10.5893 268.315 0.670183 226.357 6.28098C166.79 14.2391 110.736 52.799 93.9143 109.279C89.2456 124.952 87.3782 141.956 88.8158 159.962C91.5133 193.67 99.0128 227.807 91.9283 260.914C84.1175 297.398 59.5439 328.214 44.8561 362.666C26.5668 405.563 24.0472 453.699 31.8728 499.473C33.9626 511.71 36.8823 523.991 40.9878 535.8V535.814Z" fill="#AFD4E1"/>
</g>
<path d="M1 535.812H621" stroke="url(#paint0_linear_1_335)" stroke-linecap="round" stroke-linejoin="round"/>
<path d="M352.218 80.2535V57.7817L334.788 56.3361C333.751 52.7864 332.313 49.4085 330.475 46.2453L341.725 33.3347L325.273 17.447L311.904 28.3108C308.644 26.5359 305.131 25.1475 301.455 24.1456L299.959 7.31323H276.689L275.192 24.1456C271.517 25.1475 268.019 26.5359 264.743 28.3108L251.375 17.447L234.923 33.3347L246.172 46.2453C244.349 49.3942 242.897 52.7864 241.859 56.3361L224.43 57.7817V80.2535L241.859 81.6992C242.897 85.2489 244.335 88.6268 246.172 91.79L234.923 104.701L251.375 120.588L264.743 109.725C268.004 111.485 271.517 112.888 275.192 113.89L276.689 130.722H299.959L301.455 113.89C305.131 112.888 308.629 111.499 311.904 109.725L325.273 120.588L341.725 104.701L330.475 91.79C332.298 88.6411 333.751 85.2489 334.788 81.6992L352.218 80.2535ZM288.324 95.125C273.399 95.125 261.29 83.4311 261.29 69.0176C261.29 54.6042 273.399 42.9103 288.324 42.9103C303.249 42.9103 315.358 54.6042 315.358 69.0176C315.358 83.4311 303.249 95.125 288.324 95.125Z" stroke="white" stroke-linecap="round" stroke-linejoin="round"/>
<path d="M602.295 299.901V289.124L593.936 288.422C593.432 286.719 592.75 285.102 591.876 283.584L597.271 277.387L589.386 269.772L582.968 274.982C581.397 274.138 579.722 273.465 577.959 272.993L577.232 264.92H566.072L565.346 272.993C563.582 273.479 561.907 274.138 560.336 274.982L553.919 269.772L546.034 277.387L551.429 283.584C550.554 285.102 549.858 286.719 549.368 288.422L541.009 289.124V299.901L549.368 300.603C549.872 302.306 550.554 303.923 551.429 305.441L546.034 311.638L553.919 319.253L560.336 314.043C561.907 314.887 563.582 315.56 565.346 316.032L566.072 324.105H577.232L577.959 316.032C579.722 315.546 581.397 314.887 582.968 314.043L589.386 319.253L597.271 311.638L591.876 305.441C592.75 303.923 593.447 302.306 593.936 300.603L602.295 299.901ZM571.659 307.029C564.501 307.029 558.691 301.419 558.691 294.505C558.691 287.592 564.501 281.981 571.659 281.981C578.818 281.981 584.628 287.592 584.628 294.505C584.628 301.419 578.818 307.029 571.659 307.029Z" stroke="white" stroke-linecap="round" stroke-linejoin="round"/>
<path d="M593.908 103.74C594.412 101.607 594.693 99.403 594.693 97.1272C594.693 80.8959 581.073 67.7421 564.266 67.7421C561.524 67.7421 558.856 68.0999 556.321 68.7583C551.312 60.199 541.797 54.4021 530.888 54.4021C515.385 54.4021 502.698 66.0817 501.75 80.8244C500.312 80.5667 498.845 80.4093 497.333 80.4093C485.061 80.4093 474.968 89.3551 473.634 100.849C466.431 101.006 460.636 106.674 460.636 113.673C460.636 120.672 466.579 126.512 473.93 126.512H585.519C592.856 126.512 598.814 120.773 598.814 113.673C598.814 109.666 596.902 106.087 593.923 103.726L593.908 103.74Z" stroke="white" stroke-linecap="round" stroke-linejoin="round"/>
<path d="M532.545 116.68V146.38" stroke="white" stroke-linecap="round" stroke-linejoin="round"/>
<path d="M532.545 98.8604V110.74" stroke="white" stroke-linecap="round" stroke-linejoin="round"/>
<path d="M532.545 87.7676V94.1077" stroke="white" stroke-linecap="round" stroke-linejoin="round"/>
<path d="M526.735 142.9L532.545 149.842L538.355 142.9" stroke="white" stroke-linecap="round" stroke-linejoin="round"/>
<path d="M253.909 452.068C254.413 449.935 254.695 447.731 254.695 445.455C254.695 429.224 241.074 416.07 224.267 416.07C221.525 416.07 218.857 416.428 216.323 417.086C211.313 408.527 201.798 402.73 190.89 402.73C175.387 402.73 162.7 414.41 161.751 429.152C160.314 428.895 158.846 428.737 157.334 428.737C145.063 428.737 134.969 437.683 133.635 449.176C126.432 449.334 120.637 455.002 120.637 462.001C120.637 469 126.581 474.84 133.932 474.84H245.521C252.857 474.84 258.815 469.101 258.815 462.001C258.815 457.993 256.903 454.415 253.924 452.053L253.909 452.068Z" stroke="white" stroke-linecap="round" stroke-linejoin="round"/>
<path d="M192.563 469.244V439.544" stroke="white" stroke-linecap="round" stroke-linejoin="round"/>
<path d="M192.563 487.064V475.184" stroke="white" stroke-linecap="round" stroke-linejoin="round"/>
<path d="M192.563 498.157V491.802" stroke="white" stroke-linecap="round" stroke-linejoin="round"/>
<path d="M198.357 443.022L192.562 436.081L186.752 443.022" stroke="white" stroke-linecap="round" stroke-linejoin="round"/>
<path d="M18.0303 75.2554H390.709C394.177 75.2554 396.993 77.9749 396.993 81.3242V98.2854H11.7461V81.3242C11.7461 77.9749 14.5621 75.2554 18.0303 75.2554Z" fill="#3A61B0" stroke="url(#paint1_linear_1_335)" stroke-linecap="round" stroke-linejoin="round"/>
<path d="M417.965 102.552H28.5977V367.161H417.965V102.552Z" fill="white" stroke="url(#paint2_linear_1_335)" stroke-linecap="round" stroke-linejoin="round"/>
<path d="M423.936 86.7803C423.936 89.9578 421.268 92.5342 417.978 92.5342C414.687 92.5342 412.02 89.9578 412.02 86.7803C412.02 83.6028 414.687 81.0264 417.978 81.0264C421.268 81.0264 423.936 83.6028 423.936 86.7803Z" fill="white" stroke="url(#paint3_linear_1_335)" stroke-linecap="round" stroke-linejoin="round"/>
<path d="M402.952 86.7803C402.952 89.9578 400.285 92.5342 396.994 92.5342C393.704 92.5342 391.036 89.9578 391.036 86.7803C391.036 83.6028 393.704 81.0264 396.994 81.0264C400.285 81.0264 402.952 83.6028 402.952 86.7803Z" fill="white" stroke="url(#paint4_linear_1_335)" stroke-linecap="round" stroke-linejoin="round"/>
<path d="M381.964 86.7803C381.964 89.9578 379.296 92.5342 376.006 92.5342C372.716 92.5342 370.048 89.9578 370.048 86.7803C370.048 83.6028 372.716 81.0264 376.006 81.0264C379.296 81.0264 381.964 83.6028 381.964 86.7803Z" fill="white" stroke="url(#paint5_linear_1_335)" stroke-linecap="round" stroke-linejoin="round"/>
<path d="M406.185 113.902H390.756" stroke="url(#paint6_linear_1_335)" stroke-width="2" stroke-linecap="round" stroke-linejoin="round"/>
<path d="M406.185 119.944H390.756" stroke="url(#paint7_linear_1_335)" stroke-width="2" stroke-linecap="round" stroke-linejoin="round"/>
<path d="M406.185 125.984H390.756" stroke="url(#paint8_linear_1_335)" stroke-width="2" stroke-linecap="round" stroke-linejoin="round"/>
<path d="M55.5723 270.034H172.26" stroke="url(#paint9_linear_1_335)" stroke-width="2" stroke-linecap="round" stroke-linejoin="round"/>
<path d="M55.5728 278.921H172.26" stroke="url(#paint10_linear_1_335)" stroke-width="2" stroke-linecap="round" stroke-linejoin="round"/>
<path d="M55.5728 287.982H147.568" stroke="url(#paint11_linear_1_335)" stroke-width="2" stroke-linecap="round" stroke-linejoin="round"/>
<path d="M303.01 105.543V106.258" stroke="url(#paint12_linear_1_335)" stroke-linecap="round" stroke-linejoin="round"/>
<path d="M303.01 110.54V359.919" stroke="url(#paint13_linear_1_335)" stroke-linecap="round" stroke-linejoin="round"/>
<path d="M303.01 362.064V362.779" stroke="url(#paint14_linear_1_335)" stroke-linecap="round" stroke-linejoin="round"/>
<path d="M33.2939 307.819H34.0349" stroke="url(#paint15_linear_1_335)" stroke-linecap="round" stroke-linejoin="round"/>
<path d="M38.4677 307.819H409.057" stroke="url(#paint16_linear_1_335)" stroke-linecap="round" stroke-linejoin="round"/>
<path d="M411.268 307.819H412.009" stroke="url(#paint17_linear_1_335)" stroke-linecap="round" stroke-linejoin="round"/>
<path d="M305.561 305.356H300.448V310.294H305.561V305.356Z" fill="white" stroke="url(#paint18_linear_1_335)" stroke-linecap="round" stroke-linejoin="round"/>
<path d="M186.235 1H113.167C111.388 1 109.936 2.38839 109.936 4.12029V36.9549C109.936 38.6725 111.373 40.0752 113.167 40.0752H145.966L149.716 53.0144L153.465 40.0752H186.265C188.043 40.0752 189.496 38.6868 189.496 36.9549V4.12029C189.496 2.4027 188.058 1 186.265 1H186.235Z" fill="#3A61B0" stroke="url(#paint19_linear_1_335)" stroke-linecap="round" stroke-linejoin="round"/>
<path d="M122.089 10.4048H177.298" stroke="white" stroke-linecap="round" stroke-linejoin="round"/>
<path d="M122.09 17.158H177.299" stroke="white" stroke-linecap="round" stroke-linejoin="round"/>
<path d="M122.09 23.917H177.299" stroke="white" stroke-linecap="round" stroke-linejoin="round"/>
<path d="M122.09 30.6714H163.708" stroke="white" stroke-linecap="round" stroke-linejoin="round"/>
<path d="M156.429 349.641H76.8984V397.777H156.429V349.641Z" fill="url(#paint20_linear_1_335)" stroke="url(#paint21_linear_1_335)" stroke-linecap="round" stroke-linejoin="round"/>
<path d="M156.429 349.641H76.8984V356.955H156.429V349.641Z" fill="#3A61B0" stroke="url(#paint22_linear_1_335)" stroke-linecap="round" stroke-linejoin="round"/>
<path d="M85.0186 363.125H105.338" stroke="white" stroke-linecap="round" stroke-linejoin="round"/>
<path d="M95.1738 368.606H130.359" stroke="white" stroke-linecap="round" stroke-linejoin="round"/>
<path d="M90.6841 373.704H101.044" stroke="white" stroke-linecap="round" stroke-linejoin="round"/>
<path d="M95.1738 379.743H118.873" stroke="white" stroke-linecap="round" stroke-linejoin="round"/>
<path d="M85.0186 385.209H105.338" stroke="white" stroke-linecap="round" stroke-linejoin="round"/>
<path d="M282.601 260.384H214.319" stroke="url(#paint23_linear_1_335)" stroke-linecap="round" stroke-linejoin="round"/>
<path d="M283.923 290.871C283.923 290.871 283.923 260.24 248.47 260.24C213.018 260.24 213.018 290.871 213.018 290.871" stroke="url(#paint24_linear_1_335)" stroke-linecap="round" stroke-linejoin="round"/>
<path d="M283.92 293.764C285.573 293.764 286.913 292.469 286.913 290.873C286.913 289.276 285.573 287.982 283.92 287.982C282.267 287.982 280.926 289.276 280.926 290.873C280.926 292.469 282.267 293.764 283.92 293.764Z" fill="#FEF0A9" stroke="url(#paint25_linear_1_335)" stroke-linecap="round" stroke-linejoin="round"/>
<path d="M210.025 290.873C210.025 289.284 211.359 287.982 213.019 287.982C214.679 287.982 216.013 289.27 216.013 290.873C216.013 292.476 214.679 293.764 213.019 293.764C211.359 293.764 210.025 292.476 210.025 290.873Z" fill="#FEF0A9" stroke="url(#paint26_linear_1_335)" stroke-linecap="round" stroke-linejoin="round"/>
<path d="M281.298 262.774H286.545V257.708H281.298V262.774Z" fill="#FEF0A9" stroke="url(#paint27_linear_1_335)" stroke-linecap="round" stroke-linejoin="round"/>
<path d="M245.832 262.774H251.078V257.708H245.832V262.774Z" fill="#FEF0A9" stroke="url(#paint28_linear_1_335)" stroke-linecap="round" stroke-linejoin="round"/>
<path d="M210.394 262.774H215.64V257.708H210.394V262.774Z" fill="#FEF0A9" stroke="url(#paint29_linear_1_335)" stroke-linecap="round" stroke-linejoin="round"/>
<path d="M97.9906 168.249V158.129L90.1354 157.471C89.6611 155.868 89.0238 154.351 88.1938 152.934L93.2627 147.122L85.8521 139.966L79.8347 144.861C78.3674 144.059 76.7815 143.444 75.1364 142.986L74.4546 135.4H63.976L63.2942 142.986C61.6342 143.444 60.0632 144.059 58.5959 144.861L52.5785 139.966L45.1679 147.122L50.2368 152.934C49.4068 154.351 48.7695 155.882 48.2952 157.471L40.4399 158.129V168.249L48.2952 168.907C48.7695 170.51 49.4068 172.028 50.2368 173.445L45.1679 179.256L52.5785 186.412L58.5959 181.517C60.0632 182.319 61.6491 182.934 63.2942 183.392L63.976 190.978H74.4546L75.1364 183.392C76.7963 182.934 78.3674 182.319 79.8347 181.517L85.8521 186.412L93.2627 179.256L88.1938 173.445C89.0238 172.028 89.6611 170.496 90.1354 168.907L97.9906 168.249ZM69.2079 174.947C62.4791 174.947 57.0249 169.68 57.0249 163.182C57.0249 156.684 62.4791 151.416 69.2079 151.416C75.9367 151.416 81.3909 156.684 81.3909 163.182C81.3909 169.68 75.9367 174.947 69.2079 174.947Z" fill="#3A61B0" stroke="url(#paint30_linear_1_335)" stroke-linecap="round" stroke-linejoin="round"/>
<path d="M133.619 190.95V184.022L128.239 183.578C127.913 182.476 127.469 181.446 126.905 180.472L130.373 176.493L125.305 171.598L121.184 174.948C120.177 174.404 119.095 173.974 117.968 173.659L117.509 168.464H110.335L109.876 173.659C108.749 173.974 107.667 174.404 106.66 174.948L102.539 171.598L97.4704 176.493L100.939 180.472C100.375 181.446 99.9308 182.491 99.6047 183.578L94.2246 184.022V190.95L99.6047 191.393C99.9308 192.496 100.375 193.526 100.939 194.499L97.4704 198.479L102.539 203.374L106.66 200.024C107.667 200.568 108.749 200.998 109.876 201.313L110.335 206.508H117.509L117.968 201.313C119.109 200.998 120.177 200.568 121.184 200.024L125.305 203.374L130.373 198.479L126.905 194.499C127.469 193.526 127.913 192.481 128.239 191.393L133.619 190.95ZM113.922 195.53C109.313 195.53 105.578 191.923 105.578 187.472C105.578 183.02 109.313 179.413 113.922 179.413C118.531 179.413 122.266 183.02 122.266 187.472C122.266 191.923 118.531 195.53 113.922 195.53Z" fill="#3A61B0" stroke="url(#paint31_linear_1_335)" stroke-linecap="round" stroke-linejoin="round"/>
<path d="M317.654 324.649H375.056" stroke="url(#paint32_linear_1_335)" stroke-width="2" stroke-linecap="round" stroke-linejoin="round"/>
<path d="M317.654 333.54H375.056" stroke="url(#paint33_linear_1_335)" stroke-width="2" stroke-linecap="round" stroke-linejoin="round"/>
<path d="M317.654 342.601H350.379" stroke="url(#paint34_linear_1_335)" stroke-width="2" stroke-linecap="round" stroke-linejoin="round"/>
<path d="M242.021 346.279H211.8C207.695 346.279 204.36 343.058 204.36 339.093C204.36 335.129 207.695 331.908 211.8 331.908H242.021C246.126 331.908 249.461 335.129 249.461 339.093C249.461 343.058 246.126 346.279 242.021 346.279Z" fill="#3A61B0" stroke="url(#paint35_linear_1_335)" stroke-linecap="round" stroke-linejoin="round"/>
<path d="M298.327 346.279H268.106C264.001 346.279 260.666 343.058 260.666 339.093C260.666 335.129 264.001 331.908 268.106 331.908H298.327C302.432 331.908 305.767 335.129 305.767 339.093C305.767 343.058 302.432 346.279 298.327 346.279Z" fill="#3A61B0" stroke="url(#paint36_linear_1_335)" stroke-linecap="round" stroke-linejoin="round"/>
<path d="M385.935 192.726H321.848V254.617H385.935V192.726Z" fill="white" stroke="url(#paint37_linear_1_335)" stroke-linecap="round" stroke-linejoin="round"/>
<path d="M321.848 192.726L385.935 254.617" stroke="url(#paint38_linear_1_335)" stroke-linecap="round" stroke-linejoin="round"/>
<path d="M385.935 192.726L321.848 254.617" stroke="url(#paint39_linear_1_335)" stroke-linecap="round" stroke-linejoin="round"/>
<path d="M455.536 155.969H376.005V204.105H455.536V155.969Z" fill="url(#paint40_linear_1_335)" stroke="url(#paint41_linear_1_335)" stroke-linecap="round" stroke-linejoin="round"/>
<path d="M455.536 155.969H376.005V163.283H455.536V155.969Z" fill="#3A61B0" stroke="url(#paint42_linear_1_335)" stroke-linecap="round" stroke-linejoin="round"/>
<path d="M384.111 169.453H404.446" stroke="white" stroke-linecap="round" stroke-linejoin="round"/>
<path d="M394.282 174.92H429.467" stroke="white" stroke-linecap="round" stroke-linejoin="round"/>
<path d="M389.792 180.028H400.137" stroke="white" stroke-linecap="round" stroke-linejoin="round"/>
<path d="M394.282 186.057H417.981" stroke="white" stroke-linecap="round" stroke-linejoin="round"/>
<path d="M384.111 191.537H404.446" stroke="white" stroke-linecap="round" stroke-linejoin="round"/>
<path d="M346.985 122.475V136.917L340.389 143.287H325.435V122.475H346.985Z" fill="white" stroke="url(#paint43_linear_1_335)" stroke-linecap="round" stroke-linejoin="round"/>
<path d="M346.984 136.918L340.39 143.287V136.918H346.984Z" fill="white" stroke="url(#paint44_linear_1_335)" stroke-linecap="round" stroke-linejoin="round"/>
<path d="M117.804 234.164V248.606L111.209 254.975H96.2544V234.164H117.804Z" fill="white" stroke="url(#paint45_linear_1_335)" stroke-linecap="round" stroke-linejoin="round"/>
<path d="M117.806 248.604L111.211 254.972V248.604H117.806Z" fill="white" stroke="url(#paint46_linear_1_335)" stroke-linecap="round" stroke-linejoin="round"/>
<path d="M36.3615 323.134V337.576L29.7661 343.946H14.8115V323.134H36.3615Z" fill="white" stroke="url(#paint47_linear_1_335)" stroke-linecap="round" stroke-linejoin="round"/>
<path d="M36.3618 337.578L29.7671 343.946V337.578H36.3618Z" fill="white" stroke="url(#paint48_linear_1_335)" stroke-linecap="round" stroke-linejoin="round"/>
<path d="M306.14 235.108C298.3 235.752 288.34 226.706 288.34 226.706C288.34 226.706 286.813 228.123 285.539 226.363C284.264 224.588 278.736 220.494 278.424 216.945C278.113 213.395 284.634 207.641 284.634 207.641C279.595 208.972 279.062 206.124 279.062 206.124C279.062 206.124 287.525 199.368 290.489 199.196C291.645 199.125 296.699 201.93 301.575 205.709C306.674 209.673 316.248 223.629 316.248 223.629C316.248 223.629 348.632 246.344 356.828 252.155C367.633 259.827 380.439 273.439 380.439 273.439C380.439 273.439 423.45 292.161 435.247 302.452L419.226 339.122C419.226 339.122 380.142 313.831 376.229 307.418C372.317 301.006 368.419 304.856 364.506 300.663C360.593 296.469 356.843 291.674 356.843 291.674C356.843 291.674 347.387 287.666 338.243 278.62C329.098 269.56 321.05 255.705 315.996 247.403C310.942 239.101 306.155 235.137 306.155 235.137L306.14 235.108Z" fill="white" stroke="url(#paint49_linear_1_335)" stroke-linecap="round" stroke-linejoin="round"/>
<path d="M308.525 229.754C308.525 229.754 296.861 227.02 295.853 219.592C295.527 217.173 293.348 214.396 293.348 214.396C293.348 214.396 282.455 213.881 283.151 209.601L297.661 208.356C297.661 208.356 305.62 210.861 310.318 218.633" fill="white"/>
<path d="M308.525 229.754C308.525 229.754 296.861 227.02 295.853 219.592C295.527 217.173 293.348 214.396 293.348 214.396C293.348 214.396 282.455 213.881 283.151 209.601L297.661 208.356C297.661 208.356 305.62 210.861 310.318 218.633" stroke="url(#paint50_linear_1_335)" stroke-linecap="round" stroke-linejoin="round"/>
<path d="M288.324 226.705C288.324 226.705 289.05 225.717 288.813 223.67C288.813 223.67 292.015 223.112 291.659 220.364C291.659 220.364 296.402 219.806 293.349 214.395" stroke="url(#paint51_linear_1_335)" stroke-linecap="round" stroke-linejoin="round"/>
<path d="M291.656 220.378C291.656 220.378 285.284 215.799 284.558 213.723" stroke="url(#paint52_linear_1_335)" stroke-linecap="round" stroke-linejoin="round"/>
<path d="M288.826 223.67C288.826 223.67 282.023 219.677 281.905 217.33" stroke="url(#paint53_linear_1_335)" stroke-linecap="round" stroke-linejoin="round"/>
<path d="M290.368 203.089C290.368 203.089 288.204 206.839 284.633 207.626" stroke="url(#paint54_linear_1_335)" stroke-linecap="round" stroke-linejoin="round"/>
<path d="M289.303 204.563C289.303 204.563 291.037 205.408 292.504 206.61" stroke="url(#paint55_linear_1_335)" stroke-linecap="round" stroke-linejoin="round"/>
<path d="M537.703 331.334C537.703 331.334 512.018 320.542 485.977 314.645C459.936 308.748 417.859 303.51 417.859 303.51C417.859 303.51 429.449 417.729 426.396 424.599C423.342 431.47 405.023 454.543 405.023 454.543C405.023 454.543 504.162 491.872 521.444 495.049C538.725 498.227 529.714 440.301 529.714 440.301C529.714 440.301 547.87 366.674 537.703 331.334Z" fill="url(#paint56_linear_1_335)"/>
<path d="M502.133 319.068C502.133 319.068 504.489 323.405 498.294 325.609C482.243 331.335 465.139 326.282 466.962 320.213C467.659 317.894 471.631 320.213 471.379 311.554C471.349 310.437 470.934 309.135 470.297 307.746C469.318 305.599 467.777 303.252 466.221 301.148C463.509 297.484 460.722 294.521 460.722 294.521C460.722 294.521 486.2 278.819 505.097 294.521C505.097 294.521 498.072 297.956 502.133 319.068Z" fill="white" stroke="url(#paint57_linear_1_335)" stroke-linecap="round" stroke-linejoin="round"/>
<path d="M533.705 522.502C523.671 538.29 472.76 545.704 444.97 545.003C417.195 544.316 337.22 507.745 331.796 500.002C326.771 492.831 314.425 469.128 333.456 454.801C334.968 453.67 336.657 452.597 338.584 451.595C351.612 444.782 438.256 466.266 438.256 466.266C438.256 466.266 443.622 462.988 445.593 463.231C451.64 463.976 455.923 468.699 468.18 472.063C476.732 474.424 500.076 465.35 514.986 473.15C516.616 473.995 518.128 475.04 519.521 476.328C533.453 489.181 543.724 506.715 533.705 522.502Z" fill="#3A61B0"/>
<mask id="mask0_1_335" style="mask-type:luminance" maskUnits="userSpaceOnUse" x="323" y="450" width="215" height="96">
<path d="M533.705 522.502C523.671 538.29 472.76 545.704 444.97 545.003C417.195 544.316 337.22 507.745 331.796 500.002C326.771 492.831 314.425 469.128 333.456 454.801C334.968 453.67 336.657 452.597 338.584 451.595C351.612 444.782 438.256 466.266 438.256 466.266C438.256 466.266 443.622 462.988 445.593 463.231C451.64 463.976 455.923 468.699 468.18 472.063C476.732 474.424 500.076 465.35 514.986 473.15C516.616 473.995 518.128 475.04 519.521 476.328C533.453 489.181 543.724 506.715 533.705 522.502Z" fill="white"/>
</mask>
<g mask="url(#mask0_1_335)">
<path opacity="0.3" d="M514.986 473.15C499.705 472.163 486.084 475.254 476.569 480.679C465.29 487.12 412.023 511.896 412.023 511.896C412.141 509.234 415.106 503.867 415.106 503.867C410.096 499.558 396.994 496.209 396.994 496.209C386.842 487.836 346.558 462.859 333.456 454.801C334.967 453.67 336.657 452.597 338.584 451.595C351.612 444.782 438.256 466.266 438.256 466.266C438.256 466.266 443.622 462.988 445.593 463.231C451.64 463.976 455.923 468.699 468.18 472.063C476.732 474.424 500.076 465.35 514.986 473.15Z" fill="#3A61B0" stroke="url(#paint58_linear_1_335)" stroke-linecap="round" stroke-linejoin="round"/>
</g>
<path d="M533.705 522.502C523.671 538.29 472.76 545.704 444.97 545.003C417.195 544.316 337.22 507.745 331.796 500.002C326.771 492.831 314.425 469.128 333.456 454.801C334.968 453.67 336.657 452.597 338.584 451.595C351.612 444.782 438.256 466.266 438.256 466.266C438.256 466.266 443.622 462.988 445.593 463.231C451.64 463.976 455.923 468.699 468.18 472.063C476.732 474.424 500.076 465.35 514.986 473.15C516.616 473.995 518.128 475.04 519.521 476.328C533.453 489.181 543.724 506.715 533.705 522.502Z" stroke="url(#paint59_linear_1_335)" stroke-linecap="round" stroke-linejoin="round"/>
<path d="M518.067 536.745L519.342 542.141C519.342 542.141 515.933 551.487 500.949 553.004C485.965 554.522 477.087 557.742 469.884 558.157C462.681 558.572 458.486 557.985 458.486 557.985L457.019 555.867L518.067 536.759V536.745Z" fill="white" stroke="url(#paint60_linear_1_335)" stroke-linecap="round" stroke-linejoin="round"/>
<path d="M431.064 536.173L457.031 555.854C457.031 555.854 477.158 554.308 494.261 550.486C506.563 547.724 517.308 543.773 517.901 538.377C518.805 530.161 509.705 527.914 498.901 528.229C496.885 528.272 494.81 528.43 492.72 528.63C475.424 530.419 453.429 521.187 453.429 521.187L431.079 536.173H431.064Z" fill="url(#paint61_linear_1_335)"/>
<mask id="mask1_1_335" style="mask-type:luminance" maskUnits="userSpaceOnUse" x="431" y="521" width="87" height="35">
<path d="M431.064 536.173L457.031 555.854C457.031 555.854 477.158 554.308 494.261 550.486C506.563 547.724 517.308 543.773 517.901 538.377C518.805 530.161 509.705 527.914 498.901 528.229C496.885 528.272 494.81 528.43 492.72 528.63C475.424 530.419 453.429 521.187 453.429 521.187L431.079 536.173H431.064Z" fill="white"/>
</mask>
<g mask="url(#mask1_1_335)">
<path opacity="0.3" d="M517.901 538.191C513.233 539.966 507.438 542.428 503.465 545.047C503.465 545.047 479.351 557.027 442.298 544.689L431.064 536.173L453.414 521.187C453.414 521.187 475.394 530.419 492.705 528.616C494.795 528.401 496.87 528.258 498.886 528.215C509.616 527.886 518.642 530.104 517.901 538.177V538.191Z" fill="#3A61B0"/>
</g>
<path d="M431.064 536.173L457.031 555.854C457.031 555.854 477.158 554.308 494.261 550.486C506.563 547.724 517.308 543.773 517.901 538.377C518.805 530.161 509.705 527.914 498.901 528.229C496.885 528.272 494.81 528.43 492.72 528.63C475.424 530.419 453.429 521.187 453.429 521.187L431.079 536.173H431.064Z" stroke="url(#paint62_linear_1_335)" stroke-linecap="round" stroke-linejoin="round"/>
<path d="M455.268 543.928C450.584 544.673 455.727 553.905 462.07 551.099C468.414 548.294 459.951 543.184 455.268 543.928Z" fill="white"/>
<mask id="mask2_1_335" style="mask-type:luminance" maskUnits="userSpaceOnUse" x="453" y="543" width="12" height="9">
<path d="M455.268 543.928C450.584 544.673 455.727 553.905 462.07 551.099C468.414 548.294 459.951 543.184 455.268 543.928Z" fill="white"/>
</mask>
<g mask="url(#mask2_1_335)">
<path opacity="0.2" d="M464.057 549.611C460.855 549.239 457.491 548.681 453.978 547.908C453.074 546.09 453.282 544.229 455.282 543.929C459.21 543.313 465.82 546.806 464.071 549.611H464.057Z" fill="#3A61B0"/>
</g>
<path d="M455.268 543.928C450.584 544.673 455.727 553.905 462.07 551.099C468.414 548.294 459.951 543.184 455.268 543.928Z" stroke="url(#paint63_linear_1_335)" stroke-linecap="round" stroke-linejoin="round"/>
<path d="M494.262 550.472C506.564 547.724 517.309 543.774 517.902 538.378C518.806 530.162 509.706 527.915 498.901 528.23C498.427 528.673 487.949 538.449 494.277 550.472H494.262Z" fill="white"/>
<mask id="mask3_1_335" style="mask-type:luminance" maskUnits="userSpaceOnUse" x="492" y="528" width="26" height="23">
<path d="M494.262 550.472C506.564 547.724 517.309 543.774 517.902 538.378C518.806 530.162 509.706 527.915 498.901 528.23C498.427 528.673 487.949 538.449 494.277 550.472H494.262Z" fill="white"/>
</mask>
<g mask="url(#mask3_1_335)">
<path opacity="0.3" d="M517.903 538.192C513.234 539.967 507.439 542.429 503.467 545.048C503.467 545.048 499.865 546.837 493.314 548.326C489.164 537.304 498.442 528.631 498.887 528.23C509.618 527.901 518.644 530.119 517.903 538.192Z" fill="#3A61B0"/>
</g>
<path d="M494.262 550.472C506.564 547.724 517.309 543.774 517.902 538.378C518.806 530.162 509.706 527.915 498.901 528.23C498.427 528.673 487.949 538.449 494.277 550.472H494.262Z" stroke="url(#paint64_linear_1_335)" stroke-linecap="round" stroke-linejoin="round"/>
<path d="M485.472 540.265C485.472 540.265 485.517 540.265 485.546 540.265C486.258 540.294 486.865 539.764 486.895 539.091C487.147 533.91 491.282 529.702 491.326 529.659C491.816 529.158 491.801 528.385 491.282 527.898C490.778 527.426 489.963 527.44 489.474 527.927C489.281 528.127 484.642 532.837 484.331 538.963C484.301 539.621 484.805 540.194 485.472 540.251V540.265Z" fill="white" stroke="url(#paint65_linear_1_335)" stroke-linecap="round" stroke-linejoin="round"/>
<path d="M480.333 540.568C480.333 540.568 480.408 540.568 480.437 540.568C481.149 540.568 481.741 540.038 481.741 539.351C481.845 534.127 485.639 529.59 485.669 529.547C486.114 529.017 486.04 528.23 485.491 527.8C484.943 527.371 484.143 527.443 483.683 527.972C483.505 528.187 479.296 533.197 479.163 539.308C479.163 539.952 479.652 540.496 480.304 540.568H480.333Z" fill="white" stroke="url(#paint66_linear_1_335)" stroke-linecap="round" stroke-linejoin="round"/>
<path d="M474.181 539.935C474.181 539.935 474.196 539.935 474.211 539.935C474.922 539.992 475.545 539.491 475.604 538.804C476.004 534.453 479.828 528.899 479.873 528.842C480.273 528.269 480.11 527.496 479.517 527.124C478.924 526.738 478.124 526.895 477.739 527.468C477.561 527.711 473.5 533.608 473.055 538.603C472.996 539.276 473.5 539.877 474.196 539.949L474.181 539.935Z" fill="white" stroke="url(#paint67_linear_1_335)" stroke-linecap="round" stroke-linejoin="round"/>
<path d="M468.369 539.335C468.487 539.335 468.606 539.335 468.71 539.335C469.406 539.221 469.881 538.576 469.762 537.904C468.843 532.636 473.912 528.114 473.971 528.071C474.49 527.613 474.534 526.825 474.06 526.324C473.586 525.823 472.771 525.78 472.252 526.238C472 526.453 466.086 531.692 467.228 538.319C467.331 538.877 467.806 539.292 468.354 539.349L468.369 539.335Z" fill="white" stroke="url(#paint68_linear_1_335)" stroke-linecap="round" stroke-linejoin="round"/>
<path d="M462.058 537.876C462.192 537.876 462.34 537.876 462.488 537.847C463.185 537.69 463.615 537.032 463.452 536.359C462.34 531.664 467.127 526.354 467.172 526.297C467.646 525.781 467.587 524.994 467.053 524.55C466.52 524.092 465.719 524.15 465.245 524.651C465.008 524.908 459.524 530.963 460.932 536.917C461.065 537.447 461.525 537.819 462.044 537.876H462.058Z" fill="white" stroke="url(#paint69_linear_1_335)" stroke-linecap="round" stroke-linejoin="round"/>
<path d="M328.524 528.673L326.657 533.912C326.657 533.912 329.028 543.545 343.775 546.579C358.522 549.613 366.985 553.707 374.099 554.852C381.214 555.997 385.452 555.84 385.452 555.84L387.142 553.879L328.509 528.687L328.524 528.673Z" fill="white" stroke="url(#paint70_linear_1_335)" stroke-linecap="round" stroke-linejoin="round"/>
<path d="M415.11 536.929L387.158 553.861C387.158 553.861 367.312 550.283 350.727 544.744C338.796 540.751 328.54 535.741 328.54 530.302C328.54 522.043 337.833 520.726 348.548 522.143C350.549 522.387 352.595 522.744 354.655 523.174C371.669 526.709 394.539 519.767 394.539 519.767L415.14 536.943L415.11 536.929Z" fill="url(#paint71_linear_1_335)"/>
<mask id="mask4_1_335" style="mask-type:luminance" maskUnits="userSpaceOnUse" x="328" y="519" width="88" height="35">
<path d="M415.11 536.929L387.158 553.861C387.158 553.861 367.312 550.283 350.727 544.744C338.796 540.751 328.54 535.741 328.54 530.302C328.54 522.043 337.833 520.726 348.548 522.143C350.549 522.387 352.595 522.744 354.655 523.174C371.669 526.709 394.539 519.767 394.539 519.767L415.14 536.943L415.11 536.929Z" fill="white"/>
</mask>
<g mask="url(#mask4_1_335)">
<path opacity="0.3" d="M415.112 536.928L398.66 546.89C382.15 542.095 371.404 531.932 365.268 524.174C379.852 524.217 394.511 519.752 394.511 519.752L415.112 536.928Z" fill="#3A61B0"/>
</g>
<path d="M415.11 536.929L387.158 553.861C387.158 553.861 367.312 550.283 350.727 544.744C338.796 540.751 328.54 535.741 328.54 530.302C328.54 522.043 337.833 520.726 348.548 522.143C350.549 522.387 352.595 522.744 354.655 523.174C371.669 526.709 394.539 519.767 394.539 519.767L415.14 536.943L415.11 536.929Z" stroke="url(#paint72_linear_1_335)" stroke-linecap="round" stroke-linejoin="round"/>
<path d="M350.712 544.747C338.781 540.768 328.524 535.758 328.524 530.319C328.524 522.06 337.817 520.743 348.533 522.16C348.963 522.647 358.315 533.439 350.712 544.761V544.747Z" fill="white" stroke="url(#paint73_linear_1_335)" stroke-linecap="round" stroke-linejoin="round"/>
<path d="M360.555 535.487C360.555 535.487 360.511 535.487 360.481 535.487C359.77 535.444 359.236 534.857 359.266 534.184C359.577 529.017 355.931 524.394 355.886 524.351C355.457 523.807 355.56 523.034 356.109 522.605C356.672 522.19 357.472 522.29 357.902 522.82C358.08 523.034 362.171 528.187 361.815 534.313C361.77 534.971 361.207 535.487 360.54 535.487H360.555Z" fill="white" stroke="url(#paint74_linear_1_335)" stroke-linecap="round" stroke-linejoin="round"/>
<path d="M365.639 536.301C365.639 536.301 365.565 536.301 365.535 536.301C364.824 536.244 364.305 535.643 364.364 534.956C364.824 529.746 361.548 524.851 361.519 524.793C361.133 524.221 361.296 523.448 361.889 523.076C362.482 522.704 363.282 522.861 363.668 523.434C363.816 523.663 367.462 529.073 366.928 535.156C366.869 535.8 366.306 536.287 365.654 536.287L365.639 536.301Z" fill="white" stroke="url(#paint75_linear_1_335)" stroke-linecap="round" stroke-linejoin="round"/>
<path d="M371.817 536.302H371.787C371.076 536.302 370.512 535.729 370.527 535.042C370.601 530.677 367.4 524.765 367.37 524.708C367.044 524.107 367.281 523.348 367.904 523.033C368.526 522.704 369.312 522.947 369.638 523.549C369.786 523.82 373.18 530.09 373.091 535.099C373.091 535.772 372.498 536.316 371.802 536.316L371.817 536.302Z" fill="white" stroke="url(#paint76_linear_1_335)" stroke-linecap="round" stroke-linejoin="round"/>
<path d="M377.657 536.301C377.538 536.301 377.435 536.287 377.316 536.258C376.634 536.072 376.234 535.385 376.427 534.727C377.909 529.574 373.359 524.579 373.314 524.521C372.84 524.006 372.885 523.233 373.418 522.775C373.952 522.317 374.752 522.36 375.226 522.875C375.449 523.119 380.769 528.93 378.902 535.399C378.739 535.943 378.22 536.301 377.672 536.301H377.657Z" fill="white" stroke="url(#paint77_linear_1_335)" stroke-linecap="round" stroke-linejoin="round"/>
<path d="M384.105 535.484C383.972 535.484 383.824 535.456 383.69 535.413C383.023 535.184 382.668 534.482 382.89 533.838C384.506 529.287 380.326 523.518 380.282 523.461C379.867 522.903 380 522.13 380.578 521.729C381.156 521.329 381.956 521.457 382.371 522.016C382.579 522.288 387.381 528.872 385.321 534.654C385.143 535.169 384.639 535.499 384.105 535.499V535.484Z" fill="white" stroke="url(#paint78_linear_1_335)" stroke-linecap="round" stroke-linejoin="round"/>
<path d="M390.196 542.198C394.776 543.4 388.655 552.074 382.652 548.639C376.649 545.203 385.631 540.981 390.196 542.198Z" fill="white" stroke="url(#paint79_linear_1_335)" stroke-linecap="round" stroke-linejoin="round"/>
<path d="M337.337 496.195C344.214 505.485 364.549 515.747 384.825 524.221C387.003 527.699 391.435 534.211 397.541 540.266C410.021 552.661 415.104 545.719 415.104 545.719C415.104 545.719 422.989 544.86 434.624 543.329C435.394 544.774 437.173 547.036 440.508 546.521C442.02 546.292 444.939 544.202 448.23 541.439C477.62 537.174 517.504 530.046 528.279 521.659" fill="#3A61B0"/>
<path d="M337.337 496.195C344.214 505.485 364.549 515.747 384.825 524.221C387.003 527.699 391.435 534.211 397.541 540.266C410.021 552.661 415.104 545.719 415.104 545.719C415.104 545.719 422.989 544.86 434.624 543.329C435.394 544.774 437.173 547.036 440.508 546.521C442.02 546.292 444.939 544.202 448.23 541.439C477.62 537.174 517.504 530.046 528.279 521.659" stroke="url(#paint80_linear_1_335)" stroke-linecap="round" stroke-linejoin="round"/>
<path d="M516.746 478.532C511.662 473.136 506.579 472.893 495.907 473.623C495.907 473.623 468.058 482.153 448.642 493.504C429.227 504.854 400.859 516.777 400.859 516.777C400.859 516.777 392.218 514.358 386.201 516.777C386.201 516.777 381.977 517.092 384.808 524.22" stroke="url(#paint81_linear_1_335)" stroke-linecap="round" stroke-linejoin="round"/>
<path d="M529.714 510.766C529.714 510.766 529.863 519.082 517.65 524.836" stroke="url(#paint82_linear_1_335)" stroke-linecap="round" stroke-linejoin="round"/>
<path d="M395.019 476.071C395.019 476.071 414.301 489.526 418.14 498.4C418.14 498.4 425.551 501.448 429.093 503.853" stroke="url(#paint83_linear_1_335)" stroke-linecap="round" stroke-linejoin="round"/>
<path d="M419.549 487.263C420.839 491.128 421.328 495.336 420.231 499.3" stroke="url(#paint84_linear_1_335)" stroke-linecap="round" stroke-linejoin="round"/>
<path d="M415.104 478.534C416.156 480.008 417.075 481.568 417.86 483.185" stroke="url(#paint85_linear_1_335)" stroke-linecap="round" stroke-linejoin="round"/>
<path d="M442.54 477.303C442.54 477.303 448.987 485.619 450.588 492.389" stroke="url(#paint86_linear_1_335)" stroke-linecap="round" stroke-linejoin="round"/>
<path d="M478.451 527.613C480.851 527.47 483.237 527.213 485.594 526.77" stroke="url(#paint87_linear_1_335)" stroke-linecap="round" stroke-linejoin="round"/>
<path d="M417.982 521.659C435.575 524.909 454.857 527.385 473.413 527.8" stroke="url(#paint88_linear_1_335)" stroke-linecap="round" stroke-linejoin="round"/>
<path d="M548.391 395.43C548.391 395.43 544.908 454.043 540.803 457.478C536.697 460.913 530.221 461.901 517.963 462.874C505.706 463.862 451.49 467.068 451.49 467.068L445.695 450.25C445.695 450.25 474.522 447.43 487.313 442.878C500.104 438.327 516.763 435.35 516.763 435.35C516.763 435.35 514.347 420.593 514.347 414.238V384.352" fill="white"/>
<path d="M548.391 395.43C548.391 395.43 544.908 454.043 540.803 457.478C536.697 460.913 530.221 461.901 517.963 462.874C505.706 463.862 451.49 467.068 451.49 467.068L445.695 450.25C445.695 450.25 474.522 447.43 487.313 442.878C500.104 438.327 516.763 435.35 516.763 435.35C516.763 435.35 514.347 420.593 514.347 414.238V384.352" stroke="url(#paint89_linear_1_335)" stroke-linecap="round" stroke-linejoin="round"/>
<path d="M537.705 331.334C550.925 339.192 554.823 357.356 550.244 396.13C550.244 396.13 554.142 400.711 548.376 403.001C548.376 403.001 526.797 395.2 516.748 400.582C506.699 405.949 509.308 393.153 509.308 393.153C509.308 393.153 505.172 357.485 514.317 351.044" fill="url(#paint90_linear_1_335)"/>
<path d="M513.144 345.562C513.144 345.562 500.443 358.329 511.618 390.563C511.618 390.563 510.062 396.431 510.076 398.578C510.076 400.725 513.144 401.856 513.144 401.856" stroke="white" stroke-linecap="round" stroke-linejoin="round"/>
<path d="M498.293 367.162C498.293 367.162 499.212 382.864 509.32 389.749" stroke="white" stroke-linecap="round" stroke-linejoin="round"/>
<path d="M501.556 330.605C501.556 330.605 481.859 337.891 466.193 329.818C456.9 325.038 460.724 317.351 460.724 317.351" stroke="white" stroke-linecap="round" stroke-linejoin="round"/>
<path d="M359.913 478.546H467.13C469.545 478.546 471.961 478.246 474.303 477.659L495.453 472.306C496.061 472.148 496.476 471.633 496.476 471.032C496.476 470.302 495.868 469.715 495.112 469.715H355.496C354.74 469.715 354.133 470.302 354.133 471.032V472.964C354.133 476.056 356.727 478.561 359.928 478.561L359.913 478.546Z" fill="#A67AED" stroke="url(#paint91_linear_1_335)" stroke-linecap="round" stroke-linejoin="round"/>
<path d="M349.284 473.409H456.797C458.679 473.409 459.791 471.92 459.302 470.074L439.352 395.173C438.863 393.326 436.951 391.838 435.069 391.838H327.556C325.674 391.838 324.562 393.326 325.051 395.173L345.001 470.074C345.49 471.92 347.402 473.409 349.284 473.409Z" fill="#A67AED" stroke="url(#paint92_linear_1_335)" stroke-linecap="round" stroke-linejoin="round"/>
<path d="M331.347 394.516H329.316" stroke="url(#paint93_linear_1_335)" stroke-linecap="round" stroke-linejoin="round"/>
<path d="M347.103 394.516H336.595" stroke="url(#paint94_linear_1_335)" stroke-linecap="round" stroke-linejoin="round"/>
<path d="M454.204 463.934L436.596 397.835C436.107 395.989 434.18 394.5 432.313 394.5H349.477" stroke="url(#paint95_linear_1_335)" stroke-linecap="round" stroke-linejoin="round"/>
<path d="M455.749 469.703L455.297 468.057" stroke="url(#paint96_linear_1_335)" stroke-linecap="round" stroke-linejoin="round"/>
<path d="M381.64 434.518C381.714 435.105 381.833 435.706 382.011 436.307C383.389 440.816 387.761 443.55 391.778 442.419C395.794 441.274 397.943 436.694 396.58 432.185C395.187 427.662 390.814 424.943 386.798 426.073C386.324 426.216 385.864 426.403 385.434 426.632C385.775 429.967 384.293 433.087 381.64 434.518Z" fill="white" stroke="url(#paint97_linear_1_335)" stroke-linecap="round" stroke-linejoin="round"/>
<path d="M429.095 294.15C419.788 293.163 414.704 284.632 409.116 283.301C403.529 281.97 399.957 280.453 399.957 280.453C399.957 280.453 398.03 273.94 395.14 276.216C392.265 278.492 388.456 327.014 392.176 325.496C395.896 323.979 395.896 329.705 395.896 329.705L430.444 359.118L459.405 309.594C459.405 309.594 438.388 295.152 429.081 294.165L429.095 294.15Z" fill="url(#paint98_linear_1_335)"/>
<path d="M147.567 121.059V120.344H148.308" stroke="url(#paint99_linear_1_335)" stroke-linecap="round" stroke-linejoin="round"/>
<path d="M152.665 120.344H278.052" stroke="url(#paint100_linear_1_335)" stroke-linecap="round" stroke-linejoin="round"/>
<path d="M280.218 120.344H280.959V121.059" stroke="url(#paint101_linear_1_335)" stroke-linecap="round" stroke-linejoin="round"/>
<path d="M280.957 125.353V203.36" stroke="url(#paint102_linear_1_335)" stroke-linecap="round" stroke-linejoin="round"/>
<path d="M280.959 205.507V206.223H280.218" stroke="url(#paint103_linear_1_335)" stroke-linecap="round" stroke-linejoin="round"/>
<path d="M275.873 206.222H150.486" stroke="url(#paint104_linear_1_335)" stroke-linecap="round" stroke-linejoin="round"/>
<path d="M148.308 206.223H147.567V205.507" stroke="url(#paint105_linear_1_335)" stroke-linecap="round" stroke-linejoin="round"/>
<path d="M147.567 201.214V123.207" stroke="url(#paint106_linear_1_335)" stroke-linecap="round" stroke-linejoin="round"/>
<path d="M214.263 122.462C215.474 122.462 216.456 121.514 216.456 120.344C216.456 119.174 215.474 118.226 214.263 118.226C213.051 118.226 212.069 119.174 212.069 120.344C212.069 121.514 213.051 122.462 214.263 122.462Z" fill="#FEF0A9" stroke="url(#paint107_linear_1_335)" stroke-linecap="round" stroke-linejoin="round"/>
<path d="M147.566 165.403C148.778 165.403 149.76 164.454 149.76 163.284C149.76 162.115 148.778 161.166 147.566 161.166C146.355 161.166 145.373 162.115 145.373 163.284C145.373 164.454 146.355 165.403 147.566 165.403Z" fill="#FEF0A9" stroke="url(#paint108_linear_1_335)" stroke-linecap="round" stroke-linejoin="round"/>
<path d="M214.263 208.34C215.474 208.34 216.456 207.391 216.456 206.221C216.456 205.052 215.474 204.103 214.263 204.103C213.051 204.103 212.069 205.052 212.069 206.221C212.069 207.391 213.051 208.34 214.263 208.34Z" fill="#FEF0A9" stroke="url(#paint109_linear_1_335)" stroke-linecap="round" stroke-linejoin="round"/>
<path d="M280.955 165.403C282.166 165.403 283.148 164.454 283.148 163.284C283.148 162.115 282.166 161.166 280.955 161.166C279.743 161.166 278.761 162.115 278.761 163.284C278.761 164.454 279.743 165.403 280.955 165.403Z" fill="#FEF0A9" stroke="url(#paint110_linear_1_335)" stroke-linecap="round" stroke-linejoin="round"/>
<path d="M283.522 203.763H278.41V208.7H283.522V203.763Z" fill="#FEF0A9" stroke="url(#paint111_linear_1_335)" stroke-linecap="round" stroke-linejoin="round"/>
<path d="M283.523 117.882H278.41V122.82H283.523V117.882Z" fill="#FEF0A9" stroke="url(#paint112_linear_1_335)" stroke-linecap="round" stroke-linejoin="round"/>
<path d="M150.129 203.763H145.017V208.7H150.129V203.763Z" fill="#FEF0A9" stroke="url(#paint113_linear_1_335)" stroke-linecap="round" stroke-linejoin="round"/>
<path d="M150.129 117.882H145.017V122.82H150.129V117.882Z" fill="#FEF0A9" stroke="url(#paint114_linear_1_335)" stroke-linecap="round" stroke-linejoin="round"/>
<path d="M272.527 127.944H156.432V199.181H272.527V127.944Z" fill="white" stroke="url(#paint115_linear_1_335)" stroke-linecap="round" stroke-linejoin="round"/>
<path d="M272.512 178.127L259.617 190.594L224.699 156.886L210.011 171.071L186.578 148.442L156.432 177.569V199.182H272.512V178.127Z" fill="#3A61B0" stroke="url(#paint116_linear_1_335)" stroke-linecap="round" stroke-linejoin="round"/>
<path d="M248.472 156.069C252.998 156.069 256.668 152.525 256.668 148.154C256.668 143.782 252.998 140.239 248.472 140.239C243.945 140.239 240.275 143.782 240.275 148.154C240.275 152.525 243.945 156.069 248.472 156.069Z" fill="#3A61B0" stroke="url(#paint117_linear_1_335)" stroke-linecap="round" stroke-linejoin="round"/>
<path d="M435.229 307.275C435.229 307.275 426.41 323.263 425.299 347.724" stroke="white" stroke-linecap="round" stroke-linejoin="round"/>
<path d="M409.132 318.353C409.132 318.353 411.785 331.951 419.551 341.798" stroke="white" stroke-linecap="round" stroke-linejoin="round"/>
<path d="M445.679 374.445C445.679 374.445 458.989 416.755 488.009 429.222" stroke="white" stroke-linecap="round" stroke-linejoin="round"/>
<path d="M480.746 297.87C480.746 297.87 479.487 307.102 470.298 307.746C469.319 305.599 467.778 303.252 466.222 301.148C472.313 299.258 480.746 297.87 480.746 297.87Z" fill="url(#paint118_linear_1_335)"/>
<path d="M500.325 298.514C500.325 298.514 515.695 300.332 522.127 280.408C528.56 260.484 523.506 245.469 498.058 238.241C483.948 234.233 469.853 237.454 464.769 247.759C460.412 256.591 462.472 263.948 461.464 266.911C460.338 270.231 449.948 273.051 449.948 275.327C449.948 277.216 455.714 280.408 455.714 280.408L454.024 285.36L455.625 286.176C455.625 286.176 452.675 297.326 454.024 301.262C455.017 304.139 481.043 305.327 483.074 298.214" fill="white"/>
<path d="M500.325 298.514C500.325 298.514 515.695 300.332 522.127 280.408C528.56 260.484 523.506 245.469 498.058 238.241C483.948 234.233 469.853 237.454 464.769 247.759C460.412 256.591 462.472 263.948 461.464 266.911C460.338 270.231 449.948 273.051 449.948 275.327C449.948 277.216 455.714 280.408 455.714 280.408L454.024 285.36L455.625 286.176C455.625 286.176 452.675 297.326 454.024 301.262C455.017 304.139 481.043 305.327 483.074 298.214" stroke="url(#paint119_linear_1_335)" stroke-linecap="round" stroke-linejoin="round"/>
<path d="M464.905 255.001C464.905 255.001 469.988 256.232 471.381 258.808" stroke="url(#paint120_linear_1_335)" stroke-linecap="round" stroke-linejoin="round"/>
<path d="M465.809 266.309C465.586 267.755 465.927 269 466.579 269.086C467.216 269.172 467.913 268.084 468.135 266.639C468.358 265.193 468.017 263.948 467.365 263.862C466.713 263.776 466.031 264.864 465.809 266.309Z" fill="url(#paint121_linear_1_335)"/>
<path d="M455.608 286.177C455.608 286.177 463.879 289.24 466.961 287.393" stroke="url(#paint122_linear_1_335)" stroke-linecap="round" stroke-linejoin="round"/>
<path d="M458.514 265.18C457.906 268.372 458.647 271.192 460.174 271.464C461.7 271.735 463.434 269.374 464.057 266.168C464.679 262.961 463.923 260.156 462.397 259.884C460.87 259.612 459.136 261.974 458.514 265.18Z" stroke="url(#paint123_linear_1_335)" stroke-linecap="round" stroke-linejoin="round"/>
<path d="M522.809 248.864C522.809 248.864 521.624 240.519 513.146 234.464C504.668 228.41 494.516 227.107 494.516 227.107C494.516 227.107 499.436 229.183 501.289 231.902C501.289 231.902 488.587 222.685 473.499 228.739C458.426 234.794 460.279 250.524 460.279 250.524L462.487 246.402C462.487 246.402 462.235 251.311 464.903 253.115C464.903 253.115 466.518 248.363 468.149 246.244C468.149 246.244 472.15 257.867 483.163 261.788C483.163 261.788 481.977 259.498 482.999 256.063C482.999 256.063 489.091 268.83 487.312 275.042L489.269 278.32C489.269 278.32 496.279 271.464 501.971 277.175C505.246 280.453 495.701 292.877 494.353 292.877L500.118 301.064C500.118 301.064 514.524 303.039 522.824 287.982C531.124 272.924 529.093 266.483 529.093 266.483C529.093 266.483 531.806 270.147 532.147 272.266C532.147 272.266 534.518 256.063 522.824 248.864H522.809Z" fill="url(#paint124_linear_1_335)"/>
<path d="M488.913 279.792C488.913 279.792 493.33 265.35 502.815 270.446C512.301 275.541 505.513 283.227 502.134 286.176C498.74 289.124 496.205 294.52 493.997 294.52C491.788 294.52 491.284 291.901 491.284 291.901" fill="white"/>
<path d="M488.913 279.792C488.913 279.792 493.33 265.35 502.815 270.446C512.301 275.541 505.513 283.227 502.134 286.176C498.74 289.124 496.205 294.52 493.997 294.52C491.788 294.52 491.284 291.901 491.284 291.901" stroke="url(#paint125_linear_1_335)" stroke-linecap="round" stroke-linejoin="round"/>
<path d="M464.057 266.166L490.438 271.462" stroke="url(#paint126_linear_1_335)" stroke-linecap="round" stroke-linejoin="round"/>
<defs>
<linearGradient id="paint0_linear_1_335" x1="311" y1="535.812" x2="311" y2="536.812" gradientUnits="userSpaceOnUse">
<stop stop-color="#63C8FF"/>
<stop offset="1" stop-color="#3E6BB8"/>
</linearGradient>
<linearGradient id="paint1_linear_1_335" x1="204.37" y1="75.2554" x2="204.37" y2="98.2854" gradientUnits="userSpaceOnUse">
<stop stop-color="#63C8FF"/>
<stop offset="1" stop-color="#3E6BB8"/>
</linearGradient>
<linearGradient id="paint2_linear_1_335" x1="223.281" y1="102.552" x2="223.281" y2="367.161" gradientUnits="userSpaceOnUse">
<stop stop-color="#63C8FF"/>
<stop offset="1" stop-color="#3E6BB8"/>
</linearGradient>
<linearGradient id="paint3_linear_1_335" x1="417.978" y1="81.0264" x2="417.978" y2="92.5342" gradientUnits="userSpaceOnUse">
<stop stop-color="#63C8FF"/>
<stop offset="1" stop-color="#3E6BB8"/>
</linearGradient>
<linearGradient id="paint4_linear_1_335" x1="396.994" y1="81.0264" x2="396.994" y2="92.5342" gradientUnits="userSpaceOnUse">
<stop stop-color="#63C8FF"/>
<stop offset="1" stop-color="#3E6BB8"/>
</linearGradient>
<linearGradient id="paint5_linear_1_335" x1="376.006" y1="81.0264" x2="376.006" y2="92.5342" gradientUnits="userSpaceOnUse">
<stop stop-color="#63C8FF"/>
<stop offset="1" stop-color="#3E6BB8"/>
</linearGradient>
<linearGradient id="paint6_linear_1_335" x1="398.47" y1="113.902" x2="398.47" y2="114.902" gradientUnits="userSpaceOnUse">
<stop stop-color="#63C8FF"/>
<stop offset="1" stop-color="#3E6BB8"/>
</linearGradient>
<linearGradient id="paint7_linear_1_335" x1="398.47" y1="119.944" x2="398.47" y2="120.944" gradientUnits="userSpaceOnUse">
<stop stop-color="#63C8FF"/>
<stop offset="1" stop-color="#3E6BB8"/>
</linearGradient>
<linearGradient id="paint8_linear_1_335" x1="398.47" y1="125.984" x2="398.47" y2="126.984" gradientUnits="userSpaceOnUse">
<stop stop-color="#63C8FF"/>
<stop offset="1" stop-color="#3E6BB8"/>
</linearGradient>
<linearGradient id="paint9_linear_1_335" x1="113.916" y1="270.034" x2="113.916" y2="271.034" gradientUnits="userSpaceOnUse">
<stop stop-color="#63C8FF"/>
<stop offset="1" stop-color="#3E6BB8"/>
</linearGradient>
<linearGradient id="paint10_linear_1_335" x1="113.916" y1="278.921" x2="113.916" y2="279.921" gradientUnits="userSpaceOnUse">
<stop stop-color="#63C8FF"/>
<stop offset="1" stop-color="#3E6BB8"/>
</linearGradient>
<linearGradient id="paint11_linear_1_335" x1="101.57" y1="287.982" x2="101.57" y2="288.982" gradientUnits="userSpaceOnUse">
<stop stop-color="#63C8FF"/>
<stop offset="1" stop-color="#3E6BB8"/>
</linearGradient>
<linearGradient id="paint12_linear_1_335" x1="303.51" y1="105.543" x2="303.51" y2="106.258" gradientUnits="userSpaceOnUse">
<stop stop-color="#63C8FF"/>
<stop offset="1" stop-color="#3E6BB8"/>
</linearGradient>
<linearGradient id="paint13_linear_1_335" x1="303.51" y1="110.54" x2="303.51" y2="359.919" gradientUnits="userSpaceOnUse">
<stop stop-color="#63C8FF"/>
<stop offset="1" stop-color="#3E6BB8"/>
</linearGradient>
<linearGradient id="paint14_linear_1_335" x1="303.51" y1="362.064" x2="303.51" y2="362.779" gradientUnits="userSpaceOnUse">
<stop stop-color="#63C8FF"/>
<stop offset="1" stop-color="#3E6BB8"/>
</linearGradient>
<linearGradient id="paint15_linear_1_335" x1="33.6644" y1="307.819" x2="33.6644" y2="308.819" gradientUnits="userSpaceOnUse">
<stop stop-color="#63C8FF"/>
<stop offset="1" stop-color="#3E6BB8"/>
</linearGradient>
<linearGradient id="paint16_linear_1_335" x1="223.762" y1="307.819" x2="223.762" y2="308.819" gradientUnits="userSpaceOnUse">
<stop stop-color="#63C8FF"/>
<stop offset="1" stop-color="#3E6BB8"/>
</linearGradient>
<linearGradient id="paint17_linear_1_335" x1="411.638" y1="307.819" x2="411.638" y2="308.819" gradientUnits="userSpaceOnUse">
<stop stop-color="#63C8FF"/>
<stop offset="1" stop-color="#3E6BB8"/>
</linearGradient>
<linearGradient id="paint18_linear_1_335" x1="303.004" y1="305.356" x2="303.004" y2="310.294" gradientUnits="userSpaceOnUse">
<stop stop-color="#63C8FF"/>
<stop offset="1" stop-color="#3E6BB8"/>
</linearGradient>
<linearGradient id="paint19_linear_1_335" x1="149.716" y1="1" x2="149.716" y2="53.0143" gradientUnits="userSpaceOnUse">
<stop stop-color="#63C8FF"/>
<stop offset="1" stop-color="#3E6BB8"/>
</linearGradient>
<linearGradient id="paint20_linear_1_335" x1="116.664" y1="349.641" x2="116.664" y2="397.777" gradientUnits="userSpaceOnUse">
<stop stop-color="#63C8FF"/>
<stop offset="1" stop-color="#3E6BB8"/>
</linearGradient>
<linearGradient id="paint21_linear_1_335" x1="116.664" y1="349.641" x2="116.664" y2="397.777" gradientUnits="userSpaceOnUse">
<stop stop-color="#63C8FF"/>
<stop offset="1" stop-color="#3E6BB8"/>
</linearGradient>
<linearGradient id="paint22_linear_1_335" x1="116.664" y1="349.641" x2="116.664" y2="356.955" gradientUnits="userSpaceOnUse">
<stop stop-color="#63C8FF"/>
<stop offset="1" stop-color="#3E6BB8"/>
</linearGradient>
<linearGradient id="paint23_linear_1_335" x1="248.46" y1="260.384" x2="248.46" y2="261.384" gradientUnits="userSpaceOnUse">
<stop stop-color="#63C8FF"/>
<stop offset="1" stop-color="#3E6BB8"/>
</linearGradient>
<linearGradient id="paint24_linear_1_335" x1="248.47" y1="260.24" x2="248.47" y2="290.871" gradientUnits="userSpaceOnUse">
<stop stop-color="#63C8FF"/>
<stop offset="1" stop-color="#3E6BB8"/>
</linearGradient>
<linearGradient id="paint25_linear_1_335" x1="283.92" y1="287.982" x2="283.92" y2="293.764" gradientUnits="userSpaceOnUse">
<stop stop-color="#63C8FF"/>
<stop offset="1" stop-color="#3E6BB8"/>
</linearGradient>
<linearGradient id="paint26_linear_1_335" x1="213.019" y1="287.982" x2="213.019" y2="293.764" gradientUnits="userSpaceOnUse">
<stop stop-color="#63C8FF"/>
<stop offset="1" stop-color="#3E6BB8"/>
</linearGradient>
<linearGradient id="paint27_linear_1_335" x1="283.921" y1="262.774" x2="283.921" y2="257.708" gradientUnits="userSpaceOnUse">
<stop stop-color="#63C8FF"/>
<stop offset="1" stop-color="#3E6BB8"/>
</linearGradient>
<linearGradient id="paint28_linear_1_335" x1="248.455" y1="262.774" x2="248.455" y2="257.708" gradientUnits="userSpaceOnUse">
<stop stop-color="#63C8FF"/>
<stop offset="1" stop-color="#3E6BB8"/>
</linearGradient>
<linearGradient id="paint29_linear_1_335" x1="213.017" y1="262.774" x2="213.017" y2="257.708" gradientUnits="userSpaceOnUse">
<stop stop-color="#63C8FF"/>
<stop offset="1" stop-color="#3E6BB8"/>
</linearGradient>
<linearGradient id="paint30_linear_1_335" x1="69.2153" y1="135.4" x2="69.2153" y2="190.978" gradientUnits="userSpaceOnUse">
<stop stop-color="#63C8FF"/>
<stop offset="1" stop-color="#3E6BB8"/>
</linearGradient>
<linearGradient id="paint31_linear_1_335" x1="113.922" y1="168.464" x2="113.922" y2="206.508" gradientUnits="userSpaceOnUse">
<stop stop-color="#63C8FF"/>
<stop offset="1" stop-color="#3E6BB8"/>
</linearGradient>
<linearGradient id="paint32_linear_1_335" x1="346.355" y1="324.649" x2="346.355" y2="325.649" gradientUnits="userSpaceOnUse">
<stop stop-color="#63C8FF"/>
<stop offset="1" stop-color="#3E6BB8"/>
</linearGradient>
<linearGradient id="paint33_linear_1_335" x1="346.355" y1="333.54" x2="346.355" y2="334.54" gradientUnits="userSpaceOnUse">
<stop stop-color="#63C8FF"/>
<stop offset="1" stop-color="#3E6BB8"/>
</linearGradient>
<linearGradient id="paint34_linear_1_335" x1="334.016" y1="342.601" x2="334.016" y2="343.601" gradientUnits="userSpaceOnUse">
<stop stop-color="#63C8FF"/>
<stop offset="1" stop-color="#3E6BB8"/>
</linearGradient>
<linearGradient id="paint35_linear_1_335" x1="226.91" y1="331.908" x2="226.91" y2="346.279" gradientUnits="userSpaceOnUse">
<stop stop-color="#63C8FF"/>
<stop offset="1" stop-color="#3E6BB8"/>
</linearGradient>
<linearGradient id="paint36_linear_1_335" x1="283.216" y1="331.908" x2="283.216" y2="346.279" gradientUnits="userSpaceOnUse">
<stop stop-color="#63C8FF"/>
<stop offset="1" stop-color="#3E6BB8"/>
</linearGradient>
<linearGradient id="paint37_linear_1_335" x1="353.891" y1="192.726" x2="353.891" y2="254.617" gradientUnits="userSpaceOnUse">
<stop stop-color="#63C8FF"/>
<stop offset="1" stop-color="#3E6BB8"/>
</linearGradient>
<linearGradient id="paint38_linear_1_335" x1="353.891" y1="192.726" x2="353.891" y2="254.617" gradientUnits="userSpaceOnUse">
<stop stop-color="#63C8FF"/>
<stop offset="1" stop-color="#3E6BB8"/>
</linearGradient>
<linearGradient id="paint39_linear_1_335" x1="353.891" y1="192.726" x2="353.891" y2="254.617" gradientUnits="userSpaceOnUse">
<stop stop-color="#63C8FF"/>
<stop offset="1" stop-color="#3E6BB8"/>
</linearGradient>
<linearGradient id="paint40_linear_1_335" x1="415.771" y1="155.969" x2="415.771" y2="204.105" gradientUnits="userSpaceOnUse">
<stop stop-color="#63C8FF"/>
<stop offset="1" stop-color="#3E6BB8"/>
</linearGradient>
<linearGradient id="paint41_linear_1_335" x1="415.771" y1="155.969" x2="415.771" y2="204.105" gradientUnits="userSpaceOnUse">
<stop stop-color="#63C8FF"/>
<stop offset="1" stop-color="#3E6BB8"/>
</linearGradient>
<linearGradient id="paint42_linear_1_335" x1="415.771" y1="155.969" x2="415.771" y2="163.283" gradientUnits="userSpaceOnUse">
<stop stop-color="#63C8FF"/>
<stop offset="1" stop-color="#3E6BB8"/>
</linearGradient>
<linearGradient id="paint43_linear_1_335" x1="336.21" y1="122.475" x2="336.21" y2="143.287" gradientUnits="userSpaceOnUse">
<stop stop-color="#63C8FF"/>
<stop offset="1" stop-color="#3E6BB8"/>
</linearGradient>
<linearGradient id="paint44_linear_1_335" x1="343.687" y1="136.918" x2="343.687" y2="143.287" gradientUnits="userSpaceOnUse">
<stop stop-color="#63C8FF"/>
<stop offset="1" stop-color="#3E6BB8"/>
</linearGradient>
<linearGradient id="paint45_linear_1_335" x1="107.029" y1="234.164" x2="107.029" y2="254.975" gradientUnits="userSpaceOnUse">
<stop stop-color="#63C8FF"/>
<stop offset="1" stop-color="#3E6BB8"/>
</linearGradient>
<linearGradient id="paint46_linear_1_335" x1="114.508" y1="248.604" x2="114.508" y2="254.972" gradientUnits="userSpaceOnUse">
<stop stop-color="#63C8FF"/>
<stop offset="1" stop-color="#3E6BB8"/>
</linearGradient>
<linearGradient id="paint47_linear_1_335" x1="25.5865" y1="323.134" x2="25.5865" y2="343.946" gradientUnits="userSpaceOnUse">
<stop stop-color="#63C8FF"/>
<stop offset="1" stop-color="#3E6BB8"/>
</linearGradient>
<linearGradient id="paint48_linear_1_335" x1="33.0645" y1="337.578" x2="33.0645" y2="343.946" gradientUnits="userSpaceOnUse">
<stop stop-color="#63C8FF"/>
<stop offset="1" stop-color="#3E6BB8"/>
</linearGradient>
<linearGradient id="paint49_linear_1_335" x1="356.83" y1="199.195" x2="356.83" y2="339.122" gradientUnits="userSpaceOnUse">
<stop stop-color="#63C8FF"/>
<stop offset="1" stop-color="#3E6BB8"/>
</linearGradient>
<linearGradient id="paint50_linear_1_335" x1="296.719" y1="208.356" x2="296.719" y2="229.754" gradientUnits="userSpaceOnUse">
<stop stop-color="#63C8FF"/>
<stop offset="1" stop-color="#3E6BB8"/>
</linearGradient>
<linearGradient id="paint51_linear_1_335" x1="291.349" y1="214.395" x2="291.349" y2="226.705" gradientUnits="userSpaceOnUse">
<stop stop-color="#63C8FF"/>
<stop offset="1" stop-color="#3E6BB8"/>
</linearGradient>
<linearGradient id="paint52_linear_1_335" x1="288.107" y1="213.723" x2="288.107" y2="220.378" gradientUnits="userSpaceOnUse">
<stop stop-color="#63C8FF"/>
<stop offset="1" stop-color="#3E6BB8"/>
</linearGradient>
<linearGradient id="paint53_linear_1_335" x1="285.365" y1="217.33" x2="285.365" y2="223.67" gradientUnits="userSpaceOnUse">
<stop stop-color="#63C8FF"/>
<stop offset="1" stop-color="#3E6BB8"/>
</linearGradient>
<linearGradient id="paint54_linear_1_335" x1="287.5" y1="203.089" x2="287.5" y2="207.626" gradientUnits="userSpaceOnUse">
<stop stop-color="#63C8FF"/>
<stop offset="1" stop-color="#3E6BB8"/>
</linearGradient>
<linearGradient id="paint55_linear_1_335" x1="290.904" y1="204.563" x2="290.904" y2="206.61" gradientUnits="userSpaceOnUse">
<stop stop-color="#63C8FF"/>
<stop offset="1" stop-color="#3E6BB8"/>
</linearGradient>
<linearGradient id="paint56_linear_1_335" x1="472.91" y1="303.51" x2="472.91" y2="495.175" gradientUnits="userSpaceOnUse">
<stop stop-color="#63C8FF"/>
<stop offset="1" stop-color="#3E6BB8"/>
</linearGradient>
<linearGradient id="paint57_linear_1_335" x1="482.909" y1="287.542" x2="482.909" y2="328.117" gradientUnits="userSpaceOnUse">
<stop stop-color="#63C8FF"/>
<stop offset="1" stop-color="#3E6BB8"/>
</linearGradient>
<linearGradient id="paint58_linear_1_335" x1="424.221" y1="450.26" x2="424.221" y2="511.896" gradientUnits="userSpaceOnUse">
<stop stop-color="#63C8FF"/>
<stop offset="1" stop-color="#3E6BB8"/>
</linearGradient>
<linearGradient id="paint59_linear_1_335" x1="430.458" y1="450.26" x2="430.458" y2="545.048" gradientUnits="userSpaceOnUse">
<stop stop-color="#63C8FF"/>
<stop offset="1" stop-color="#3E6BB8"/>
</linearGradient>
<linearGradient id="paint60_linear_1_335" x1="488.181" y1="536.745" x2="488.181" y2="558.306" gradientUnits="userSpaceOnUse">
<stop stop-color="#63C8FF"/>
<stop offset="1" stop-color="#3E6BB8"/>
</linearGradient>
<linearGradient id="paint61_linear_1_335" x1="474.514" y1="521.187" x2="474.514" y2="555.854" gradientUnits="userSpaceOnUse">
<stop stop-color="#63C8FF"/>
<stop offset="1" stop-color="#3E6BB8"/>
</linearGradient>
<linearGradient id="paint62_linear_1_335" x1="474.514" y1="521.187" x2="474.514" y2="555.854" gradientUnits="userSpaceOnUse">
<stop stop-color="#63C8FF"/>
<stop offset="1" stop-color="#3E6BB8"/>
</linearGradient>
<linearGradient id="paint63_linear_1_335" x1="458.898" y1="543.855" x2="458.898" y2="551.628" gradientUnits="userSpaceOnUse">
<stop stop-color="#63C8FF"/>
<stop offset="1" stop-color="#3E6BB8"/>
</linearGradient>
<linearGradient id="paint64_linear_1_335" x1="505.108" y1="528.201" x2="505.108" y2="550.472" gradientUnits="userSpaceOnUse">
<stop stop-color="#63C8FF"/>
<stop offset="1" stop-color="#3E6BB8"/>
</linearGradient>
<linearGradient id="paint65_linear_1_335" x1="488.006" y1="527.553" x2="488.006" y2="540.266" gradientUnits="userSpaceOnUse">
<stop stop-color="#63C8FF"/>
<stop offset="1" stop-color="#3E6BB8"/>
</linearGradient>
<linearGradient id="paint66_linear_1_335" x1="482.561" y1="527.521" x2="482.561" y2="540.568" gradientUnits="userSpaceOnUse">
<stop stop-color="#63C8FF"/>
<stop offset="1" stop-color="#3E6BB8"/>
</linearGradient>
<linearGradient id="paint67_linear_1_335" x1="476.571" y1="526.912" x2="476.571" y2="539.949" gradientUnits="userSpaceOnUse">
<stop stop-color="#63C8FF"/>
<stop offset="1" stop-color="#3E6BB8"/>
</linearGradient>
<linearGradient id="paint68_linear_1_335" x1="470.736" y1="525.92" x2="470.736" y2="539.349" gradientUnits="userSpaceOnUse">
<stop stop-color="#63C8FF"/>
<stop offset="1" stop-color="#3E6BB8"/>
</linearGradient>
<linearGradient id="paint69_linear_1_335" x1="464.097" y1="524.239" x2="464.097" y2="537.876" gradientUnits="userSpaceOnUse">
<stop stop-color="#63C8FF"/>
<stop offset="1" stop-color="#3E6BB8"/>
</linearGradient>
<linearGradient id="paint70_linear_1_335" x1="356.899" y1="528.673" x2="356.899" y2="555.847" gradientUnits="userSpaceOnUse">
<stop stop-color="#63C8FF"/>
<stop offset="1" stop-color="#3E6BB8"/>
</linearGradient>
<linearGradient id="paint71_linear_1_335" x1="371.84" y1="519.767" x2="371.84" y2="553.861" gradientUnits="userSpaceOnUse">
<stop stop-color="#63C8FF"/>
<stop offset="1" stop-color="#3E6BB8"/>
</linearGradient>
<linearGradient id="paint72_linear_1_335" x1="371.84" y1="519.767" x2="371.84" y2="553.861" gradientUnits="userSpaceOnUse">
<stop stop-color="#63C8FF"/>
<stop offset="1" stop-color="#3E6BB8"/>
</linearGradient>
<linearGradient id="paint73_linear_1_335" x1="341.102" y1="521.667" x2="341.102" y2="544.761" gradientUnits="userSpaceOnUse">
<stop stop-color="#63C8FF"/>
<stop offset="1" stop-color="#3E6BB8"/>
</linearGradient>
<linearGradient id="paint74_linear_1_335" x1="358.729" y1="522.348" x2="358.729" y2="535.487" gradientUnits="userSpaceOnUse">
<stop stop-color="#63C8FF"/>
<stop offset="1" stop-color="#3E6BB8"/>
</linearGradient>
<linearGradient id="paint75_linear_1_335" x1="364.146" y1="522.874" x2="364.146" y2="536.301" gradientUnits="userSpaceOnUse">
<stop stop-color="#63C8FF"/>
<stop offset="1" stop-color="#3E6BB8"/>
</linearGradient>
<linearGradient id="paint76_linear_1_335" x1="370.159" y1="522.886" x2="370.159" y2="536.316" gradientUnits="userSpaceOnUse">
<stop stop-color="#63C8FF"/>
<stop offset="1" stop-color="#3E6BB8"/>
</linearGradient>
<linearGradient id="paint77_linear_1_335" x1="376.142" y1="522.458" x2="376.142" y2="536.301" gradientUnits="userSpaceOnUse">
<stop stop-color="#63C8FF"/>
<stop offset="1" stop-color="#3E6BB8"/>
</linearGradient>
<linearGradient id="paint78_linear_1_335" x1="382.937" y1="521.496" x2="382.937" y2="535.499" gradientUnits="userSpaceOnUse">
<stop stop-color="#63C8FF"/>
<stop offset="1" stop-color="#3E6BB8"/>
</linearGradient>
<linearGradient id="paint79_linear_1_335" x1="386.223" y1="541.984" x2="386.223" y2="549.438" gradientUnits="userSpaceOnUse">
<stop stop-color="#63C8FF"/>
<stop offset="1" stop-color="#3E6BB8"/>
</linearGradient>
<linearGradient id="paint80_linear_1_335" x1="432.808" y1="496.195" x2="432.808" y2="547.657" gradientUnits="userSpaceOnUse">
<stop stop-color="#63C8FF"/>
<stop offset="1" stop-color="#3E6BB8"/>
</linearGradient>
<linearGradient id="paint81_linear_1_335" x1="450.288" y1="473.323" x2="450.288" y2="524.22" gradientUnits="userSpaceOnUse">
<stop stop-color="#63C8FF"/>
<stop offset="1" stop-color="#3E6BB8"/>
</linearGradient>
<linearGradient id="paint82_linear_1_335" x1="523.682" y1="510.766" x2="523.682" y2="524.836" gradientUnits="userSpaceOnUse">
<stop stop-color="#63C8FF"/>
<stop offset="1" stop-color="#3E6BB8"/>
</linearGradient>
<linearGradient id="paint83_linear_1_335" x1="412.056" y1="476.071" x2="412.056" y2="503.853" gradientUnits="userSpaceOnUse">
<stop stop-color="#63C8FF"/>
<stop offset="1" stop-color="#3E6BB8"/>
</linearGradient>
<linearGradient id="paint84_linear_1_335" x1="420.193" y1="487.263" x2="420.193" y2="499.3" gradientUnits="userSpaceOnUse">
<stop stop-color="#63C8FF"/>
<stop offset="1" stop-color="#3E6BB8"/>
</linearGradient>
<linearGradient id="paint85_linear_1_335" x1="416.482" y1="478.534" x2="416.482" y2="483.185" gradientUnits="userSpaceOnUse">
<stop stop-color="#63C8FF"/>
<stop offset="1" stop-color="#3E6BB8"/>
</linearGradient>
<linearGradient id="paint86_linear_1_335" x1="446.564" y1="477.303" x2="446.564" y2="492.389" gradientUnits="userSpaceOnUse">
<stop stop-color="#63C8FF"/>
<stop offset="1" stop-color="#3E6BB8"/>
</linearGradient>
<linearGradient id="paint87_linear_1_335" x1="482.022" y1="526.77" x2="482.022" y2="527.613" gradientUnits="userSpaceOnUse">
<stop stop-color="#63C8FF"/>
<stop offset="1" stop-color="#3E6BB8"/>
</linearGradient>
<linearGradient id="paint88_linear_1_335" x1="445.698" y1="521.659" x2="445.698" y2="527.8" gradientUnits="userSpaceOnUse">
<stop stop-color="#63C8FF"/>
<stop offset="1" stop-color="#3E6BB8"/>
</linearGradient>
<linearGradient id="paint89_linear_1_335" x1="497.043" y1="384.352" x2="497.043" y2="467.068" gradientUnits="userSpaceOnUse">
<stop stop-color="#63C8FF"/>
<stop offset="1" stop-color="#3E6BB8"/>
</linearGradient>
<linearGradient id="paint90_linear_1_335" x1="530.229" y1="331.334" x2="530.229" y2="403.001" gradientUnits="userSpaceOnUse">
<stop stop-color="#63C8FF"/>
<stop offset="1" stop-color="#3E6BB8"/>
</linearGradient>
<linearGradient id="paint91_linear_1_335" x1="425.304" y1="469.715" x2="425.304" y2="478.561" gradientUnits="userSpaceOnUse">
<stop stop-color="#63C8FF"/>
<stop offset="1" stop-color="#3E6BB8"/>
</linearGradient>
<linearGradient id="paint92_linear_1_335" x1="392.176" y1="391.838" x2="392.176" y2="473.409" gradientUnits="userSpaceOnUse">
<stop stop-color="#63C8FF"/>
<stop offset="1" stop-color="#3E6BB8"/>
</linearGradient>
<linearGradient id="paint93_linear_1_335" x1="330.332" y1="394.516" x2="330.332" y2="395.516" gradientUnits="userSpaceOnUse">
<stop stop-color="#63C8FF"/>
<stop offset="1" stop-color="#3E6BB8"/>
</linearGradient>
<linearGradient id="paint94_linear_1_335" x1="341.849" y1="394.516" x2="341.849" y2="395.516" gradientUnits="userSpaceOnUse">
<stop stop-color="#63C8FF"/>
<stop offset="1" stop-color="#3E6BB8"/>
</linearGradient>
<linearGradient id="paint95_linear_1_335" x1="401.84" y1="394.5" x2="401.84" y2="463.934" gradientUnits="userSpaceOnUse">
<stop stop-color="#63C8FF"/>
<stop offset="1" stop-color="#3E6BB8"/>
</linearGradient>
<linearGradient id="paint96_linear_1_335" x1="455.523" y1="468.057" x2="455.523" y2="469.703" gradientUnits="userSpaceOnUse">
<stop stop-color="#63C8FF"/>
<stop offset="1" stop-color="#3E6BB8"/>
</linearGradient>
<linearGradient id="paint97_linear_1_335" x1="389.315" y1="425.817" x2="389.315" y2="442.674" gradientUnits="userSpaceOnUse">
<stop stop-color="#63C8FF"/>
<stop offset="1" stop-color="#3E6BB8"/>
</linearGradient>
<linearGradient id="paint98_linear_1_335" x1="425.018" y1="275.733" x2="425.018" y2="359.118" gradientUnits="userSpaceOnUse">
<stop stop-color="#63C8FF"/>
<stop offset="1" stop-color="#3E6BB8"/>
</linearGradient>
<linearGradient id="paint99_linear_1_335" x1="147.938" y1="120.344" x2="147.938" y2="121.059" gradientUnits="userSpaceOnUse">
<stop stop-color="#63C8FF"/>
<stop offset="1" stop-color="#3E6BB8"/>
</linearGradient>
<linearGradient id="paint100_linear_1_335" x1="215.358" y1="120.344" x2="215.358" y2="121.344" gradientUnits="userSpaceOnUse">
<stop stop-color="#63C8FF"/>
<stop offset="1" stop-color="#3E6BB8"/>
</linearGradient>
<linearGradient id="paint101_linear_1_335" x1="280.588" y1="120.344" x2="280.588" y2="121.059" gradientUnits="userSpaceOnUse">
<stop stop-color="#63C8FF"/>
<stop offset="1" stop-color="#3E6BB8"/>
</linearGradient>
<linearGradient id="paint102_linear_1_335" x1="281.457" y1="125.353" x2="281.457" y2="203.36" gradientUnits="userSpaceOnUse">
<stop stop-color="#63C8FF"/>
<stop offset="1" stop-color="#3E6BB8"/>
</linearGradient>
<linearGradient id="paint103_linear_1_335" x1="280.588" y1="205.507" x2="280.588" y2="206.223" gradientUnits="userSpaceOnUse">
<stop stop-color="#63C8FF"/>
<stop offset="1" stop-color="#3E6BB8"/>
</linearGradient>
<linearGradient id="paint104_linear_1_335" x1="213.179" y1="206.222" x2="213.179" y2="207.222" gradientUnits="userSpaceOnUse">
<stop stop-color="#63C8FF"/>
<stop offset="1" stop-color="#3E6BB8"/>
</linearGradient>
<linearGradient id="paint105_linear_1_335" x1="147.937" y1="205.507" x2="147.937" y2="206.223" gradientUnits="userSpaceOnUse">
<stop stop-color="#63C8FF"/>
<stop offset="1" stop-color="#3E6BB8"/>
</linearGradient>
<linearGradient id="paint106_linear_1_335" x1="148.067" y1="123.207" x2="148.067" y2="201.214" gradientUnits="userSpaceOnUse">
<stop stop-color="#63C8FF"/>
<stop offset="1" stop-color="#3E6BB8"/>
</linearGradient>
<linearGradient id="paint107_linear_1_335" x1="214.263" y1="118.226" x2="214.263" y2="122.462" gradientUnits="userSpaceOnUse">
<stop stop-color="#63C8FF"/>
<stop offset="1" stop-color="#3E6BB8"/>
</linearGradient>
<linearGradient id="paint108_linear_1_335" x1="147.566" y1="161.166" x2="147.566" y2="165.403" gradientUnits="userSpaceOnUse">
<stop stop-color="#63C8FF"/>
<stop offset="1" stop-color="#3E6BB8"/>
</linearGradient>
<linearGradient id="paint109_linear_1_335" x1="214.263" y1="204.103" x2="214.263" y2="208.34" gradientUnits="userSpaceOnUse">
<stop stop-color="#63C8FF"/>
<stop offset="1" stop-color="#3E6BB8"/>
</linearGradient>
<linearGradient id="paint110_linear_1_335" x1="280.955" y1="161.166" x2="280.955" y2="165.403" gradientUnits="userSpaceOnUse">
<stop stop-color="#63C8FF"/>
<stop offset="1" stop-color="#3E6BB8"/>
</linearGradient>
<linearGradient id="paint111_linear_1_335" x1="280.966" y1="203.763" x2="280.966" y2="208.7" gradientUnits="userSpaceOnUse">
<stop stop-color="#63C8FF"/>
<stop offset="1" stop-color="#3E6BB8"/>
</linearGradient>
<linearGradient id="paint112_linear_1_335" x1="280.966" y1="117.882" x2="280.966" y2="122.82" gradientUnits="userSpaceOnUse">
<stop stop-color="#63C8FF"/>
<stop offset="1" stop-color="#3E6BB8"/>
</linearGradient>
<linearGradient id="paint113_linear_1_335" x1="147.573" y1="203.763" x2="147.573" y2="208.7" gradientUnits="userSpaceOnUse">
<stop stop-color="#63C8FF"/>
<stop offset="1" stop-color="#3E6BB8"/>
</linearGradient>
<linearGradient id="paint114_linear_1_335" x1="147.573" y1="117.882" x2="147.573" y2="122.82" gradientUnits="userSpaceOnUse">
<stop stop-color="#63C8FF"/>
<stop offset="1" stop-color="#3E6BB8"/>
</linearGradient>
<linearGradient id="paint115_linear_1_335" x1="214.479" y1="127.944" x2="214.479" y2="199.181" gradientUnits="userSpaceOnUse">
<stop stop-color="#63C8FF"/>
<stop offset="1" stop-color="#3E6BB8"/>
</linearGradient>
<linearGradient id="paint116_linear_1_335" x1="214.472" y1="148.442" x2="214.472" y2="199.182" gradientUnits="userSpaceOnUse">
<stop stop-color="#63C8FF"/>
<stop offset="1" stop-color="#3E6BB8"/>
</linearGradient>
<linearGradient id="paint117_linear_1_335" x1="248.472" y1="140.239" x2="248.472" y2="156.069" gradientUnits="userSpaceOnUse">
<stop stop-color="#63C8FF"/>
<stop offset="1" stop-color="#3E6BB8"/>
</linearGradient>
<linearGradient id="paint118_linear_1_335" x1="473.484" y1="297.87" x2="473.484" y2="307.746" gradientUnits="userSpaceOnUse">
<stop stop-color="#63C8FF"/>
<stop offset="1" stop-color="#3E6BB8"/>
</linearGradient>
<linearGradient id="paint119_linear_1_335" x1="487.304" y1="236.572" x2="487.304" y2="303.518" gradientUnits="userSpaceOnUse">
<stop stop-color="#63C8FF"/>
<stop offset="1" stop-color="#3E6BB8"/>
</linearGradient>
<linearGradient id="paint120_linear_1_335" x1="468.143" y1="255.001" x2="468.143" y2="258.808" gradientUnits="userSpaceOnUse">
<stop stop-color="#63C8FF"/>
<stop offset="1" stop-color="#3E6BB8"/>
</linearGradient>
<linearGradient id="paint121_linear_1_335" x1="466.972" y1="263.857" x2="466.972" y2="269.091" gradientUnits="userSpaceOnUse">
<stop stop-color="#63C8FF"/>
<stop offset="1" stop-color="#3E6BB8"/>
</linearGradient>
<linearGradient id="paint122_linear_1_335" x1="461.285" y1="286.177" x2="461.285" y2="287.985" gradientUnits="userSpaceOnUse">
<stop stop-color="#63C8FF"/>
<stop offset="1" stop-color="#3E6BB8"/>
</linearGradient>
<linearGradient id="paint123_linear_1_335" x1="461.288" y1="259.863" x2="461.288" y2="271.485" gradientUnits="userSpaceOnUse">
<stop stop-color="#63C8FF"/>
<stop offset="1" stop-color="#3E6BB8"/>
</linearGradient>
<linearGradient id="paint124_linear_1_335" x1="496.275" y1="226.679" x2="496.275" y2="301.149" gradientUnits="userSpaceOnUse">
<stop stop-color="#63C8FF"/>
<stop offset="1" stop-color="#3E6BB8"/>
</linearGradient>
<linearGradient id="paint125_linear_1_335" x1="498.286" y1="269.357" x2="498.286" y2="294.52" gradientUnits="userSpaceOnUse">
<stop stop-color="#63C8FF"/>
<stop offset="1" stop-color="#3E6BB8"/>
</linearGradient>
<linearGradient id="paint126_linear_1_335" x1="477.248" y1="266.166" x2="477.248" y2="271.462" gradientUnits="userSpaceOnUse">
<stop stop-color="#63C8FF"/>
<stop offset="1" stop-color="#3E6BB8"/>
</linearGradient>
</defs>
</svg>
