<?xml version="1.0" standalone="no"?>
<svg xmlns:xlink="http://www.w3.org/1999/xlink" id="wave" style="transform:rotate(0deg); transition: 0.3s" viewBox="0 0 1440 490" version="1.1" xmlns="http://www.w3.org/2000/svg"><defs><linearGradient id="sw-gradient-0" x1="0" x2="0" y1="1" y2="0"><stop stop-color="rgba(0, 41, 82, 1)" offset="0%"/><stop stop-color="rgba(30, 166, 220, 1)" offset="100%"/></linearGradient></defs><path style="transform:translate(0, 0px); opacity:1" fill="url(#sw-gradient-0)" d="M0,98L80,89.8C160,82,320,65,480,114.3C640,163,800,278,960,294C1120,310,1280,229,1440,220.5C1600,212,1760,278,1920,253.2C2080,229,2240,114,2400,122.5C2560,131,2720,261,2880,334.8C3040,408,3200,425,3360,375.7C3520,327,3680,212,3840,163.3C4000,114,4160,131,4320,171.5C4480,212,4640,278,4800,302.2C4960,327,5120,310,5280,302.2C5440,294,5600,294,5760,253.2C5920,212,6080,131,6240,138.8C6400,147,6560,245,6720,277.7C6880,310,7040,278,7200,261.3C7360,245,7520,245,7680,236.8C7840,229,8000,212,8160,212.3C8320,212,8480,229,8640,253.2C8800,278,8960,310,9120,343C9280,376,9440,408,9600,408.3C9760,408,9920,376,10080,302.2C10240,229,10400,114,10560,89.8C10720,65,10880,131,11040,163.3C11200,196,11360,196,11440,196L11520,196L11520,490L11440,490C11360,490,11200,490,11040,490C10880,490,10720,490,10560,490C10400,490,10240,490,10080,490C9920,490,9760,490,9600,490C9440,490,9280,490,9120,490C8960,490,8800,490,8640,490C8480,490,8320,490,8160,490C8000,490,7840,490,7680,490C7520,490,7360,490,7200,490C7040,490,6880,490,6720,490C6560,490,6400,490,6240,490C6080,490,5920,490,5760,490C5600,490,5440,490,5280,490C5120,490,4960,490,4800,490C4640,490,4480,490,4320,490C4160,490,4000,490,3840,490C3680,490,3520,490,3360,490C3200,490,3040,490,2880,490C2720,490,2560,490,2400,490C2240,490,2080,490,1920,490C1760,490,1600,490,1440,490C1280,490,1120,490,960,490C800,490,640,490,480,490C320,490,160,490,80,490L0,490Z"/></svg>